# MagicaVoxel @ Ephtracy

# material
mtllib beach.mtl
usemtl palette

# normals
vn -1 0 0
vn 1 0 0
vn 0 0 1
vn 0 0 -1
vn 0 -1 0
vn 0 1 0

# texcoords
vt 0.986328 0.5
vt 0.990234 0.5
vt 0.994141 0.5

# verts
v -4 0 4
v -4 0 1
v -4 0 -0
v -4 0 -4
v -4 1 4
v -4 1 1
v -4 2 1
v -4 2 -0
v -4 3 -0
v -4 3 -4
v 4 0 4
v 4 0 1
v 4 0 -0
v 4 0 -4
v 4 1 4
v 4 1 1
v 4 2 1
v 4 2 -0
v 4 3 -0
v 4 3 -4
v -4 0 4
v -4 1 4
v 4 0 4
v 4 1 4
v -4 1 1
v -4 2 1
v 4 1 1
v 4 2 1
v -4 2 -0
v -4 3 -0
v 4 2 -0
v 4 3 -0
v -4 0 -4
v -4 3 -4
v 4 0 -4
v 4 3 -4
v -4 0 4
v 4 0 4
v -4 0 1
v -3 0 1
v 3 0 1
v 4 0 1
v -4 0 -0
v -3 0 -0
v 3 0 -0
v 4 0 -0
v -3 0 -3
v 3 0 -3
v -4 0 -4
v 4 0 -4
v -4 1 4
v 4 1 4
v -4 1 1
v 4 1 1
v -4 2 1
v 4 2 1
v -4 2 -0
v 4 2 -0
v -4 3 -0
v 4 3 -0
v -4 3 -4
v 4 3 -4

# faces
f 5/1/1 2/1/1 1/1/1
f 6/2/1 3/2/1 2/2/1
f 6/1/1 2/1/1 5/1/1
f 7/2/1 3/2/1 6/2/1
f 8/3/1 4/3/1 3/3/1
f 8/2/1 3/2/1 7/2/1
f 9/3/1 4/3/1 8/3/1
f 10/3/1 4/3/1 9/3/1
f 11/1/2 12/1/2 15/1/2
f 12/2/2 13/2/2 16/2/2
f 15/1/2 12/1/2 16/1/2
f 16/2/2 13/2/2 17/2/2
f 13/3/2 14/3/2 18/3/2
f 17/2/2 13/2/2 18/2/2
f 18/3/2 14/3/2 19/3/2
f 19/3/2 14/3/2 20/3/2
f 23/1/3 22/1/3 21/1/3
f 24/1/3 22/1/3 23/1/3
f 27/2/3 26/2/3 25/2/3
f 28/2/3 26/2/3 27/2/3
f 31/3/3 30/3/3 29/3/3
f 32/3/3 30/3/3 31/3/3
f 33/3/4 34/3/4 35/3/4
f 35/3/4 34/3/4 36/3/4
f 39/1/5 38/1/5 37/1/5
f 40/1/5 38/1/5 39/1/5
f 41/1/5 38/1/5 40/1/5
f 42/1/5 38/1/5 41/1/5
f 43/2/5 40/2/5 39/2/5
f 44/1/5 41/1/5 40/1/5
f 44/2/5 40/2/5 43/2/5
f 45/2/5 42/2/5 41/2/5
f 45/1/5 41/1/5 44/1/5
f 46/2/5 42/2/5 45/2/5
f 47/3/5 44/3/5 43/3/5
f 47/1/5 45/1/5 44/1/5
f 48/3/5 46/3/5 45/3/5
f 48/1/5 45/1/5 47/1/5
f 49/3/5 47/3/5 43/3/5
f 49/3/5 48/3/5 47/3/5
f 50/3/5 46/3/5 48/3/5
f 50/3/5 48/3/5 49/3/5
f 51/1/6 52/1/6 53/1/6
f 53/1/6 52/1/6 54/1/6
f 55/2/6 56/2/6 57/2/6
f 57/2/6 56/2/6 58/2/6
f 59/3/6 60/3/6 61/3/6
f 61/3/6 60/3/6 62/3/6
