# MagicaVoxel @ Ephtracy

# material
mtllib builder_claw.mtl
usemtl palette

# normals
vn -1 0 0
vn 1 0 0
vn 0 0 1
vn 0 0 -1
vn 0 -1 0
vn 0 1 0

# texcoords
vt 0.958984 0.5
vt 0.962891 0.5
vt 0.982422 0.5
vt 0.990234 0.5

# verts
v -10 0 1.5
v -10 0 -1.5
v -10 3 1.5
v -10 3 -1.5
v 6 0 -1.5
v 6 0 -2.5
v 6 1 2.5
v 6 1 1.5
v 6 1 -1.5
v 6 1 -2.5
v 6 2 2.5
v 6 2 1.5
v 6 2 -1.5
v 6 2 -2.5
v 6 3 -1.5
v 6 3 -2.5
v 7 0 -2.5
v 7 0 -3.5
v 7 1 3.5
v 7 1 2.5
v 7 1 -2.5
v 7 1 -3.5
v 7 2 3.5
v 7 2 2.5
v 7 2 -2.5
v 7 2 -3.5
v 7 3 -2.5
v 7 3 -3.5
v 8 0 -3.5
v 8 0 -4.5
v 8 1 4.5
v 8 1 3.5
v 8 1 -3.5
v 8 1 -4.5
v 8 2 4.5
v 8 2 3.5
v 8 2 -3.5
v 8 2 -4.5
v 8 3 -3.5
v 8 3 -4.5
v 6 0 1.5
v 6 0 0.5
v 6 1 1.5
v 6 1 0.5
v 6 1 -0.5
v 6 1 -1.5
v 6 2 1.5
v 6 2 0.5
v 6 2 -0.5
v 6 2 -1.5
v 6 3 1.5
v 6 3 0.5
v 7 0 0.5
v 7 0 -1.5
v 7 1 1.5
v 7 1 0.5
v 7 1 -0.5
v 7 1 -1.5
v 7 2 1.5
v 7 2 0.5
v 7 2 -0.5
v 7 2 -1.5
v 7 3 0.5
v 7 3 -1.5
v 8 0 -1.5
v 8 0 -2.5
v 8 1 2.5
v 8 1 1.5
v 8 1 -1.5
v 8 1 -2.5
v 8 2 2.5
v 8 2 1.5
v 8 2 -1.5
v 8 2 -2.5
v 8 3 -1.5
v 8 3 -2.5
v 9 0 -2.5
v 9 0 -3.5
v 9 1 3.5
v 9 1 2.5
v 9 1 -2.5
v 9 1 -3.5
v 9 2 3.5
v 9 2 2.5
v 9 2 -2.5
v 9 2 -3.5
v 9 3 -2.5
v 9 3 -3.5
v 10 0 -3.5
v 10 0 -4.5
v 10 1 4.5
v 10 1 3.5
v 10 1 -3.5
v 10 1 -4.5
v 10 2 4.5
v 10 2 3.5
v 10 2 -3.5
v 10 2 -4.5
v 10 3 -3.5
v 10 3 -4.5
v 8 1 4.5
v 8 2 4.5
v 10 1 4.5
v 10 2 4.5
v 7 1 3.5
v 7 2 3.5
v 8 1 3.5
v 8 2 3.5
v 6 1 2.5
v 6 2 2.5
v 7 1 2.5
v 7 2 2.5
v -10 0 1.5
v -10 3 1.5
v -9 0 1.5
v -9 3 1.5
v -7 0 1.5
v -7 3 1.5
v -6 0 1.5
v -6 3 1.5
v -5 0 1.5
v -5 1 1.5
v -5 2 1.5
v -5 3 1.5
v -4 0 1.5
v -4 1 1.5
v -4 2 1.5
v -4 3 1.5
v -3 0 1.5
v -3 1 1.5
v -3 2 1.5
v -3 3 1.5
v -2 0 1.5
v -2 1 1.5
v -2 2 1.5
v -2 3 1.5
v -1 0 1.5
v -1 1 1.5
v -1 2 1.5
v -1 3 1.5
v 0 0 1.5
v 0 1 1.5
v 0 2 1.5
v 0 3 1.5
v 1 0 1.5
v 1 1 1.5
v 1 2 1.5
v 1 3 1.5
v 2 0 1.5
v 2 1 1.5
v 2 2 1.5
v 2 3 1.5
v 3 0 1.5
v 3 1 1.5
v 3 2 1.5
v 3 3 1.5
v 4 0 1.5
v 4 1 1.5
v 4 2 1.5
v 4 3 1.5
v 5 0 1.5
v 5 1 1.5
v 5 2 1.5
v 5 3 1.5
v 6 0 1.5
v 6 1 1.5
v 6 2 1.5
v 6 3 1.5
v 6 0 0.5
v 6 1 0.5
v 6 2 0.5
v 6 3 0.5
v 7 0 0.5
v 7 1 0.5
v 7 2 0.5
v 7 3 0.5
v 7 0 -1.5
v 7 1 -1.5
v 7 2 -1.5
v 7 3 -1.5
v 8 0 -1.5
v 8 1 -1.5
v 8 2 -1.5
v 8 3 -1.5
v 8 0 -2.5
v 8 1 -2.5
v 8 2 -2.5
v 8 3 -2.5
v 9 0 -2.5
v 9 1 -2.5
v 9 2 -2.5
v 9 3 -2.5
v 9 0 -3.5
v 9 1 -3.5
v 9 2 -3.5
v 9 3 -3.5
v 10 0 -3.5
v 10 1 -3.5
v 10 2 -3.5
v 10 3 -3.5
v 9 1 3.5
v 9 2 3.5
v 10 1 3.5
v 10 2 3.5
v 8 1 2.5
v 8 2 2.5
v 9 1 2.5
v 9 2 2.5
v 7 1 1.5
v 7 2 1.5
v 8 1 1.5
v 8 2 1.5
v 6 1 -0.5
v 6 2 -0.5
v 7 1 -0.5
v 7 2 -0.5
v -10 0 -1.5
v -10 3 -1.5
v -9 0 -1.5
v -9 3 -1.5
v -7 0 -1.5
v -7 3 -1.5
v -6 0 -1.5
v -6 3 -1.5
v -5 0 -1.5
v -5 1 -1.5
v -5 2 -1.5
v -5 3 -1.5
v -4 0 -1.5
v -4 1 -1.5
v -4 2 -1.5
v -4 3 -1.5
v -3 0 -1.5
v -3 1 -1.5
v -3 2 -1.5
v -3 3 -1.5
v -2 0 -1.5
v -2 1 -1.5
v -2 2 -1.5
v -2 3 -1.5
v -1 0 -1.5
v -1 1 -1.5
v -1 2 -1.5
v -1 3 -1.5
v 0 0 -1.5
v 0 1 -1.5
v 0 2 -1.5
v 0 3 -1.5
v 1 0 -1.5
v 1 1 -1.5
v 1 2 -1.5
v 1 3 -1.5
v 2 0 -1.5
v 2 1 -1.5
v 2 2 -1.5
v 2 3 -1.5
v 3 0 -1.5
v 3 1 -1.5
v 3 2 -1.5
v 3 3 -1.5
v 4 0 -1.5
v 4 1 -1.5
v 4 2 -1.5
v 4 3 -1.5
v 5 0 -1.5
v 5 1 -1.5
v 5 2 -1.5
v 5 3 -1.5
v 6 0 -1.5
v 6 1 -1.5
v 6 2 -1.5
v 6 3 -1.5
v 6 0 -2.5
v 6 1 -2.5
v 6 2 -2.5
v 6 3 -2.5
v 7 0 -2.5
v 7 1 -2.5
v 7 2 -2.5
v 7 3 -2.5
v 7 0 -3.5
v 7 1 -3.5
v 7 2 -3.5
v 7 3 -3.5
v 8 0 -3.5
v 8 1 -3.5
v 8 2 -3.5
v 8 3 -3.5
v 8 0 -4.5
v 8 1 -4.5
v 8 2 -4.5
v 8 3 -4.5
v 10 0 -4.5
v 10 1 -4.5
v 10 2 -4.5
v 10 3 -4.5
v -10 0 1.5
v -9 0 1.5
v -7 0 1.5
v -6 0 1.5
v -5 0 1.5
v -4 0 1.5
v -3 0 1.5
v -2 0 1.5
v -1 0 1.5
v 0 0 1.5
v 1 0 1.5
v 2 0 1.5
v 3 0 1.5
v 4 0 1.5
v 5 0 1.5
v 6 0 1.5
v -9 0 0.5
v -7 0 0.5
v -5 0 0.5
v -4 0 0.5
v -3 0 0.5
v -2 0 0.5
v -1 0 0.5
v 0 0 0.5
v 1 0 0.5
v 2 0 0.5
v 3 0 0.5
v 4 0 0.5
v 5 0 0.5
v 6 0 0.5
v 7 0 0.5
v -9 0 -0.5
v -7 0 -0.5
v -5 0 -0.5
v -4 0 -0.5
v -3 0 -0.5
v -2 0 -0.5
v -1 0 -0.5
v 0 0 -0.5
v 1 0 -0.5
v 2 0 -0.5
v 3 0 -0.5
v 4 0 -0.5
v 5 0 -0.5
v 6 0 -0.5
v -10 0 -1.5
v -9 0 -1.5
v -7 0 -1.5
v -6 0 -1.5
v -5 0 -1.5
v -4 0 -1.5
v -3 0 -1.5
v -2 0 -1.5
v -1 0 -1.5
v 0 0 -1.5
v 1 0 -1.5
v 2 0 -1.5
v 3 0 -1.5
v 4 0 -1.5
v 5 0 -1.5
v 6 0 -1.5
v 7 0 -1.5
v 8 0 -1.5
v 6 0 -2.5
v 7 0 -2.5
v 8 0 -2.5
v 9 0 -2.5
v 7 0 -3.5
v 8 0 -3.5
v 9 0 -3.5
v 10 0 -3.5
v 8 0 -4.5
v 10 0 -4.5
v 8 1 4.5
v 10 1 4.5
v 7 1 3.5
v 8 1 3.5
v 9 1 3.5
v 10 1 3.5
v 6 1 2.5
v 7 1 2.5
v 8 1 2.5
v 9 1 2.5
v 6 1 1.5
v 7 1 1.5
v 8 1 1.5
v 6 1 0.5
v 7 1 0.5
v 6 2 -0.5
v 7 2 -0.5
v 6 2 -1.5
v 7 2 -1.5
v 8 2 -1.5
v 6 2 -2.5
v 7 2 -2.5
v 8 2 -2.5
v 9 2 -2.5
v 7 2 -3.5
v 8 2 -3.5
v 9 2 -3.5
v 10 2 -3.5
v 8 2 -4.5
v 10 2 -4.5
v 6 1 -0.5
v 7 1 -0.5
v 6 1 -1.5
v 7 1 -1.5
v 8 1 -1.5
v 6 1 -2.5
v 7 1 -2.5
v 8 1 -2.5
v 9 1 -2.5
v 7 1 -3.5
v 8 1 -3.5
v 9 1 -3.5
v 10 1 -3.5
v 8 1 -4.5
v 10 1 -4.5
v 8 2 4.5
v 10 2 4.5
v 7 2 3.5
v 8 2 3.5
v 9 2 3.5
v 10 2 3.5
v 6 2 2.5
v 7 2 2.5
v 8 2 2.5
v 9 2 2.5
v 6 2 1.5
v 7 2 1.5
v 8 2 1.5
v 6 2 0.5
v 7 2 0.5
v -10 3 1.5
v -9 3 1.5
v -7 3 1.5
v -6 3 1.5
v -5 3 1.5
v -4 3 1.5
v -3 3 1.5
v -2 3 1.5
v -1 3 1.5
v 0 3 1.5
v 1 3 1.5
v 2 3 1.5
v 3 3 1.5
v 4 3 1.5
v 5 3 1.5
v 6 3 1.5
v -9 3 0.5
v -7 3 0.5
v -6 3 0.5
v -5 3 0.5
v -4 3 0.5
v -3 3 0.5
v -2 3 0.5
v -1 3 0.5
v 0 3 0.5
v 1 3 0.5
v 2 3 0.5
v 3 3 0.5
v 4 3 0.5
v 5 3 0.5
v 6 3 0.5
v 7 3 0.5
v -9 3 -0.5
v -7 3 -0.5
v -6 3 -0.5
v -5 3 -0.5
v -4 3 -0.5
v -3 3 -0.5
v -2 3 -0.5
v -1 3 -0.5
v 0 3 -0.5
v 1 3 -0.5
v 2 3 -0.5
v 3 3 -0.5
v 4 3 -0.5
v 5 3 -0.5
v 6 3 -0.5
v -10 3 -1.5
v -9 3 -1.5
v -7 3 -1.5
v -6 3 -1.5
v -5 3 -1.5
v -4 3 -1.5
v -3 3 -1.5
v -2 3 -1.5
v -1 3 -1.5
v 0 3 -1.5
v 1 3 -1.5
v 2 3 -1.5
v 3 3 -1.5
v 4 3 -1.5
v 5 3 -1.5
v 6 3 -1.5
v 7 3 -1.5
v 8 3 -1.5
v 6 3 -2.5
v 7 3 -2.5
v 8 3 -2.5
v 9 3 -2.5
v 7 3 -3.5
v 8 3 -3.5
v 9 3 -3.5
v 10 3 -3.5
v 8 3 -4.5
v 10 3 -4.5

# faces
f 3/3/1 2/3/1 1/3/1
f 4/3/1 2/3/1 3/3/1
f 9/3/1 6/3/1 5/3/1
f 10/3/1 6/3/1 9/3/1
f 11/3/1 8/3/1 7/3/1
f 12/3/1 8/3/1 11/3/1
f 15/3/1 14/3/1 13/3/1
f 16/3/1 14/3/1 15/3/1
f 21/3/1 18/3/1 17/3/1
f 22/3/1 18/3/1 21/3/1
f 23/3/1 20/3/1 19/3/1
f 24/3/1 20/3/1 23/3/1
f 27/3/1 26/3/1 25/3/1
f 28/3/1 26/3/1 27/3/1
f 33/3/1 30/3/1 29/3/1
f 34/3/1 30/3/1 33/3/1
f 35/3/1 32/3/1 31/3/1
f 36/3/1 32/3/1 35/3/1
f 39/3/1 38/3/1 37/3/1
f 40/3/1 38/3/1 39/3/1
f 41/4/2 42/4/2 43/4/2
f 43/4/2 42/4/2 44/4/2
f 45/2/2 46/2/2 49/2/2
f 49/2/2 46/2/2 50/2/2
f 47/4/2 48/4/2 51/4/2
f 51/4/2 48/4/2 52/4/2
f 53/3/2 54/3/2 56/3/2
f 56/3/2 54/3/2 57/3/2
f 57/3/2 54/3/2 58/3/2
f 55/3/2 56/3/2 59/3/2
f 56/3/2 57/3/2 59/3/2
f 59/3/2 57/3/2 60/3/2
f 60/3/2 57/3/2 61/3/2
f 61/3/2 62/3/2 63/3/2
f 60/3/2 61/3/2 63/3/2
f 63/3/2 62/3/2 64/3/2
f 65/3/2 66/3/2 69/3/2
f 69/3/2 66/3/2 70/3/2
f 67/3/2 68/3/2 71/3/2
f 71/3/2 68/3/2 72/3/2
f 73/3/2 74/3/2 75/3/2
f 75/3/2 74/3/2 76/3/2
f 77/3/2 78/3/2 81/3/2
f 81/3/2 78/3/2 82/3/2
f 79/3/2 80/3/2 83/3/2
f 83/3/2 80/3/2 84/3/2
f 85/3/2 86/3/2 87/3/2
f 87/3/2 86/3/2 88/3/2
f 89/3/2 90/3/2 93/3/2
f 93/3/2 90/3/2 94/3/2
f 91/3/2 92/3/2 95/3/2
f 95/3/2 92/3/2 96/3/2
f 97/3/2 98/3/2 99/3/2
f 99/3/2 98/3/2 100/3/2
f 103/3/3 102/3/3 101/3/3
f 104/3/3 102/3/3 103/3/3
f 107/3/3 106/3/3 105/3/3
f 108/3/3 106/3/3 107/3/3
f 111/3/3 110/3/3 109/3/3
f 112/3/3 110/3/3 111/3/3
f 115/3/3 114/3/3 113/3/3
f 116/3/3 114/3/3 115/3/3
f 117/2/3 116/2/3 115/2/3
f 118/2/3 116/2/3 117/2/3
f 119/3/3 118/3/3 117/3/3
f 120/3/3 118/3/3 119/3/3
f 121/2/3 120/2/3 119/2/3
f 122/2/3 120/2/3 121/2/3
f 123/2/3 120/2/3 122/2/3
f 124/2/3 120/2/3 123/2/3
f 125/4/3 122/4/3 121/4/3
f 126/2/3 123/2/3 122/2/3
f 126/4/3 122/4/3 125/4/3
f 127/4/3 124/4/3 123/4/3
f 127/2/3 123/2/3 126/2/3
f 128/4/3 124/4/3 127/4/3
f 129/2/3 126/2/3 125/2/3
f 130/4/3 127/4/3 126/4/3
f 130/2/3 126/2/3 129/2/3
f 131/2/3 128/2/3 127/2/3
f 131/4/3 127/4/3 130/4/3
f 132/2/3 128/2/3 131/2/3
f 133/4/3 130/4/3 129/4/3
f 134/2/3 131/2/3 130/2/3
f 134/4/3 130/4/3 133/4/3
f 135/4/3 132/4/3 131/4/3
f 135/2/3 131/2/3 134/2/3
f 136/4/3 132/4/3 135/4/3
f 137/2/3 134/2/3 133/2/3
f 138/4/3 135/4/3 134/4/3
f 138/2/3 134/2/3 137/2/3
f 139/2/3 136/2/3 135/2/3
f 139/4/3 135/4/3 138/4/3
f 140/2/3 136/2/3 139/2/3
f 141/4/3 138/4/3 137/4/3
f 142/2/3 139/2/3 138/2/3
f 142/4/3 138/4/3 141/4/3
f 143/4/3 140/4/3 139/4/3
f 143/2/3 139/2/3 142/2/3
f 144/4/3 140/4/3 143/4/3
f 145/2/3 142/2/3 141/2/3
f 146/4/3 143/4/3 142/4/3
f 146/2/3 142/2/3 145/2/3
f 147/2/3 144/2/3 143/2/3
f 147/4/3 143/4/3 146/4/3
f 148/2/3 144/2/3 147/2/3
f 149/4/3 146/4/3 145/4/3
f 150/2/3 147/2/3 146/2/3
f 150/4/3 146/4/3 149/4/3
f 151/4/3 148/4/3 147/4/3
f 151/2/3 147/2/3 150/2/3
f 152/4/3 148/4/3 151/4/3
f 153/2/3 150/2/3 149/2/3
f 154/4/3 151/4/3 150/4/3
f 154/2/3 150/2/3 153/2/3
f 155/2/3 152/2/3 151/2/3
f 155/4/3 151/4/3 154/4/3
f 156/2/3 152/2/3 155/2/3
f 157/4/3 154/4/3 153/4/3
f 158/2/3 155/2/3 154/2/3
f 158/4/3 154/4/3 157/4/3
f 159/4/3 156/4/3 155/4/3
f 159/2/3 155/2/3 158/2/3
f 160/4/3 156/4/3 159/4/3
f 161/2/3 158/2/3 157/2/3
f 162/4/3 159/4/3 158/4/3
f 162/2/3 158/2/3 161/2/3
f 163/2/3 160/2/3 159/2/3
f 163/4/3 159/4/3 162/4/3
f 164/2/3 160/2/3 163/2/3
f 165/4/3 162/4/3 161/4/3
f 166/2/3 163/2/3 162/2/3
f 166/4/3 162/4/3 165/4/3
f 167/4/3 164/4/3 163/4/3
f 167/2/3 163/2/3 166/2/3
f 168/4/3 164/4/3 167/4/3
f 173/3/3 170/3/3 169/3/3
f 174/3/3 170/3/3 173/3/3
f 175/3/3 172/3/3 171/3/3
f 176/3/3 172/3/3 175/3/3
f 181/3/3 178/3/3 177/3/3
f 182/3/3 178/3/3 181/3/3
f 183/3/3 180/3/3 179/3/3
f 184/3/3 180/3/3 183/3/3
f 189/3/3 186/3/3 185/3/3
f 190/3/3 186/3/3 189/3/3
f 191/3/3 188/3/3 187/3/3
f 192/3/3 188/3/3 191/3/3
f 197/3/3 194/3/3 193/3/3
f 198/3/3 194/3/3 197/3/3
f 199/3/3 196/3/3 195/3/3
f 200/3/3 196/3/3 199/3/3
f 201/3/4 202/3/4 203/3/4
f 203/3/4 202/3/4 204/3/4
f 205/3/4 206/3/4 207/3/4
f 207/3/4 206/3/4 208/3/4
f 209/3/4 210/3/4 211/3/4
f 211/3/4 210/3/4 212/3/4
f 213/3/4 214/3/4 215/3/4
f 215/3/4 214/3/4 216/3/4
f 217/3/4 218/3/4 219/3/4
f 219/3/4 218/3/4 220/3/4
f 219/2/4 220/2/4 221/2/4
f 221/2/4 220/2/4 222/2/4
f 221/3/4 222/3/4 223/3/4
f 223/3/4 222/3/4 224/3/4
f 223/2/4 224/2/4 225/2/4
f 225/2/4 224/2/4 226/2/4
f 226/2/4 224/2/4 227/2/4
f 227/2/4 224/2/4 228/2/4
f 225/4/4 226/4/4 229/4/4
f 226/2/4 227/2/4 230/2/4
f 229/4/4 226/4/4 230/4/4
f 227/4/4 228/4/4 231/4/4
f 230/2/4 227/2/4 231/2/4
f 231/4/4 228/4/4 232/4/4
f 229/2/4 230/2/4 233/2/4
f 230/4/4 231/4/4 234/4/4
f 233/2/4 230/2/4 234/2/4
f 231/2/4 232/2/4 235/2/4
f 234/4/4 231/4/4 235/4/4
f 235/2/4 232/2/4 236/2/4
f 233/4/4 234/4/4 237/4/4
f 234/2/4 235/2/4 238/2/4
f 237/4/4 234/4/4 238/4/4
f 235/4/4 236/4/4 239/4/4
f 238/2/4 235/2/4 239/2/4
f 239/4/4 236/4/4 240/4/4
f 237/2/4 238/2/4 241/2/4
f 238/4/4 239/4/4 242/4/4
f 241/2/4 238/2/4 242/2/4
f 239/2/4 240/2/4 243/2/4
f 242/4/4 239/4/4 243/4/4
f 243/2/4 240/2/4 244/2/4
f 241/4/4 242/4/4 245/4/4
f 242/2/4 243/2/4 246/2/4
f 245/4/4 242/4/4 246/4/4
f 243/4/4 244/4/4 247/4/4
f 246/2/4 243/2/4 247/2/4
f 247/4/4 244/4/4 248/4/4
f 245/2/4 246/2/4 249/2/4
f 246/4/4 247/4/4 250/4/4
f 249/2/4 246/2/4 250/2/4
f 247/2/4 248/2/4 251/2/4
f 250/4/4 247/4/4 251/4/4
f 251/2/4 248/2/4 252/2/4
f 249/4/4 250/4/4 253/4/4
f 250/2/4 251/2/4 254/2/4
f 253/4/4 250/4/4 254/4/4
f 251/4/4 252/4/4 255/4/4
f 254/2/4 251/2/4 255/2/4
f 255/4/4 252/4/4 256/4/4
f 253/2/4 254/2/4 257/2/4
f 254/4/4 255/4/4 258/4/4
f 257/2/4 254/2/4 258/2/4
f 255/2/4 256/2/4 259/2/4
f 258/4/4 255/4/4 259/4/4
f 259/2/4 256/2/4 260/2/4
f 257/4/4 258/4/4 261/4/4
f 258/2/4 259/2/4 262/2/4
f 261/4/4 258/4/4 262/4/4
f 259/4/4 260/4/4 263/4/4
f 262/2/4 259/2/4 263/2/4
f 263/4/4 260/4/4 264/4/4
f 261/2/4 262/2/4 265/2/4
f 262/4/4 263/4/4 266/4/4
f 265/2/4 262/2/4 266/2/4
f 263/2/4 264/2/4 267/2/4
f 266/4/4 263/4/4 267/4/4
f 267/2/4 264/2/4 268/2/4
f 265/4/4 266/4/4 269/4/4
f 266/2/4 267/2/4 270/2/4
f 269/4/4 266/4/4 270/4/4
f 267/4/4 268/4/4 271/4/4
f 270/2/4 267/2/4 271/2/4
f 271/4/4 268/4/4 272/4/4
f 273/3/4 274/3/4 277/3/4
f 277/3/4 274/3/4 278/3/4
f 275/3/4 276/3/4 279/3/4
f 279/3/4 276/3/4 280/3/4
f 281/3/4 282/3/4 285/3/4
f 285/3/4 282/3/4 286/3/4
f 283/3/4 284/3/4 287/3/4
f 287/3/4 284/3/4 288/3/4
f 289/3/4 290/3/4 293/3/4
f 293/3/4 290/3/4 294/3/4
f 291/3/4 292/3/4 295/3/4
f 295/3/4 292/3/4 296/3/4
f 313/3/5 298/3/5 297/3/5
f 313/2/5 299/2/5 298/2/5
f 314/3/5 300/3/5 299/3/5
f 314/2/5 299/2/5 313/2/5
f 315/2/5 301/2/5 300/2/5
f 315/4/5 302/4/5 301/4/5
f 316/2/5 303/2/5 302/2/5
f 316/4/5 302/4/5 315/4/5
f 317/4/5 304/4/5 303/4/5
f 317/2/5 303/2/5 316/2/5
f 318/2/5 305/2/5 304/2/5
f 318/4/5 304/4/5 317/4/5
f 319/4/5 306/4/5 305/4/5
f 319/2/5 305/2/5 318/2/5
f 320/2/5 307/2/5 306/2/5
f 320/4/5 306/4/5 319/4/5
f 321/4/5 308/4/5 307/4/5
f 321/2/5 307/2/5 320/2/5
f 322/2/5 309/2/5 308/2/5
f 322/4/5 308/4/5 321/4/5
f 323/4/5 310/4/5 309/4/5
f 323/2/5 309/2/5 322/2/5
f 324/2/5 311/2/5 310/2/5
f 324/4/5 310/4/5 323/4/5
f 325/4/5 312/4/5 311/4/5
f 325/2/5 311/2/5 324/2/5
f 326/4/5 312/4/5 325/4/5
f 328/3/5 313/3/5 297/3/5
f 328/3/5 314/3/5 313/3/5
f 329/3/5 300/3/5 314/3/5
f 329/3/5 314/3/5 328/3/5
f 330/2/5 315/2/5 300/2/5
f 330/2/5 316/2/5 315/2/5
f 331/4/5 317/4/5 316/4/5
f 331/2/5 316/2/5 330/2/5
f 332/2/5 318/2/5 317/2/5
f 332/4/5 317/4/5 331/4/5
f 333/4/5 319/4/5 318/4/5
f 333/2/5 318/2/5 332/2/5
f 334/2/5 320/2/5 319/2/5
f 334/4/5 319/4/5 333/4/5
f 335/4/5 321/4/5 320/4/5
f 335/2/5 320/2/5 334/2/5
f 336/2/5 322/2/5 321/2/5
f 336/4/5 321/4/5 335/4/5
f 337/4/5 323/4/5 322/4/5
f 337/2/5 322/2/5 336/2/5
f 338/2/5 324/2/5 323/2/5
f 338/4/5 323/4/5 337/4/5
f 339/4/5 325/4/5 324/4/5
f 339/2/5 324/2/5 338/2/5
f 340/2/5 326/2/5 325/2/5
f 340/4/5 325/4/5 339/4/5
f 341/3/5 327/3/5 326/3/5
f 341/2/5 326/2/5 340/2/5
f 342/3/5 328/3/5 297/3/5
f 343/2/5 329/2/5 328/2/5
f 343/3/5 328/3/5 342/3/5
f 344/3/5 300/3/5 329/3/5
f 344/2/5 329/2/5 343/2/5
f 345/2/5 330/2/5 300/2/5
f 345/3/5 300/3/5 344/3/5
f 346/4/5 331/4/5 330/4/5
f 346/2/5 330/2/5 345/2/5
f 347/2/5 332/2/5 331/2/5
f 347/4/5 331/4/5 346/4/5
f 348/4/5 333/4/5 332/4/5
f 348/2/5 332/2/5 347/2/5
f 349/2/5 334/2/5 333/2/5
f 349/4/5 333/4/5 348/4/5
f 350/4/5 335/4/5 334/4/5
f 350/2/5 334/2/5 349/2/5
f 351/2/5 336/2/5 335/2/5
f 351/4/5 335/4/5 350/4/5
f 352/4/5 337/4/5 336/4/5
f 352/2/5 336/2/5 351/2/5
f 353/2/5 338/2/5 337/2/5
f 353/4/5 337/4/5 352/4/5
f 354/4/5 339/4/5 338/4/5
f 354/2/5 338/2/5 353/2/5
f 355/2/5 340/2/5 339/2/5
f 355/4/5 339/4/5 354/4/5
f 356/4/5 341/4/5 340/4/5
f 356/2/5 340/2/5 355/2/5
f 357/3/5 327/3/5 341/3/5
f 357/4/5 341/4/5 356/4/5
f 358/3/5 327/3/5 357/3/5
f 360/3/5 359/3/5 358/3/5
f 360/3/5 358/3/5 357/3/5
f 361/3/5 359/3/5 360/3/5
f 362/3/5 359/3/5 361/3/5
f 364/3/5 363/3/5 362/3/5
f 364/3/5 362/3/5 361/3/5
f 365/3/5 363/3/5 364/3/5
f 366/3/5 363/3/5 365/3/5
f 368/3/5 367/3/5 366/3/5
f 368/3/5 366/3/5 365/3/5
f 369/3/5 367/3/5 368/3/5
f 373/3/5 371/3/5 370/3/5
f 374/3/5 371/3/5 373/3/5
f 375/3/5 371/3/5 374/3/5
f 377/3/5 373/3/5 372/3/5
f 377/3/5 374/3/5 373/3/5
f 378/3/5 374/3/5 377/3/5
f 379/3/5 374/3/5 378/3/5
f 380/3/5 377/3/5 376/3/5
f 380/3/5 378/3/5 377/3/5
f 381/3/5 378/3/5 380/3/5
f 382/3/5 378/3/5 381/3/5
f 383/3/5 381/3/5 380/3/5
f 384/3/5 381/3/5 383/3/5
f 387/3/5 386/3/5 385/3/5
f 388/3/5 386/3/5 387/3/5
f 390/3/5 388/3/5 387/3/5
f 390/3/5 389/3/5 388/3/5
f 391/3/5 389/3/5 390/3/5
f 392/3/5 389/3/5 391/3/5
f 394/3/5 393/3/5 392/3/5
f 394/3/5 392/3/5 391/3/5
f 395/3/5 393/3/5 394/3/5
f 396/3/5 393/3/5 395/3/5
f 398/3/5 397/3/5 396/3/5
f 398/3/5 396/3/5 395/3/5
f 399/3/5 397/3/5 398/3/5
f 400/3/6 401/3/6 402/3/6
f 402/3/6 401/3/6 403/3/6
f 402/3/6 403/3/6 405/3/6
f 403/3/6 404/3/6 405/3/6
f 405/3/6 404/3/6 406/3/6
f 406/3/6 404/3/6 407/3/6
f 407/3/6 408/3/6 409/3/6
f 406/3/6 407/3/6 409/3/6
f 409/3/6 408/3/6 410/3/6
f 410/3/6 408/3/6 411/3/6
f 411/3/6 412/3/6 413/3/6
f 410/3/6 411/3/6 413/3/6
f 413/3/6 412/3/6 414/3/6
f 415/3/6 416/3/6 418/3/6
f 418/3/6 416/3/6 419/3/6
f 419/3/6 416/3/6 420/3/6
f 417/3/6 418/3/6 422/3/6
f 418/3/6 419/3/6 422/3/6
f 422/3/6 419/3/6 423/3/6
f 423/3/6 419/3/6 424/3/6
f 421/3/6 422/3/6 425/3/6
f 422/3/6 423/3/6 425/3/6
f 425/3/6 423/3/6 426/3/6
f 426/3/6 423/3/6 427/3/6
f 425/3/6 426/3/6 428/3/6
f 428/3/6 426/3/6 429/3/6
f 430/3/6 431/3/6 446/3/6
f 431/2/6 432/2/6 446/2/6
f 432/3/6 433/3/6 447/3/6
f 446/2/6 432/2/6 447/2/6
f 433/2/6 434/2/6 448/2/6
f 447/3/6 433/3/6 448/3/6
f 434/4/6 435/4/6 449/4/6
f 448/2/6 434/2/6 449/2/6
f 435/2/6 436/2/6 450/2/6
f 449/4/6 435/4/6 450/4/6
f 436/4/6 437/4/6 451/4/6
f 450/2/6 436/2/6 451/2/6
f 437/2/6 438/2/6 452/2/6
f 451/4/6 437/4/6 452/4/6
f 438/4/6 439/4/6 453/4/6
f 452/2/6 438/2/6 453/2/6
f 439/2/6 440/2/6 454/2/6
f 453/4/6 439/4/6 454/4/6
f 440/4/6 441/4/6 455/4/6
f 454/2/6 440/2/6 455/2/6
f 441/2/6 442/2/6 456/2/6
f 455/4/6 441/4/6 456/4/6
f 442/4/6 443/4/6 457/4/6
f 456/2/6 442/2/6 457/2/6
f 443/2/6 444/2/6 458/2/6
f 457/4/6 443/4/6 458/4/6
f 444/4/6 445/4/6 459/4/6
f 458/2/6 444/2/6 459/2/6
f 459/4/6 445/4/6 460/4/6
f 430/3/6 446/3/6 462/3/6
f 446/3/6 447/3/6 462/3/6
f 447/3/6 448/3/6 462/3/6
f 462/3/6 448/3/6 463/3/6
f 448/4/6 449/4/6 464/4/6
f 463/3/6 448/3/6 464/3/6
f 449/2/6 450/2/6 465/2/6
f 464/4/6 449/4/6 465/4/6
f 450/4/6 451/4/6 466/4/6
f 465/2/6 450/2/6 466/2/6
f 451/2/6 452/2/6 467/2/6
f 466/4/6 451/4/6 467/4/6
f 452/4/6 453/4/6 468/4/6
f 467/2/6 452/2/6 468/2/6
f 453/2/6 454/2/6 469/2/6
f 468/4/6 453/4/6 469/4/6
f 454/4/6 455/4/6 470/4/6
f 469/2/6 454/2/6 470/2/6
f 455/2/6 456/2/6 471/2/6
f 470/4/6 455/4/6 471/4/6
f 456/4/6 457/4/6 472/4/6
f 471/2/6 456/2/6 472/2/6
f 457/2/6 458/2/6 473/2/6
f 472/4/6 457/4/6 473/4/6
f 458/4/6 459/4/6 474/4/6
f 473/2/6 458/2/6 474/2/6
f 459/2/6 460/2/6 475/2/6
f 474/4/6 459/4/6 475/4/6
f 460/3/6 461/3/6 476/3/6
f 475/2/6 460/2/6 476/2/6
f 430/3/6 462/3/6 477/3/6
f 462/2/6 463/2/6 478/2/6
f 477/3/6 462/3/6 478/3/6
f 463/3/6 464/3/6 479/3/6
f 478/2/6 463/2/6 479/2/6
f 464/2/6 465/2/6 480/2/6
f 479/3/6 464/3/6 480/3/6
f 465/4/6 466/4/6 481/4/6
f 480/2/6 465/2/6 481/2/6
f 466/2/6 467/2/6 482/2/6
f 481/4/6 466/4/6 482/4/6
f 467/4/6 468/4/6 483/4/6
f 482/2/6 467/2/6 483/2/6
f 468/2/6 469/2/6 484/2/6
f 483/4/6 468/4/6 484/4/6
f 469/4/6 470/4/6 485/4/6
f 484/2/6 469/2/6 485/2/6
f 470/2/6 471/2/6 486/2/6
f 485/4/6 470/4/6 486/4/6
f 471/4/6 472/4/6 487/4/6
f 486/2/6 471/2/6 487/2/6
f 472/2/6 473/2/6 488/2/6
f 487/4/6 472/4/6 488/4/6
f 473/4/6 474/4/6 489/4/6
f 488/2/6 473/2/6 489/2/6
f 474/2/6 475/2/6 490/2/6
f 489/4/6 474/4/6 490/4/6
f 475/4/6 476/4/6 491/4/6
f 490/2/6 475/2/6 491/2/6
f 476/3/6 461/3/6 492/3/6
f 491/4/6 476/4/6 492/4/6
f 492/3/6 461/3/6 493/3/6
f 493/3/6 494/3/6 495/3/6
f 492/3/6 493/3/6 495/3/6
f 495/3/6 494/3/6 496/3/6
f 496/3/6 494/3/6 497/3/6
f 497/3/6 498/3/6 499/3/6
f 496/3/6 497/3/6 499/3/6
f 499/3/6 498/3/6 500/3/6
f 500/3/6 498/3/6 501/3/6
f 501/3/6 502/3/6 503/3/6
f 500/3/6 501/3/6 503/3/6
f 503/3/6 502/3/6 504/3/6
