# MagicaVoxel @ Ephtracy

# material
mtllib warehouse.mtl
usemtl palette

# normals
vn -1 0 0
vn 1 0 0
vn 0 0 1
vn 0 0 -1
vn 0 -1 0
vn 0 1 0

# texcoords
vt 0.306641 0.5
vt 0.951172 0.5
vt 0.955078 0.5
vt 0.962891 0.5
vt 0.966797 0.5
vt 0.978516 0.5
vt 0.982422 0.5
vt 0.986328 0.5
vt 0.990234 0.5

# verts
v -6 0 6
v -6 0 -6
v -6 1 6
v -6 1 5
v -6 1 -5
v -6 1 -6
v -6 6 -4
v -6 6 -5
v -6 6 -6
v -6 7 -3
v -6 7 -4
v -6 7 -5
v -6 7 -6
v -6 8 -2
v -6 8 -3
v -6 8 -4
v -6 8 -5
v -6 9 -1
v -6 9 -2
v -6 9 -3
v -6 9 -4
v -6 10 -0
v -6 10 -1
v -6 10 -2
v -6 10 -3
v -6 11 6
v -6 11 5
v -6 11 -0
v -6 11 -1
v -6 11 -2
v -6 12 6
v -6 12 -1
v -5 1 5
v -5 1 4
v -5 1 3
v -5 1 2
v -5 1 -0
v -5 1 -3
v -5 1 -4
v -5 1 -5
v -5 2 5
v -5 2 4
v -5 2 3
v -5 2 2
v -5 3 -0
v -5 3 -3
v -5 3 -4
v -5 3 -5
v -1 1 -0
v -1 1 -3
v -1 1 -4
v -1 1 -5
v -1 4 -0
v -1 4 -3
v -1 4 -4
v -1 4 -5
v 1 1 5
v 1 1 4
v 1 1 3
v 1 1 2
v 1 1 1
v 1 1 -4
v 1 2 5
v 1 2 4
v 1 2 3
v 1 2 2
v 1 4 1
v 1 4 -4
v 2 4 -0
v 2 4 -3
v 2 6 -0
v 2 6 -3
v 5 1 6
v 5 1 5
v 5 1 -5
v 5 1 -6
v 5 2 5
v 5 6 -5
v 5 6 -6
v 5 11 6
v 5 11 5
v -5 1 6
v -5 1 5
v -5 1 -5
v -5 1 -6
v -5 2 5
v -5 3 -5
v -5 6 -5
v -5 6 -6
v -5 11 6
v -5 11 5
v -2 1 -0
v -2 1 -3
v -2 1 -4
v -2 1 -5
v -2 3 -0
v -2 3 -3
v -2 3 -4
v -2 3 -5
v 0 1 5
v 0 1 4
v 0 1 3
v 0 1 2
v 0 1 -0
v 0 1 -3
v 0 2 5
v 0 2 4
v 0 2 3
v 0 2 2
v 0 4 -0
v 0 4 -3
v 2 1 -4
v 2 1 -5
v 2 4 -4
v 2 4 -5
v 5 1 5
v 5 1 4
v 5 1 3
v 5 1 2
v 5 1 1
v 5 1 -4
v 5 2 5
v 5 2 4
v 5 2 3
v 5 2 2
v 5 4 1
v 5 4 -0
v 5 4 -3
v 5 4 -4
v 5 6 -0
v 5 6 -3
v 6 0 6
v 6 0 -6
v 6 1 6
v 6 1 5
v 6 1 -5
v 6 1 -6
v 6 6 -4
v 6 6 -5
v 6 6 -6
v 6 7 -3
v 6 7 -4
v 6 7 -5
v 6 7 -6
v 6 8 -2
v 6 8 -3
v 6 8 -4
v 6 8 -5
v 6 9 -1
v 6 9 -2
v 6 9 -3
v 6 9 -4
v 6 10 -0
v 6 10 -1
v 6 10 -2
v 6 10 -3
v 6 11 6
v 6 11 5
v 6 11 -0
v 6 11 -1
v 6 11 -2
v 6 12 6
v 6 12 -1
v -6 0 6
v -6 1 6
v -6 11 6
v -6 12 6
v -5 1 6
v -5 11 6
v 5 1 6
v 5 11 6
v 6 0 6
v 6 1 6
v 6 11 6
v 6 12 6
v -5 1 5
v -5 2 5
v 0 1 5
v 0 2 5
v 1 1 5
v 1 2 5
v 5 1 5
v 5 2 5
v -5 1 3
v -5 2 3
v 0 1 3
v 0 2 3
v 1 1 3
v 1 2 3
v 5 1 3
v 5 2 3
v 1 1 1
v 1 4 1
v 5 1 1
v 5 4 1
v -6 10 -0
v -6 11 -0
v -5 1 -0
v -5 3 -0
v -2 1 -0
v -2 3 -0
v -1 1 -0
v -1 4 -0
v 0 1 -0
v 0 4 -0
v 2 4 -0
v 2 6 -0
v 5 4 -0
v 5 6 -0
v 6 10 -0
v 6 11 -0
v -6 9 -1
v -6 10 -1
v 6 9 -1
v 6 10 -1
v -6 8 -2
v -6 9 -2
v 6 8 -2
v 6 9 -2
v -6 7 -3
v -6 8 -3
v 6 7 -3
v 6 8 -3
v -6 6 -4
v -6 7 -4
v -5 1 -4
v -5 3 -4
v -2 1 -4
v -2 3 -4
v -1 1 -4
v -1 4 -4
v 1 1 -4
v 1 4 -4
v 6 6 -4
v 6 7 -4
v -6 1 -5
v -6 6 -5
v -5 1 -5
v -5 3 -5
v -5 6 -5
v 5 1 -5
v 5 6 -5
v 6 1 -5
v 6 6 -5
v -6 1 5
v -6 11 5
v -5 1 5
v -5 2 5
v -5 11 5
v 5 1 5
v 5 2 5
v 5 11 5
v 6 1 5
v 6 11 5
v -5 1 4
v -5 2 4
v 0 1 4
v 0 2 4
v 1 1 4
v 1 2 4
v 5 1 4
v 5 2 4
v -5 1 2
v -5 2 2
v 0 1 2
v 0 2 2
v 1 1 2
v 1 2 2
v 5 1 2
v 5 2 2
v -6 11 -1
v -6 12 -1
v 6 11 -1
v 6 12 -1
v -6 10 -2
v -6 11 -2
v 6 10 -2
v 6 11 -2
v -6 9 -3
v -6 10 -3
v -5 1 -3
v -5 3 -3
v -2 1 -3
v -2 3 -3
v -1 1 -3
v -1 4 -3
v 0 1 -3
v 0 4 -3
v 2 4 -3
v 2 6 -3
v 5 4 -3
v 5 6 -3
v 6 9 -3
v 6 10 -3
v -6 8 -4
v -6 9 -4
v 2 1 -4
v 2 4 -4
v 5 1 -4
v 5 4 -4
v 6 8 -4
v 6 9 -4
v -6 7 -5
v -6 8 -5
v -5 1 -5
v -5 3 -5
v -2 1 -5
v -2 3 -5
v -1 1 -5
v -1 4 -5
v 2 1 -5
v 2 4 -5
v 6 7 -5
v 6 8 -5
v -6 0 -6
v -6 1 -6
v -6 6 -6
v -6 7 -6
v -5 1 -6
v -5 6 -6
v 5 1 -6
v 5 6 -6
v 6 0 -6
v 6 1 -6
v 6 6 -6
v 6 7 -6
v -6 0 6
v 6 0 6
v -6 0 -6
v 6 0 -6
v -6 6 -4
v 6 6 -4
v -6 6 -5
v -5 6 -5
v 5 6 -5
v 6 6 -5
v -5 6 -6
v 5 6 -6
v -6 7 -3
v 6 7 -3
v -6 7 -4
v 6 7 -4
v -6 8 -2
v 6 8 -2
v -6 8 -3
v 6 8 -3
v -6 9 -1
v 6 9 -1
v -6 9 -2
v 6 9 -2
v -6 10 -0
v 6 10 -0
v -6 10 -1
v 6 10 -1
v -5 11 6
v 5 11 6
v -6 11 5
v -5 11 5
v 5 11 5
v 6 11 5
v -6 11 -0
v 6 11 -0
v -5 1 6
v 5 1 6
v -6 1 5
v -5 1 5
v 0 1 5
v 1 1 5
v 5 1 5
v 6 1 5
v -5 1 4
v 0 1 4
v 1 1 4
v 5 1 4
v -5 1 3
v 0 1 3
v 1 1 3
v 5 1 3
v -5 1 2
v 0 1 2
v 1 1 2
v 5 1 2
v 1 1 1
v 5 1 1
v -5 1 -0
v -2 1 -0
v -1 1 -0
v 0 1 -0
v -5 1 -3
v -2 1 -3
v -1 1 -3
v 0 1 -3
v -5 1 -4
v -2 1 -4
v -1 1 -4
v 1 1 -4
v 2 1 -4
v 5 1 -4
v -6 1 -5
v -5 1 -5
v -2 1 -5
v -1 1 -5
v 2 1 -5
v 5 1 -5
v 6 1 -5
v -5 1 -6
v 5 1 -6
v -5 2 5
v 0 2 5
v 1 2 5
v 5 2 5
v -5 2 4
v 0 2 4
v 1 2 4
v 5 2 4
v -5 2 3
v 0 2 3
v 1 2 3
v 5 2 3
v -5 2 2
v 0 2 2
v 1 2 2
v 5 2 2
v -5 3 -0
v -2 3 -0
v -5 3 -3
v -2 3 -3
v -5 3 -4
v -2 3 -4
v -5 3 -5
v -2 3 -5
v 1 4 1
v 5 4 1
v -1 4 -0
v 0 4 -0
v 2 4 -0
v 5 4 -0
v -1 4 -3
v 0 4 -3
v 2 4 -3
v 5 4 -3
v -1 4 -4
v 1 4 -4
v 2 4 -4
v 5 4 -4
v -1 4 -5
v 2 4 -5
v 2 6 -0
v 5 6 -0
v 2 6 -3
v 5 6 -3
v -6 7 -5
v 6 7 -5
v -6 7 -6
v 6 7 -6
v -6 8 -4
v 6 8 -4
v -6 8 -5
v 6 8 -5
v -6 9 -3
v 6 9 -3
v -6 9 -4
v 6 9 -4
v -6 10 -2
v 6 10 -2
v -6 10 -3
v 6 10 -3
v -6 11 -1
v 6 11 -1
v -6 11 -2
v 6 11 -2
v -6 12 6
v 6 12 6
v -6 12 -1
v 6 12 -1

# faces
f 3/1/1 2/1/1 1/1/1
f 4/1/1 2/1/1 3/1/1
f 5/1/1 2/1/1 4/1/1
f 6/1/1 2/1/1 5/1/1
f 8/5/1 6/5/1 5/5/1
f 9/5/1 6/5/1 8/5/1
f 11/6/1 8/6/1 7/6/1
f 11/6/1 9/6/1 8/6/1
f 12/6/1 9/6/1 11/6/1
f 13/6/1 9/6/1 12/6/1
f 15/6/1 11/6/1 10/6/1
f 15/6/1 12/6/1 11/6/1
f 16/6/1 12/6/1 15/6/1
f 17/6/1 12/6/1 16/6/1
f 19/6/1 15/6/1 14/6/1
f 19/6/1 16/6/1 15/6/1
f 20/6/1 16/6/1 19/6/1
f 21/6/1 16/6/1 20/6/1
f 23/6/1 19/6/1 18/6/1
f 23/6/1 20/6/1 19/6/1
f 24/6/1 20/6/1 23/6/1
f 25/6/1 20/6/1 24/6/1
f 26/5/1 4/5/1 3/5/1
f 27/5/1 4/5/1 26/5/1
f 28/6/1 23/6/1 22/6/1
f 28/6/1 24/6/1 23/6/1
f 29/6/1 24/6/1 28/6/1
f 30/6/1 24/6/1 29/6/1
f 31/6/1 27/6/1 26/6/1
f 31/6/1 28/6/1 27/6/1
f 31/6/1 29/6/1 28/6/1
f 32/6/1 29/6/1 31/6/1
f 41/7/1 34/7/1 33/7/1
f 42/7/1 34/7/1 41/7/1
f 43/7/1 36/7/1 35/7/1
f 44/7/1 36/7/1 43/7/1
f 45/3/1 38/3/1 37/3/1
f 46/3/1 38/3/1 45/3/1
f 47/2/1 40/2/1 39/2/1
f 48/2/1 40/2/1 47/2/1
f 53/8/1 50/8/1 49/8/1
f 54/8/1 50/8/1 53/8/1
f 55/4/1 52/4/1 51/4/1
f 56/4/1 52/4/1 55/4/1
f 63/7/1 58/7/1 57/7/1
f 64/7/1 58/7/1 63/7/1
f 65/7/1 60/7/1 59/7/1
f 66/7/1 60/7/1 65/7/1
f 67/5/1 62/5/1 61/5/1
f 68/5/1 62/5/1 67/5/1
f 71/9/1 70/9/1 69/9/1
f 72/9/1 70/9/1 71/9/1
f 77/5/1 74/5/1 73/5/1
f 78/5/1 76/5/1 75/5/1
f 79/5/1 76/5/1 78/5/1
f 80/5/1 77/5/1 73/5/1
f 81/5/1 77/5/1 80/5/1
f 82/5/2 83/5/2 86/5/2
f 84/5/2 85/5/2 87/5/2
f 87/5/2 85/5/2 88/5/2
f 88/5/2 85/5/2 89/5/2
f 82/5/2 86/5/2 90/5/2
f 90/5/2 86/5/2 91/5/2
f 92/3/2 93/3/2 96/3/2
f 96/3/2 93/3/2 97/3/2
f 94/2/2 95/2/2 98/2/2
f 98/2/2 95/2/2 99/2/2
f 100/7/2 101/7/2 106/7/2
f 106/7/2 101/7/2 107/7/2
f 102/7/2 103/7/2 108/7/2
f 108/7/2 103/7/2 109/7/2
f 104/8/2 105/8/2 110/8/2
f 110/8/2 105/8/2 111/8/2
f 112/4/2 113/4/2 114/4/2
f 114/4/2 113/4/2 115/4/2
f 116/7/2 117/7/2 122/7/2
f 122/7/2 117/7/2 123/7/2
f 118/7/2 119/7/2 124/7/2
f 124/7/2 119/7/2 125/7/2
f 120/5/2 121/5/2 126/5/2
f 126/5/2 121/5/2 127/5/2
f 127/5/2 121/5/2 128/5/2
f 128/5/2 121/5/2 129/5/2
f 127/9/2 128/9/2 130/9/2
f 130/9/2 128/9/2 131/9/2
f 132/1/2 133/1/2 134/1/2
f 134/1/2 133/1/2 135/1/2
f 135/1/2 133/1/2 136/1/2
f 136/1/2 133/1/2 137/1/2
f 136/5/2 137/5/2 139/5/2
f 139/5/2 137/5/2 140/5/2
f 138/6/2 139/6/2 142/6/2
f 139/6/2 140/6/2 142/6/2
f 142/6/2 140/6/2 143/6/2
f 143/6/2 140/6/2 144/6/2
f 141/6/2 142/6/2 146/6/2
f 142/6/2 143/6/2 146/6/2
f 146/6/2 143/6/2 147/6/2
f 147/6/2 143/6/2 148/6/2
f 145/6/2 146/6/2 150/6/2
f 146/6/2 147/6/2 150/6/2
f 150/6/2 147/6/2 151/6/2
f 151/6/2 147/6/2 152/6/2
f 149/6/2 150/6/2 154/6/2
f 150/6/2 151/6/2 154/6/2
f 154/6/2 151/6/2 155/6/2
f 155/6/2 151/6/2 156/6/2
f 134/5/2 135/5/2 157/5/2
f 157/5/2 135/5/2 158/5/2
f 153/6/2 154/6/2 159/6/2
f 154/6/2 155/6/2 159/6/2
f 159/6/2 155/6/2 160/6/2
f 160/6/2 155/6/2 161/6/2
f 157/6/2 158/6/2 162/6/2
f 158/6/2 159/6/2 162/6/2
f 159/6/2 160/6/2 162/6/2
f 162/6/2 160/6/2 163/6/2
f 168/1/3 165/1/3 164/1/3
f 168/5/3 166/5/3 165/5/3
f 169/6/3 167/6/3 166/6/3
f 169/5/3 166/5/3 168/5/3
f 170/1/3 168/1/3 164/1/3
f 171/6/3 167/6/3 169/6/3
f 172/1/3 170/1/3 164/1/3
f 173/5/3 171/5/3 170/5/3
f 173/1/3 170/1/3 172/1/3
f 174/6/3 167/6/3 171/6/3
f 174/5/3 171/5/3 173/5/3
f 175/6/3 167/6/3 174/6/3
f 178/7/3 177/7/3 176/7/3
f 179/7/3 177/7/3 178/7/3
f 182/7/3 181/7/3 180/7/3
f 183/7/3 181/7/3 182/7/3
f 186/7/3 185/7/3 184/7/3
f 187/7/3 185/7/3 186/7/3
f 190/7/3 189/7/3 188/7/3
f 191/7/3 189/7/3 190/7/3
f 194/5/3 193/5/3 192/5/3
f 195/5/3 193/5/3 194/5/3
f 200/3/3 199/3/3 198/3/3
f 201/3/3 199/3/3 200/3/3
f 204/8/3 203/8/3 202/8/3
f 205/8/3 203/8/3 204/8/3
f 208/9/3 207/9/3 206/9/3
f 209/9/3 207/9/3 208/9/3
f 210/6/3 197/6/3 196/6/3
f 211/6/3 197/6/3 210/6/3
f 214/6/3 213/6/3 212/6/3
f 215/6/3 213/6/3 214/6/3
f 218/6/3 217/6/3 216/6/3
f 219/6/3 217/6/3 218/6/3
f 222/6/3 221/6/3 220/6/3
f 223/6/3 221/6/3 222/6/3
f 228/2/3 227/2/3 226/2/3
f 229/2/3 227/2/3 228/2/3
f 232/4/3 231/4/3 230/4/3
f 233/4/3 231/4/3 232/4/3
f 234/6/3 225/6/3 224/6/3
f 235/6/3 225/6/3 234/6/3
f 238/5/3 237/5/3 236/5/3
f 239/5/3 237/5/3 238/5/3
f 240/5/3 237/5/3 239/5/3
f 243/5/3 242/5/3 241/5/3
f 244/5/3 242/5/3 243/5/3
f 245/5/4 246/5/4 247/5/4
f 247/5/4 246/5/4 248/5/4
f 248/5/4 246/5/4 249/5/4
f 250/5/4 251/5/4 253/5/4
f 251/5/4 252/5/4 253/5/4
f 253/5/4 252/5/4 254/5/4
f 255/7/4 256/7/4 257/7/4
f 257/7/4 256/7/4 258/7/4
f 259/7/4 260/7/4 261/7/4
f 261/7/4 260/7/4 262/7/4
f 263/7/4 264/7/4 265/7/4
f 265/7/4 264/7/4 266/7/4
f 267/7/4 268/7/4 269/7/4
f 269/7/4 268/7/4 270/7/4
f 271/6/4 272/6/4 273/6/4
f 273/6/4 272/6/4 274/6/4
f 275/6/4 276/6/4 277/6/4
f 277/6/4 276/6/4 278/6/4
f 281/3/4 282/3/4 283/3/4
f 283/3/4 282/3/4 284/3/4
f 285/8/4 286/8/4 287/8/4
f 287/8/4 286/8/4 288/8/4
f 289/9/4 290/9/4 291/9/4
f 291/9/4 290/9/4 292/9/4
f 279/6/4 280/6/4 293/6/4
f 293/6/4 280/6/4 294/6/4
f 297/5/4 298/5/4 299/5/4
f 299/5/4 298/5/4 300/5/4
f 295/6/4 296/6/4 301/6/4
f 301/6/4 296/6/4 302/6/4
f 305/2/4 306/2/4 307/2/4
f 307/2/4 306/2/4 308/2/4
f 309/4/4 310/4/4 311/4/4
f 311/4/4 310/4/4 312/4/4
f 303/6/4 304/6/4 313/6/4
f 313/6/4 304/6/4 314/6/4
f 315/1/4 316/1/4 319/1/4
f 316/5/4 317/5/4 319/5/4
f 317/6/4 318/6/4 320/6/4
f 319/5/4 317/5/4 320/5/4
f 315/1/4 319/1/4 321/1/4
f 320/6/4 318/6/4 322/6/4
f 315/1/4 321/1/4 323/1/4
f 321/5/4 322/5/4 324/5/4
f 323/1/4 321/1/4 324/1/4
f 322/6/4 318/6/4 325/6/4
f 324/5/4 322/5/4 325/5/4
f 325/6/4 318/6/4 326/6/4
f 329/1/5 328/1/5 327/1/5
f 330/1/5 328/1/5 329/1/5
f 333/6/5 332/6/5 331/6/5
f 334/6/5 332/6/5 333/6/5
f 335/6/5 332/6/5 334/6/5
f 336/6/5 332/6/5 335/6/5
f 337/6/5 335/6/5 334/6/5
f 338/6/5 335/6/5 337/6/5
f 341/6/5 340/6/5 339/6/5
f 342/6/5 340/6/5 341/6/5
f 345/6/5 344/6/5 343/6/5
f 346/6/5 344/6/5 345/6/5
f 349/6/5 348/6/5 347/6/5
f 350/6/5 348/6/5 349/6/5
f 353/6/5 352/6/5 351/6/5
f 354/6/5 352/6/5 353/6/5
f 358/6/5 356/6/5 355/6/5
f 359/6/5 356/6/5 358/6/5
f 361/6/5 358/6/5 357/6/5
f 361/6/5 360/6/5 359/6/5
f 361/6/5 359/6/5 358/6/5
f 362/6/5 360/6/5 361/6/5
f 363/1/6 364/1/6 366/1/6
f 366/1/6 364/1/6 367/1/6
f 367/1/6 364/1/6 368/1/6
f 368/1/6 364/1/6 369/1/6
f 365/1/6 366/1/6 371/1/6
f 367/1/6 368/1/6 372/1/6
f 372/1/6 368/1/6 373/1/6
f 369/1/6 370/1/6 374/1/6
f 372/1/6 373/1/6 375/1/6
f 373/1/6 374/1/6 375/1/6
f 365/1/6 371/1/6 375/1/6
f 371/1/6 372/1/6 375/1/6
f 375/1/6 374/1/6 376/1/6
f 376/1/6 374/1/6 377/1/6
f 374/1/6 370/1/6 378/1/6
f 377/1/6 374/1/6 378/1/6
f 365/1/6 375/1/6 379/1/6
f 376/1/6 377/1/6 380/1/6
f 380/1/6 377/1/6 381/1/6
f 378/1/6 370/1/6 382/1/6
f 380/1/6 381/1/6 383/1/6
f 381/1/6 382/1/6 383/1/6
f 379/1/6 380/1/6 383/1/6
f 382/1/6 370/1/6 384/1/6
f 383/1/6 382/1/6 384/1/6
f 365/1/6 379/1/6 385/1/6
f 379/1/6 383/1/6 385/1/6
f 385/1/6 383/1/6 386/1/6
f 386/1/6 383/1/6 387/1/6
f 387/1/6 383/1/6 388/1/6
f 365/1/6 385/1/6 389/1/6
f 386/1/6 387/1/6 390/1/6
f 390/1/6 387/1/6 391/1/6
f 388/1/6 383/1/6 392/1/6
f 390/1/6 391/1/6 393/1/6
f 391/1/6 392/1/6 393/1/6
f 365/1/6 389/1/6 393/1/6
f 389/1/6 390/1/6 393/1/6
f 393/1/6 392/1/6 394/1/6
f 394/1/6 392/1/6 395/1/6
f 392/1/6 383/1/6 396/1/6
f 395/1/6 392/1/6 396/1/6
f 384/1/6 370/1/6 398/1/6
f 365/1/6 393/1/6 399/1/6
f 399/1/6 393/1/6 400/1/6
f 394/1/6 395/1/6 401/1/6
f 401/1/6 395/1/6 402/1/6
f 397/1/6 398/1/6 403/1/6
f 398/1/6 370/1/6 404/1/6
f 403/1/6 398/1/6 404/1/6
f 404/1/6 370/1/6 405/1/6
f 401/1/6 402/1/6 406/1/6
f 403/1/6 404/1/6 406/1/6
f 402/1/6 403/1/6 406/1/6
f 400/1/6 401/1/6 406/1/6
f 406/1/6 404/1/6 407/1/6
f 408/7/6 409/7/6 412/7/6
f 412/7/6 409/7/6 413/7/6
f 410/7/6 411/7/6 414/7/6
f 414/7/6 411/7/6 415/7/6
f 416/7/6 417/7/6 420/7/6
f 420/7/6 417/7/6 421/7/6
f 418/7/6 419/7/6 422/7/6
f 422/7/6 419/7/6 423/7/6
f 424/3/6 425/3/6 426/3/6
f 426/3/6 425/3/6 427/3/6
f 428/2/6 429/2/6 430/2/6
f 430/2/6 429/2/6 431/2/6
f 432/5/6 433/5/6 436/5/6
f 436/5/6 433/5/6 437/5/6
f 434/8/6 435/8/6 438/8/6
f 438/8/6 435/8/6 439/8/6
f 432/5/6 436/5/6 440/5/6
f 440/5/6 441/5/6 443/5/6
f 432/5/6 440/5/6 443/5/6
f 443/5/6 441/5/6 444/5/6
f 444/5/6 441/5/6 445/5/6
f 442/4/6 443/4/6 446/4/6
f 443/4/6 444/4/6 446/4/6
f 446/4/6 444/4/6 447/4/6
f 448/9/6 449/9/6 450/9/6
f 450/9/6 449/9/6 451/9/6
f 452/6/6 453/6/6 454/6/6
f 454/6/6 453/6/6 455/6/6
f 456/6/6 457/6/6 458/6/6
f 458/6/6 457/6/6 459/6/6
f 460/6/6 461/6/6 462/6/6
f 462/6/6 461/6/6 463/6/6
f 464/6/6 465/6/6 466/6/6
f 466/6/6 465/6/6 467/6/6
f 468/6/6 469/6/6 470/6/6
f 470/6/6 469/6/6 471/6/6
f 472/6/6 473/6/6 474/6/6
f 474/6/6 473/6/6 475/6/6
