# MagicaVoxel @ Ephtracy

# material
mtllib transporter_torso.mtl
usemtl palette

# normals
vn -1 0 0
vn 1 0 0
vn 0 0 1
vn 0 0 -1
vn 0 -1 0
vn 0 1 0

# texcoords
vt 0.951172 0.5
vt 0.955078 0.5
vt 0.962891 0.5
vt 0.966797 0.5
vt 0.970703 0.5
vt 0.978516 0.5
vt 0.982422 0.5

# verts
v -7 0 5
v -7 0 3
v -7 0 2
v -7 0 -2
v -7 0 -3
v -7 0 -6
v -7 1 5
v -7 1 4
v -7 1 3
v -7 1 2
v -7 1 1
v -7 1 -1
v -7 1 -2
v -7 1 -3
v -7 1 -4
v -7 1 -5
v -7 1 -6
v -7 2 4
v -7 2 3
v -7 2 2
v -7 2 1
v -7 2 -1
v -7 2 -2
v -7 2 -3
v -7 2 -4
v -7 2 -5
v -7 3 3
v -7 3 2
v -7 3 -0
v -7 3 -1
v -7 3 -2
v -7 3 -3
v -7 3 -4
v -7 4 2
v -7 4 1
v -7 4 -0
v -7 4 -1
v -7 4 -2
v -7 4 -3
v -7 5 1
v -7 5 -0
v -7 5 -1
v -7 5 -2
v -7 6 -0
v -7 6 -1
v -4 3 6
v -4 3 3
v -4 3 2
v -4 4 2
v -4 4 1
v -4 4 -2
v -4 4 -3
v -4 5 1
v -4 5 -0
v -4 5 -1
v -4 5 -2
v -4 6 -0
v -4 6 -1
v -4 11 6
v -4 11 -3
v -3 4 -3
v -3 4 -5
v -3 6 -3
v -3 6 -5
v -3 8 -3
v -3 8 -5
v -3 9 -3
v -3 9 -5
v -2 5 -5
v -2 5 -6
v -2 6 -5
v -2 6 -6
v -2 8 -5
v -2 8 -6
v -2 9 -3
v -2 9 -5
v -2 9 -6
v -2 10 -3
v -2 10 -5
v -1 9 -5
v -1 9 -6
v -1 10 -3
v -1 10 -5
v -1 10 -6
v -1 11 1
v -1 11 -1
v -1 11 -3
v -1 11 -5
v -1 13 1
v -1 13 -1
v 2 5 -3
v 2 5 -5
v 2 6 -3
v 2 6 -5
v 2 8 -3
v 2 8 -5
v 2 9 -3
v 2 9 -5
v 3 4 6
v 3 4 1
v 3 4 -2
v 3 5 1
v 3 5 -0
v 3 5 -1
v 3 5 -2
v 3 6 -0
v 3 6 -1
v 3 10 6
v 3 10 -2
v 4 0 5
v 4 0 -6
v 4 1 5
v 4 1 4
v 4 1 -5
v 4 1 -6
v 4 2 4
v 4 2 3
v 4 2 -4
v 4 2 -5
v 4 3 3
v 4 3 -3
v 4 3 -4
v -4 0 5
v -4 0 -6
v -4 1 5
v -4 1 4
v -4 1 -5
v -4 1 -6
v -4 2 4
v -4 2 3
v -4 2 -4
v -4 2 -5
v -4 3 3
v -4 3 -3
v -4 3 -4
v -3 4 6
v -3 4 1
v -3 4 -2
v -3 5 1
v -3 5 -0
v -3 5 -1
v -3 5 -2
v -3 6 -0
v -3 6 -1
v -3 10 6
v -3 10 -2
v -2 5 -3
v -2 5 -5
v -2 6 -3
v -2 6 -5
v -2 8 -3
v -2 8 -5
v -2 9 -3
v -2 9 -5
v 1 9 -5
v 1 9 -6
v 1 10 -3
v 1 10 -5
v 1 10 -6
v 1 11 1
v 1 11 -1
v 1 11 -3
v 1 11 -5
v 1 13 1
v 1 13 -1
v 2 5 -5
v 2 5 -6
v 2 6 -5
v 2 6 -6
v 2 8 -5
v 2 8 -6
v 2 9 -3
v 2 9 -5
v 2 9 -6
v 2 10 -3
v 2 10 -5
v 3 4 -3
v 3 4 -5
v 3 6 -3
v 3 6 -5
v 3 8 -3
v 3 8 -5
v 3 9 -3
v 3 9 -5
v 4 3 6
v 4 3 3
v 4 3 2
v 4 4 2
v 4 4 1
v 4 4 -2
v 4 4 -3
v 4 5 1
v 4 5 -0
v 4 5 -1
v 4 5 -2
v 4 6 -0
v 4 6 -1
v 4 11 6
v 4 11 -3
v 7 0 5
v 7 0 3
v 7 0 2
v 7 0 -2
v 7 0 -3
v 7 0 -6
v 7 1 5
v 7 1 4
v 7 1 3
v 7 1 2
v 7 1 1
v 7 1 -1
v 7 1 -2
v 7 1 -3
v 7 1 -4
v 7 1 -5
v 7 1 -6
v 7 2 4
v 7 2 3
v 7 2 2
v 7 2 1
v 7 2 -1
v 7 2 -2
v 7 2 -3
v 7 2 -4
v 7 2 -5
v 7 3 3
v 7 3 2
v 7 3 -0
v 7 3 -1
v 7 3 -2
v 7 3 -3
v 7 3 -4
v 7 4 2
v 7 4 1
v 7 4 -0
v 7 4 -1
v 7 4 -2
v 7 4 -3
v 7 5 1
v 7 5 -0
v 7 5 -1
v 7 5 -2
v 7 6 -0
v 7 6 -1
v -4 3 6
v -4 11 6
v -3 4 6
v -3 10 6
v 3 4 6
v 3 10 6
v 4 3 6
v 4 11 6
v -7 0 5
v -7 1 5
v -4 0 5
v -4 1 5
v 4 0 5
v 4 1 5
v 7 0 5
v 7 1 5
v -7 1 4
v -7 2 4
v -6 1 4
v -6 2 4
v -4 1 4
v -4 2 4
v 4 1 4
v 4 2 4
v 6 1 4
v 6 2 4
v 7 1 4
v 7 2 4
v -7 2 3
v -7 3 3
v -6 2 3
v -6 3 3
v -4 2 3
v -4 3 3
v 4 2 3
v 4 3 3
v 6 2 3
v 6 3 3
v 7 2 3
v 7 3 3
v -7 3 2
v -7 4 2
v -6 3 2
v -4 3 2
v -4 4 2
v 4 3 2
v 4 4 2
v 6 3 2
v 7 3 2
v 7 4 2
v -7 4 1
v -7 5 1
v -6 4 1
v -6 5 1
v -4 4 1
v -4 5 1
v -1 11 1
v -1 13 1
v 1 11 1
v 1 13 1
v 4 4 1
v 4 5 1
v 6 4 1
v 6 5 1
v 7 4 1
v 7 5 1
v -7 5 -0
v -7 6 -0
v -6 5 -0
v -6 6 -0
v -4 5 -0
v -4 6 -0
v 4 5 -0
v 4 6 -0
v 6 5 -0
v 6 6 -0
v 7 5 -0
v 7 6 -0
v -3 4 -2
v -3 5 -2
v -3 10 -2
v 3 4 -2
v 3 5 -2
v 3 10 -2
v -2 5 -5
v -2 6 -5
v -2 8 -5
v -2 9 -5
v 2 5 -5
v 2 6 -5
v 2 8 -5
v 2 9 -5
v -7 5 -1
v -7 6 -1
v -6 5 -1
v -6 6 -1
v -4 5 -1
v -4 6 -1
v -1 11 -1
v -1 13 -1
v 1 11 -1
v 1 13 -1
v 4 5 -1
v 4 6 -1
v 6 5 -1
v 6 6 -1
v 7 5 -1
v 7 6 -1
v -7 4 -2
v -7 5 -2
v -6 4 -2
v -6 5 -2
v -4 4 -2
v -4 5 -2
v 4 4 -2
v 4 5 -2
v 6 4 -2
v 6 5 -2
v 7 4 -2
v 7 5 -2
v -7 3 -3
v -7 4 -3
v -4 3 -3
v -4 4 -3
v -4 11 -3
v -3 4 -3
v -3 6 -3
v -3 8 -3
v -3 9 -3
v -2 5 -3
v -2 6 -3
v -2 8 -3
v -2 9 -3
v -2 10 -3
v -1 10 -3
v -1 11 -3
v 1 10 -3
v 1 11 -3
v 2 5 -3
v 2 6 -3
v 2 8 -3
v 2 9 -3
v 2 10 -3
v 3 4 -3
v 3 6 -3
v 3 8 -3
v 3 9 -3
v 4 3 -3
v 4 4 -3
v 4 11 -3
v 7 3 -3
v 7 4 -3
v -7 2 -4
v -7 3 -4
v -4 2 -4
v -4 3 -4
v 4 2 -4
v 4 3 -4
v 7 2 -4
v 7 3 -4
v -7 1 -5
v -7 2 -5
v -4 1 -5
v -4 2 -5
v -3 4 -5
v -3 6 -5
v -3 8 -5
v -3 9 -5
v -2 5 -5
v -2 6 -5
v -2 8 -5
v -2 9 -5
v -2 10 -5
v -1 9 -5
v -1 10 -5
v -1 11 -5
v 1 9 -5
v 1 10 -5
v 1 11 -5
v 2 5 -5
v 2 6 -5
v 2 8 -5
v 2 9 -5
v 2 10 -5
v 3 4 -5
v 3 6 -5
v 3 8 -5
v 3 9 -5
v 4 1 -5
v 4 2 -5
v 7 1 -5
v 7 2 -5
v -7 0 -6
v -7 1 -6
v -4 0 -6
v -4 1 -6
v -2 5 -6
v -2 6 -6
v -2 8 -6
v -2 9 -6
v -1 9 -6
v -1 10 -6
v 1 9 -6
v 1 10 -6
v 2 5 -6
v 2 6 -6
v 2 8 -6
v 2 9 -6
v 4 0 -6
v 4 1 -6
v 7 0 -6
v 7 1 -6
v -7 0 5
v -4 0 5
v 4 0 5
v 7 0 5
v -7 0 3
v -6 0 3
v 6 0 3
v 7 0 3
v -7 0 2
v -6 0 2
v 6 0 2
v 7 0 2
v -7 0 -2
v -6 0 -2
v 6 0 -2
v 7 0 -2
v -7 0 -3
v -6 0 -3
v 6 0 -3
v 7 0 -3
v -7 0 -6
v -4 0 -6
v 4 0 -6
v 7 0 -6
v -4 3 6
v 4 3 6
v -4 3 3
v 4 3 3
v -4 3 -3
v 4 3 -3
v -3 4 -3
v 3 4 -3
v -3 4 -5
v 3 4 -5
v -2 5 -5
v 2 5 -5
v -2 5 -6
v 2 5 -6
v -2 9 -3
v 2 9 -3
v -2 9 -5
v 2 9 -5
v -3 10 6
v 3 10 6
v -1 10 1
v 1 10 1
v -1 10 -1
v 1 10 -1
v -3 10 -2
v 3 10 -2
v -7 1 5
v -4 1 5
v 4 1 5
v 7 1 5
v -7 1 4
v -6 1 4
v -4 1 4
v 4 1 4
v 6 1 4
v 7 1 4
v -7 1 -5
v -4 1 -5
v 4 1 -5
v 7 1 -5
v -7 1 -6
v -4 1 -6
v 4 1 -6
v 7 1 -6
v -7 2 4
v -6 2 4
v -4 2 4
v 4 2 4
v 6 2 4
v 7 2 4
v -7 2 3
v -6 2 3
v -4 2 3
v 4 2 3
v 6 2 3
v 7 2 3
v -7 2 -4
v -4 2 -4
v 4 2 -4
v 7 2 -4
v -7 2 -5
v -4 2 -5
v 4 2 -5
v 7 2 -5
v -7 3 3
v -6 3 3
v -4 3 3
v 4 3 3
v 6 3 3
v 7 3 3
v -7 3 2
v -6 3 2
v -4 3 2
v 4 3 2
v 6 3 2
v 7 3 2
v -7 3 -3
v -4 3 -3
v 4 3 -3
v 7 3 -3
v -7 3 -4
v -4 3 -4
v 4 3 -4
v 7 3 -4
v -3 4 6
v 3 4 6
v -7 4 2
v -4 4 2
v 4 4 2
v 7 4 2
v -7 4 1
v -6 4 1
v -4 4 1
v -3 4 1
v 3 4 1
v 4 4 1
v 6 4 1
v 7 4 1
v -7 4 -2
v -6 4 -2
v -4 4 -2
v -3 4 -2
v 3 4 -2
v 4 4 -2
v 6 4 -2
v 7 4 -2
v -7 4 -3
v -4 4 -3
v 4 4 -3
v 7 4 -3
v -7 5 1
v -6 5 1
v -4 5 1
v 4 5 1
v 6 5 1
v 7 5 1
v -7 5 -0
v -6 5 -0
v -4 5 -0
v 4 5 -0
v 6 5 -0
v 7 5 -0
v -7 5 -1
v -6 5 -1
v -4 5 -1
v 4 5 -1
v 6 5 -1
v 7 5 -1
v -7 5 -2
v -6 5 -2
v -4 5 -2
v 4 5 -2
v 6 5 -2
v 7 5 -2
v -2 5 -3
v 2 5 -3
v -2 5 -5
v 2 5 -5
v -7 6 -0
v -6 6 -0
v -4 6 -0
v 4 6 -0
v 6 6 -0
v 7 6 -0
v -7 6 -1
v -6 6 -1
v -4 6 -1
v 4 6 -1
v 6 6 -1
v 7 6 -1
v -3 9 -3
v -2 9 -3
v 2 9 -3
v 3 9 -3
v -3 9 -5
v -2 9 -5
v -1 9 -5
v 1 9 -5
v 2 9 -5
v 3 9 -5
v -2 9 -6
v -1 9 -6
v 1 9 -6
v 2 9 -6
v -2 10 -3
v -1 10 -3
v 1 10 -3
v 2 10 -3
v -2 10 -5
v -1 10 -5
v 1 10 -5
v 2 10 -5
v -1 10 -6
v 1 10 -6
v -4 11 6
v 4 11 6
v -1 11 1
v 1 11 1
v -1 11 -1
v 1 11 -1
v -4 11 -3
v -1 11 -3
v 1 11 -3
v 4 11 -3
v -1 11 -5
v 1 11 -5
v -1 13 1
v 1 13 1
v -1 13 -1
v 1 13 -1

# faces
f 7/5/1 2/5/1 1/5/1
f 8/5/1 2/5/1 7/5/1
f 9/6/1 3/6/1 2/6/1
f 9/5/1 2/5/1 8/5/1
f 10/5/1 4/5/1 3/5/1
f 10/6/1 3/6/1 9/6/1
f 11/5/1 4/5/1 10/5/1
f 12/5/1 4/5/1 11/5/1
f 13/6/1 5/6/1 4/6/1
f 13/5/1 4/5/1 12/5/1
f 14/5/1 6/5/1 5/5/1
f 14/6/1 5/6/1 13/6/1
f 15/5/1 6/5/1 14/5/1
f 16/5/1 6/5/1 15/5/1
f 17/5/1 6/5/1 16/5/1
f 18/6/1 9/6/1 8/6/1
f 19/5/1 10/5/1 9/5/1
f 19/6/1 9/6/1 18/6/1
f 20/6/1 11/6/1 10/6/1
f 20/5/1 10/5/1 19/5/1
f 21/5/1 12/5/1 11/5/1
f 21/6/1 11/6/1 20/6/1
f 22/6/1 13/6/1 12/6/1
f 22/5/1 12/5/1 21/5/1
f 23/5/1 14/5/1 13/5/1
f 23/6/1 13/6/1 22/6/1
f 24/6/1 15/6/1 14/6/1
f 24/5/1 14/5/1 23/5/1
f 25/5/1 16/5/1 15/5/1
f 25/6/1 15/6/1 24/6/1
f 26/5/1 16/5/1 25/5/1
f 27/6/1 20/6/1 19/6/1
f 28/5/1 21/5/1 20/5/1
f 28/6/1 20/6/1 27/6/1
f 28/5/1 22/5/1 21/5/1
f 28/5/1 23/5/1 22/5/1
f 29/5/1 23/5/1 28/5/1
f 30/5/1 23/5/1 29/5/1
f 31/6/1 24/6/1 23/6/1
f 31/5/1 23/5/1 30/5/1
f 32/5/1 25/5/1 24/5/1
f 32/6/1 24/6/1 31/6/1
f 33/5/1 25/5/1 32/5/1
f 34/5/1 29/5/1 28/5/1
f 35/5/1 29/5/1 34/5/1
f 36/6/1 30/6/1 29/6/1
f 36/5/1 29/5/1 35/5/1
f 37/5/1 31/5/1 30/5/1
f 37/6/1 30/6/1 36/6/1
f 37/5/1 32/5/1 31/5/1
f 38/5/1 32/5/1 37/5/1
f 39/5/1 32/5/1 38/5/1
f 40/6/1 36/6/1 35/6/1
f 41/5/1 37/5/1 36/5/1
f 41/6/1 36/6/1 40/6/1
f 42/6/1 38/6/1 37/6/1
f 42/5/1 37/5/1 41/5/1
f 43/6/1 38/6/1 42/6/1
f 44/6/1 42/6/1 41/6/1
f 45/6/1 42/6/1 44/6/1
f 49/2/1 47/2/1 46/2/1
f 49/2/1 48/2/1 47/2/1
f 53/2/1 50/2/1 49/2/1
f 56/2/1 52/2/1 51/2/1
f 57/2/1 54/2/1 53/2/1
f 58/2/1 56/2/1 55/2/1
f 59/2/1 49/2/1 46/2/1
f 59/2/1 58/2/1 57/2/1
f 59/2/1 57/2/1 53/2/1
f 59/2/1 53/2/1 49/2/1
f 60/2/1 56/2/1 58/2/1
f 60/2/1 58/2/1 59/2/1
f 60/2/1 52/2/1 56/2/1
f 63/3/1 62/3/1 61/3/1
f 64/3/1 62/3/1 63/3/1
f 65/4/1 64/4/1 63/4/1
f 66/4/1 64/4/1 65/4/1
f 67/3/1 66/3/1 65/3/1
f 68/3/1 66/3/1 67/3/1
f 71/3/1 70/3/1 69/3/1
f 72/3/1 70/3/1 71/3/1
f 73/4/1 72/4/1 71/4/1
f 74/4/1 72/4/1 73/4/1
f 76/3/1 74/3/1 73/3/1
f 77/3/1 74/3/1 76/3/1
f 78/1/1 76/1/1 75/1/1
f 79/1/1 76/1/1 78/1/1
f 83/1/1 81/1/1 80/1/1
f 84/1/1 81/1/1 83/1/1
f 87/1/1 83/1/1 82/1/1
f 88/1/1 83/1/1 87/1/1
f 89/7/1 86/7/1 85/7/1
f 90/7/1 86/7/1 89/7/1
f 93/3/1 92/3/1 91/3/1
f 94/3/1 92/3/1 93/3/1
f 95/4/1 94/4/1 93/4/1
f 96/4/1 94/4/1 95/4/1
f 97/3/1 96/3/1 95/3/1
f 98/3/1 96/3/1 97/3/1
f 102/2/1 100/2/1 99/2/1
f 102/7/1 101/7/1 100/7/1
f 103/7/1 101/7/1 102/7/1
f 104/7/1 101/7/1 103/7/1
f 105/7/1 101/7/1 104/7/1
f 106/2/1 103/2/1 102/2/1
f 106/7/1 104/7/1 103/7/1
f 107/2/1 105/2/1 104/2/1
f 107/7/1 104/7/1 106/7/1
f 108/2/1 102/2/1 99/2/1
f 108/2/1 106/2/1 102/2/1
f 108/2/1 107/2/1 106/2/1
f 109/2/1 105/2/1 107/2/1
f 109/2/1 107/2/1 108/2/1
f 112/5/1 111/5/1 110/5/1
f 113/5/1 111/5/1 112/5/1
f 114/5/1 111/5/1 113/5/1
f 115/5/1 111/5/1 114/5/1
f 116/5/1 114/5/1 113/5/1
f 117/5/1 114/5/1 116/5/1
f 118/5/1 114/5/1 117/5/1
f 119/5/1 114/5/1 118/5/1
f 120/5/1 118/5/1 117/5/1
f 121/5/1 118/5/1 120/5/1
f 122/5/1 118/5/1 121/5/1
f 123/5/2 124/5/2 125/5/2
f 125/5/2 124/5/2 126/5/2
f 126/5/2 124/5/2 127/5/2
f 127/5/2 124/5/2 128/5/2
f 126/5/2 127/5/2 129/5/2
f 129/5/2 127/5/2 130/5/2
f 130/5/2 127/5/2 131/5/2
f 131/5/2 127/5/2 132/5/2
f 130/5/2 131/5/2 133/5/2
f 133/5/2 131/5/2 134/5/2
f 134/5/2 131/5/2 135/5/2
f 136/2/2 137/2/2 139/2/2
f 137/7/2 138/7/2 139/7/2
f 139/7/2 138/7/2 140/7/2
f 140/7/2 138/7/2 141/7/2
f 141/7/2 138/7/2 142/7/2
f 139/2/2 140/2/2 143/2/2
f 140/7/2 141/7/2 143/7/2
f 141/2/2 142/2/2 144/2/2
f 143/7/2 141/7/2 144/7/2
f 136/2/2 139/2/2 145/2/2
f 139/2/2 143/2/2 145/2/2
f 143/2/2 144/2/2 145/2/2
f 144/2/2 142/2/2 146/2/2
f 145/2/2 144/2/2 146/2/2
f 147/3/2 148/3/2 149/3/2
f 149/3/2 148/3/2 150/3/2
f 149/4/2 150/4/2 151/4/2
f 151/4/2 150/4/2 152/4/2
f 151/3/2 152/3/2 153/3/2
f 153/3/2 152/3/2 154/3/2
f 155/1/2 156/1/2 158/1/2
f 158/1/2 156/1/2 159/1/2
f 157/1/2 158/1/2 162/1/2
f 162/1/2 158/1/2 163/1/2
f 160/7/2 161/7/2 164/7/2
f 164/7/2 161/7/2 165/7/2
f 166/3/2 167/3/2 168/3/2
f 168/3/2 167/3/2 169/3/2
f 168/4/2 169/4/2 170/4/2
f 170/4/2 169/4/2 171/4/2
f 170/3/2 171/3/2 173/3/2
f 173/3/2 171/3/2 174/3/2
f 172/1/2 173/1/2 175/1/2
f 175/1/2 173/1/2 176/1/2
f 177/3/2 178/3/2 179/3/2
f 179/3/2 178/3/2 180/3/2
f 179/4/2 180/4/2 181/4/2
f 181/4/2 180/4/2 182/4/2
f 181/3/2 182/3/2 183/3/2
f 183/3/2 182/3/2 184/3/2
f 185/2/2 186/2/2 188/2/2
f 186/2/2 187/2/2 188/2/2
f 188/2/2 189/2/2 192/2/2
f 190/2/2 191/2/2 195/2/2
f 192/2/2 193/2/2 196/2/2
f 194/2/2 195/2/2 197/2/2
f 185/2/2 188/2/2 198/2/2
f 196/2/2 197/2/2 198/2/2
f 192/2/2 196/2/2 198/2/2
f 188/2/2 192/2/2 198/2/2
f 197/2/2 195/2/2 199/2/2
f 198/2/2 197/2/2 199/2/2
f 195/2/2 191/2/2 199/2/2
f 200/5/2 201/5/2 206/5/2
f 206/5/2 201/5/2 207/5/2
f 201/6/2 202/6/2 208/6/2
f 207/5/2 201/5/2 208/5/2
f 202/5/2 203/5/2 209/5/2
f 208/6/2 202/6/2 209/6/2
f 209/5/2 203/5/2 210/5/2
f 210/5/2 203/5/2 211/5/2
f 203/6/2 204/6/2 212/6/2
f 211/5/2 203/5/2 212/5/2
f 204/5/2 205/5/2 213/5/2
f 212/6/2 204/6/2 213/6/2
f 213/5/2 205/5/2 214/5/2
f 214/5/2 205/5/2 215/5/2
f 215/5/2 205/5/2 216/5/2
f 207/6/2 208/6/2 217/6/2
f 208/5/2 209/5/2 218/5/2
f 217/6/2 208/6/2 218/6/2
f 209/6/2 210/6/2 219/6/2
f 218/5/2 209/5/2 219/5/2
f 210/5/2 211/5/2 220/5/2
f 219/6/2 210/6/2 220/6/2
f 211/6/2 212/6/2 221/6/2
f 220/5/2 211/5/2 221/5/2
f 212/5/2 213/5/2 222/5/2
f 221/6/2 212/6/2 222/6/2
f 213/6/2 214/6/2 223/6/2
f 222/5/2 213/5/2 223/5/2
f 214/5/2 215/5/2 224/5/2
f 223/6/2 214/6/2 224/6/2
f 224/5/2 215/5/2 225/5/2
f 218/6/2 219/6/2 226/6/2
f 219/5/2 220/5/2 227/5/2
f 226/6/2 219/6/2 227/6/2
f 220/5/2 221/5/2 227/5/2
f 221/5/2 222/5/2 227/5/2
f 227/5/2 222/5/2 228/5/2
f 228/5/2 222/5/2 229/5/2
f 222/6/2 223/6/2 230/6/2
f 229/5/2 222/5/2 230/5/2
f 223/5/2 224/5/2 231/5/2
f 230/6/2 223/6/2 231/6/2
f 231/5/2 224/5/2 232/5/2
f 227/5/2 228/5/2 233/5/2
f 233/5/2 228/5/2 234/5/2
f 228/6/2 229/6/2 235/6/2
f 234/5/2 228/5/2 235/5/2
f 229/5/2 230/5/2 236/5/2
f 235/6/2 229/6/2 236/6/2
f 230/5/2 231/5/2 236/5/2
f 236/5/2 231/5/2 237/5/2
f 237/5/2 231/5/2 238/5/2
f 234/6/2 235/6/2 239/6/2
f 235/5/2 236/5/2 240/5/2
f 239/6/2 235/6/2 240/6/2
f 236/6/2 237/6/2 241/6/2
f 240/5/2 236/5/2 241/5/2
f 241/6/2 237/6/2 242/6/2
f 240/6/2 241/6/2 243/6/2
f 243/6/2 241/6/2 244/6/2
f 247/2/3 246/2/3 245/2/3
f 248/2/3 246/2/3 247/2/3
f 249/2/3 247/2/3 245/2/3
f 250/2/3 246/2/3 248/2/3
f 251/2/3 249/2/3 245/2/3
f 251/2/3 250/2/3 249/2/3
f 252/2/3 246/2/3 250/2/3
f 252/2/3 250/2/3 251/2/3
f 255/5/3 254/5/3 253/5/3
f 256/5/3 254/5/3 255/5/3
f 259/5/3 258/5/3 257/5/3
f 260/5/3 258/5/3 259/5/3
f 263/6/3 262/6/3 261/6/3
f 264/6/3 262/6/3 263/6/3
f 265/5/3 264/5/3 263/5/3
f 266/5/3 264/5/3 265/5/3
f 269/5/3 268/5/3 267/5/3
f 270/5/3 268/5/3 269/5/3
f 271/6/3 270/6/3 269/6/3
f 272/6/3 270/6/3 271/6/3
f 275/6/3 274/6/3 273/6/3
f 276/6/3 274/6/3 275/6/3
f 277/5/3 276/5/3 275/5/3
f 278/5/3 276/5/3 277/5/3
f 281/5/3 280/5/3 279/5/3
f 282/5/3 280/5/3 281/5/3
f 283/6/3 282/6/3 281/6/3
f 284/6/3 282/6/3 283/6/3
f 287/5/3 286/5/3 285/5/3
f 288/5/3 286/5/3 287/5/3
f 289/5/3 286/5/3 288/5/3
f 292/5/3 291/5/3 290/5/3
f 293/5/3 291/5/3 292/5/3
f 294/5/3 291/5/3 293/5/3
f 297/6/3 296/6/3 295/6/3
f 298/6/3 296/6/3 297/6/3
f 299/5/3 298/5/3 297/5/3
f 300/5/3 298/5/3 299/5/3
f 303/7/3 302/7/3 301/7/3
f 304/7/3 302/7/3 303/7/3
f 307/5/3 306/5/3 305/5/3
f 308/5/3 306/5/3 307/5/3
f 309/6/3 308/6/3 307/6/3
f 310/6/3 308/6/3 309/6/3
f 313/6/3 312/6/3 311/6/3
f 314/6/3 312/6/3 313/6/3
f 315/5/3 314/5/3 313/5/3
f 316/5/3 314/5/3 315/5/3
f 319/5/3 318/5/3 317/5/3
f 320/5/3 318/5/3 319/5/3
f 321/6/3 320/6/3 319/6/3
f 322/6/3 320/6/3 321/6/3
f 326/2/3 324/2/3 323/2/3
f 326/2/3 325/2/3 324/2/3
f 327/2/3 325/2/3 326/2/3
f 328/2/3 325/2/3 327/2/3
f 333/3/3 330/3/3 329/3/3
f 334/4/3 331/4/3 330/4/3
f 334/3/3 330/3/3 333/3/3
f 335/3/3 332/3/3 331/3/3
f 335/4/3 331/4/3 334/4/3
f 336/3/3 332/3/3 335/3/3
f 337/6/4 338/6/4 339/6/4
f 339/6/4 338/6/4 340/6/4
f 339/5/4 340/5/4 341/5/4
f 341/5/4 340/5/4 342/5/4
f 343/7/4 344/7/4 345/7/4
f 345/7/4 344/7/4 346/7/4
f 347/5/4 348/5/4 349/5/4
f 349/5/4 348/5/4 350/5/4
f 349/6/4 350/6/4 351/6/4
f 351/6/4 350/6/4 352/6/4
f 353/6/4 354/6/4 355/6/4
f 355/6/4 354/6/4 356/6/4
f 355/5/4 356/5/4 357/5/4
f 357/5/4 356/5/4 358/5/4
f 359/5/4 360/5/4 361/5/4
f 361/5/4 360/5/4 362/5/4
f 361/6/4 362/6/4 363/6/4
f 363/6/4 362/6/4 364/6/4
f 365/5/4 366/5/4 367/5/4
f 367/5/4 366/5/4 368/5/4
f 367/2/4 368/2/4 370/2/4
f 368/2/4 369/2/4 370/2/4
f 370/2/4 369/2/4 371/2/4
f 371/2/4 369/2/4 372/2/4
f 372/2/4 369/2/4 373/2/4
f 373/2/4 369/2/4 377/2/4
f 377/2/4 369/2/4 378/2/4
f 378/2/4 369/2/4 379/2/4
f 379/2/4 369/2/4 380/2/4
f 375/2/4 376/2/4 383/2/4
f 374/2/4 375/2/4 383/2/4
f 376/2/4 377/2/4 383/2/4
f 383/2/4 377/2/4 384/2/4
f 384/2/4 377/2/4 385/2/4
f 385/2/4 377/2/4 386/2/4
f 381/2/4 382/2/4 387/2/4
f 367/2/4 370/2/4 388/2/4
f 386/2/4 387/2/4 391/2/4
f 389/2/4 390/2/4 392/2/4
f 390/2/4 391/2/4 392/2/4
f 367/2/4 388/2/4 392/2/4
f 388/2/4 389/2/4 392/2/4
f 392/2/4 391/2/4 393/2/4
f 391/2/4 387/2/4 394/2/4
f 393/2/4 391/2/4 394/2/4
f 387/2/4 382/2/4 394/2/4
f 392/5/4 393/5/4 395/5/4
f 395/5/4 393/5/4 396/5/4
f 397/5/4 398/5/4 399/5/4
f 399/5/4 398/5/4 400/5/4
f 401/5/4 402/5/4 403/5/4
f 403/5/4 402/5/4 404/5/4
f 405/5/4 406/5/4 407/5/4
f 407/5/4 406/5/4 408/5/4
f 409/3/4 410/3/4 413/3/4
f 410/4/4 411/4/4 414/4/4
f 413/3/4 410/3/4 414/3/4
f 411/3/4 412/3/4 415/3/4
f 414/4/4 411/4/4 415/4/4
f 415/3/4 412/3/4 416/3/4
f 416/1/4 417/1/4 418/1/4
f 418/1/4 417/1/4 419/1/4
f 419/1/4 420/1/4 422/1/4
f 422/1/4 420/1/4 423/1/4
f 409/3/4 413/3/4 424/3/4
f 421/1/4 422/1/4 427/1/4
f 427/1/4 422/1/4 428/1/4
f 409/3/4 424/3/4 429/3/4
f 424/3/4 425/3/4 429/3/4
f 425/4/4 426/4/4 430/4/4
f 429/3/4 425/3/4 430/3/4
f 426/3/4 427/3/4 431/3/4
f 430/4/4 426/4/4 431/4/4
f 431/3/4 427/3/4 432/3/4
f 433/5/4 434/5/4 435/5/4
f 435/5/4 434/5/4 436/5/4
f 437/5/4 438/5/4 439/5/4
f 439/5/4 438/5/4 440/5/4
f 443/3/4 444/3/4 445/3/4
f 443/3/4 445/3/4 447/3/4
f 445/1/4 446/1/4 447/1/4
f 447/1/4 446/1/4 448/1/4
f 441/3/4 442/3/4 449/3/4
f 442/4/4 443/4/4 450/4/4
f 449/3/4 442/3/4 450/3/4
f 443/3/4 447/3/4 451/3/4
f 450/4/4 443/4/4 451/4/4
f 451/3/4 447/3/4 452/3/4
f 453/5/4 454/5/4 455/5/4
f 455/5/4 454/5/4 456/5/4
f 461/5/5 458/5/5 457/5/5
f 462/5/5 458/5/5 461/5/5
f 463/5/5 460/5/5 459/5/5
f 464/5/5 460/5/5 463/5/5
f 465/6/5 462/6/5 461/6/5
f 466/5/5 458/5/5 462/5/5
f 466/6/5 462/6/5 465/6/5
f 467/5/5 463/5/5 459/5/5
f 467/6/5 464/6/5 463/6/5
f 468/6/5 464/6/5 467/6/5
f 469/5/5 466/5/5 465/5/5
f 470/5/5 458/5/5 466/5/5
f 470/5/5 466/5/5 469/5/5
f 471/5/5 467/5/5 459/5/5
f 471/5/5 468/5/5 467/5/5
f 472/5/5 468/5/5 471/5/5
f 473/6/5 470/6/5 469/6/5
f 474/5/5 458/5/5 470/5/5
f 474/6/5 470/6/5 473/6/5
f 475/5/5 471/5/5 459/5/5
f 475/6/5 472/6/5 471/6/5
f 476/6/5 472/6/5 475/6/5
f 477/5/5 474/5/5 473/5/5
f 478/5/5 458/5/5 474/5/5
f 478/5/5 474/5/5 477/5/5
f 479/5/5 475/5/5 459/5/5
f 479/5/5 476/5/5 475/5/5
f 480/5/5 476/5/5 479/5/5
f 483/2/5 482/2/5 481/2/5
f 484/2/5 482/2/5 483/2/5
f 485/2/5 484/2/5 483/2/5
f 486/2/5 484/2/5 485/2/5
f 489/3/5 488/3/5 487/3/5
f 490/3/5 488/3/5 489/3/5
f 493/3/5 492/3/5 491/3/5
f 494/3/5 492/3/5 493/3/5
f 497/1/5 496/1/5 495/1/5
f 498/1/5 496/1/5 497/1/5
f 501/2/5 500/2/5 499/2/5
f 502/2/5 500/2/5 501/2/5
f 503/2/5 501/2/5 499/2/5
f 503/7/5 502/7/5 501/7/5
f 504/2/5 500/2/5 502/2/5
f 504/7/5 502/7/5 503/7/5
f 505/2/5 503/2/5 499/2/5
f 505/2/5 504/2/5 503/2/5
f 506/2/5 500/2/5 504/2/5
f 506/2/5 504/2/5 505/2/5
f 507/5/6 508/5/6 511/5/6
f 511/5/6 508/5/6 512/5/6
f 512/5/6 508/5/6 513/5/6
f 509/5/6 510/5/6 514/5/6
f 514/5/6 510/5/6 515/5/6
f 515/5/6 510/5/6 516/5/6
f 517/5/6 518/5/6 521/5/6
f 521/5/6 518/5/6 522/5/6
f 519/5/6 520/5/6 523/5/6
f 523/5/6 520/5/6 524/5/6
f 525/6/6 526/6/6 531/6/6
f 526/5/6 527/5/6 532/5/6
f 531/6/6 526/6/6 532/6/6
f 532/5/6 527/5/6 533/5/6
f 528/5/6 529/5/6 534/5/6
f 529/6/6 530/6/6 535/6/6
f 534/5/6 529/5/6 535/5/6
f 535/6/6 530/6/6 536/6/6
f 537/5/6 538/5/6 541/5/6
f 541/5/6 538/5/6 542/5/6
f 539/5/6 540/5/6 543/5/6
f 543/5/6 540/5/6 544/5/6
f 545/6/6 546/6/6 551/6/6
f 546/5/6 547/5/6 552/5/6
f 551/6/6 546/6/6 552/6/6
f 552/5/6 547/5/6 553/5/6
f 548/5/6 549/5/6 554/5/6
f 549/6/6 550/6/6 555/6/6
f 554/5/6 549/5/6 555/5/6
f 555/6/6 550/6/6 556/6/6
f 557/5/6 558/5/6 561/5/6
f 561/5/6 558/5/6 562/5/6
f 559/5/6 560/5/6 563/5/6
f 563/5/6 560/5/6 564/5/6
f 567/5/6 568/5/6 571/5/6
f 571/5/6 568/5/6 572/5/6
f 572/5/6 568/5/6 573/5/6
f 565/2/6 566/2/6 574/2/6
f 574/2/6 566/2/6 575/2/6
f 569/5/6 570/5/6 576/5/6
f 576/5/6 570/5/6 577/5/6
f 577/5/6 570/5/6 578/5/6
f 574/2/6 575/2/6 582/2/6
f 582/2/6 575/2/6 583/2/6
f 580/5/6 581/5/6 587/5/6
f 579/5/6 580/5/6 587/5/6
f 587/5/6 581/5/6 588/5/6
f 585/5/6 586/5/6 589/5/6
f 584/5/6 585/5/6 589/5/6
f 589/5/6 586/5/6 590/5/6
f 591/6/6 592/6/6 597/6/6
f 592/5/6 593/5/6 598/5/6
f 597/6/6 592/6/6 598/6/6
f 598/5/6 593/5/6 599/5/6
f 594/5/6 595/5/6 600/5/6
f 595/6/6 596/6/6 601/6/6
f 600/5/6 595/5/6 601/5/6
f 601/6/6 596/6/6 602/6/6
f 603/6/6 604/6/6 609/6/6
f 604/5/6 605/5/6 610/5/6
f 609/6/6 604/6/6 610/6/6
f 610/5/6 605/5/6 611/5/6
f 606/5/6 607/5/6 612/5/6
f 607/6/6 608/6/6 613/6/6
f 612/5/6 607/5/6 613/5/6
f 613/6/6 608/6/6 614/6/6
f 615/3/6 616/3/6 617/3/6
f 617/3/6 616/3/6 618/3/6
f 619/6/6 620/6/6 625/6/6
f 620/5/6 621/5/6 626/5/6
f 625/6/6 620/6/6 626/6/6
f 626/5/6 621/5/6 627/5/6
f 622/5/6 623/5/6 628/5/6
f 623/6/6 624/6/6 629/6/6
f 628/5/6 623/5/6 629/5/6
f 629/6/6 624/6/6 630/6/6
f 631/3/6 632/3/6 635/3/6
f 635/3/6 632/3/6 636/3/6
f 633/3/6 634/3/6 639/3/6
f 639/3/6 634/3/6 640/3/6
f 636/3/6 637/3/6 641/3/6
f 641/3/6 637/3/6 642/3/6
f 638/3/6 639/3/6 643/3/6
f 643/3/6 639/3/6 644/3/6
f 645/1/6 646/1/6 649/1/6
f 649/1/6 646/1/6 650/1/6
f 647/1/6 648/1/6 651/1/6
f 651/1/6 648/1/6 652/1/6
f 650/1/6 651/1/6 653/1/6
f 653/1/6 651/1/6 654/1/6
f 655/2/6 656/2/6 657/2/6
f 657/2/6 656/2/6 658/2/6
f 655/2/6 657/2/6 659/2/6
f 658/2/6 656/2/6 660/2/6
f 655/2/6 659/2/6 661/2/6
f 659/2/6 660/2/6 661/2/6
f 661/2/6 660/2/6 662/2/6
f 660/2/6 656/2/6 663/2/6
f 662/2/6 660/2/6 663/2/6
f 663/2/6 656/2/6 664/2/6
f 662/1/6 663/1/6 665/1/6
f 665/1/6 663/1/6 666/1/6
f 667/7/6 668/7/6 669/7/6
f 669/7/6 668/7/6 670/7/6
