# MagicaVoxel @ Ephtracy

# material
mtllib transporter_head.mtl
usemtl palette

# normals
vn -1 0 0
vn 1 0 0
vn 0 0 1
vn 0 0 -1
vn 0 -1 0
vn 0 1 0

# texcoords
vt 0.970703 0.5
vt 0.974609 0.5
vt 0.982422 0.5

# verts
v -2 0 2.5
v -2 0 -2.5
v -2 1 2.5
v -2 1 1.5
v -2 2 2.5
v -2 2 1.5
v -2 3 2.5
v -2 3 -2.5
v 2 0 2.5
v 2 0 -2.5
v 2 1 2.5
v 2 1 1.5
v 2 2 2.5
v 2 2 1.5
v 2 3 2.5
v 2 3 -2.5
v -2 0 2.5
v -2 1 2.5
v -2 2 2.5
v -2 3 2.5
v 2 0 2.5
v 2 1 2.5
v 2 2 2.5
v 2 3 2.5
v -2 0 -2.5
v -2 3 -2.5
v 2 0 -2.5
v 2 3 -2.5
v -2 0 2.5
v 2 0 2.5
v -2 0 -2.5
v 2 0 -2.5
v -2 3 2.5
v 2 3 2.5
v -2 3 -2.5
v 2 3 -2.5

# faces
f 3/1/1 2/1/1 1/1/1
f 4/1/1 2/1/1 3/1/1
f 5/2/1 4/2/1 3/2/1
f 6/1/1 2/1/1 4/1/1
f 6/2/1 4/2/1 5/2/1
f 7/1/1 6/1/1 5/1/1
f 8/1/1 2/1/1 6/1/1
f 8/1/1 6/1/1 7/1/1
f 9/1/2 10/1/2 11/1/2
f 11/1/2 10/1/2 12/1/2
f 11/2/2 12/2/2 13/2/2
f 12/1/2 10/1/2 14/1/2
f 13/2/2 12/2/2 14/2/2
f 13/1/2 14/1/2 15/1/2
f 14/1/2 10/1/2 16/1/2
f 15/1/2 14/1/2 16/1/2
f 21/1/3 18/1/3 17/1/3
f 22/2/3 19/2/3 18/2/3
f 22/1/3 18/1/3 21/1/3
f 23/1/3 20/1/3 19/1/3
f 23/2/3 19/2/3 22/2/3
f 24/1/3 20/1/3 23/1/3
f 25/1/4 26/1/4 27/1/4
f 27/1/4 26/1/4 28/1/4
f 31/1/5 30/1/5 29/1/5
f 32/1/5 30/1/5 31/1/5
f 33/1/6 34/1/6 35/1/6
f 35/1/6 34/1/6 36/1/6
