# MagicaVoxel @ Ephtracy

# material
mtllib transporter_left_arm.mtl
usemtl palette

# normals
vn -1 0 0
vn 1 0 0
vn 0 0 1
vn 0 0 -1
vn 0 -1 0
vn 0 1 0

# texcoords
vt 0.955078 0.5
vt 0.970703 0.5
vt 0.982422 0.5

# verts
v -3 1 5
v -3 1 3
v -3 2 5
v -3 2 3
v -2 0 -3
v -2 0 -5
v -2 1 3
v -2 1 1
v -2 2 3
v -2 2 1
v -2 3 -3
v -2 3 -5
v -1 0 2
v -1 0 -3
v -1 1 2
v -1 1 1
v -1 2 2
v -1 2 1
v -1 3 2
v -1 3 -3
v 1 0 3
v 1 0 2
v 1 1 3
v 1 1 2
v 1 2 3
v 1 2 2
v 1 3 3
v 1 3 2
v 2 0 5
v 2 0 3
v 2 1 5
v 2 1 3
v 2 2 5
v 2 2 3
v 2 3 5
v 2 3 3
v -2 1 5
v -2 1 3
v -2 2 5
v -2 2 3
v -1 1 3
v -1 1 2
v -1 2 3
v -1 2 2
v 1 0 1
v 1 0 -5
v 1 1 2
v 1 1 1
v 1 2 2
v 1 2 1
v 1 3 1
v 1 3 -5
v 2 0 2
v 2 0 1
v 2 1 2
v 2 1 1
v 2 2 2
v 2 2 1
v 2 3 2
v 2 3 1
v 3 0 5
v 3 0 3
v 3 0 2
v 3 1 5
v 3 1 3
v 3 1 2
v 3 2 5
v 3 2 3
v 3 2 2
v 3 3 5
v 3 3 3
v 3 3 2
v -3 1 5
v -3 2 5
v -2 1 5
v -2 2 5
v 2 0 5
v 2 1 5
v 2 2 5
v 2 3 5
v 3 0 5
v 3 1 5
v 3 2 5
v 3 3 5
v -2 1 3
v -2 2 3
v -1 1 3
v -1 2 3
v 1 0 3
v 1 1 3
v 1 2 3
v 1 3 3
v 2 0 3
v 2 1 3
v 2 2 3
v 2 3 3
v -1 0 2
v -1 1 2
v -1 2 2
v -1 3 2
v 1 0 2
v 1 1 2
v 1 2 2
v 1 3 2
v -2 0 -3
v -2 3 -3
v -1 0 -3
v -1 3 -3
v -3 1 3
v -3 2 3
v -2 1 3
v -2 2 3
v 2 0 2
v 2 1 2
v 2 2 2
v 2 3 2
v 3 0 2
v 3 1 2
v 3 2 2
v 3 3 2
v -2 1 1
v -2 2 1
v -1 1 1
v -1 2 1
v 1 0 1
v 1 1 1
v 1 2 1
v 1 3 1
v 2 0 1
v 2 1 1
v 2 2 1
v 2 3 1
v -2 0 -5
v -2 3 -5
v 1 0 -5
v 1 3 -5
v 2 0 5
v 3 0 5
v 1 0 3
v 2 0 3
v 3 0 3
v -1 0 2
v 1 0 2
v 2 0 2
v 3 0 2
v 1 0 1
v 2 0 1
v -2 0 -3
v -1 0 -3
v -2 0 -5
v 1 0 -5
v -3 1 5
v -2 1 5
v -3 1 3
v -2 1 3
v -1 1 3
v -1 1 2
v -2 1 1
v -1 1 1
v 2 2 5
v 3 2 5
v 1 2 3
v 2 2 3
v 3 2 3
v 1 2 2
v 2 2 2
v 3 2 2
v 1 2 1
v 2 2 1
v 2 1 5
v 3 1 5
v 1 1 3
v 2 1 3
v 3 1 3
v 1 1 2
v 2 1 2
v 3 1 2
v 1 1 1
v 2 1 1
v -3 2 5
v -2 2 5
v -3 2 3
v -2 2 3
v -1 2 3
v -1 2 2
v -2 2 1
v -1 2 1
v 2 3 5
v 3 3 5
v 1 3 3
v 2 3 3
v 3 3 3
v -1 3 2
v 1 3 2
v 2 3 2
v 3 3 2
v 1 3 1
v 2 3 1
v -2 3 -3
v -1 3 -3
v -2 3 -5
v 1 3 -5

# faces
f 3/2/1 2/2/1 1/2/1
f 4/2/1 2/2/1 3/2/1
f 9/3/1 8/3/1 7/3/1
f 10/3/1 8/3/1 9/3/1
f 11/1/1 6/1/1 5/1/1
f 12/1/1 6/1/1 11/1/1
f 15/1/1 14/1/1 13/1/1
f 16/1/1 14/1/1 15/1/1
f 18/1/1 14/1/1 16/1/1
f 19/1/1 18/1/1 17/1/1
f 20/1/1 14/1/1 18/1/1
f 20/1/1 18/1/1 19/1/1
f 23/3/1 22/3/1 21/3/1
f 24/3/1 22/3/1 23/3/1
f 27/3/1 26/3/1 25/3/1
f 28/3/1 26/3/1 27/3/1
f 31/2/1 30/2/1 29/2/1
f 32/2/1 30/2/1 31/2/1
f 35/2/1 34/2/1 33/2/1
f 36/2/1 34/2/1 35/2/1
f 37/2/2 38/2/2 39/2/2
f 39/2/2 38/2/2 40/2/2
f 41/3/2 42/3/2 43/3/2
f 43/3/2 42/3/2 44/3/2
f 45/1/2 46/1/2 48/1/2
f 47/1/2 48/1/2 49/1/2
f 48/1/2 46/1/2 50/1/2
f 49/1/2 48/1/2 50/1/2
f 50/1/2 46/1/2 51/1/2
f 51/1/2 46/1/2 52/1/2
f 53/3/2 54/3/2 55/3/2
f 55/3/2 54/3/2 56/3/2
f 57/3/2 58/3/2 59/3/2
f 59/3/2 58/3/2 60/3/2
f 61/2/2 62/2/2 64/2/2
f 62/3/2 63/3/2 65/3/2
f 64/2/2 62/2/2 65/2/2
f 65/3/2 63/3/2 66/3/2
f 67/2/2 68/2/2 70/2/2
f 68/3/2 69/3/2 71/3/2
f 70/2/2 68/2/2 71/2/2
f 71/3/2 69/3/2 72/3/2
f 75/2/3 74/2/3 73/2/3
f 76/2/3 74/2/3 75/2/3
f 81/2/3 78/2/3 77/2/3
f 82/2/3 78/2/3 81/2/3
f 83/2/3 80/2/3 79/2/3
f 84/2/3 80/2/3 83/2/3
f 87/3/3 86/3/3 85/3/3
f 88/3/3 86/3/3 87/3/3
f 93/3/3 90/3/3 89/3/3
f 94/3/3 90/3/3 93/3/3
f 95/3/3 92/3/3 91/3/3
f 96/3/3 92/3/3 95/3/3
f 101/1/3 98/1/3 97/1/3
f 101/1/3 100/1/3 99/1/3
f 101/1/3 99/1/3 98/1/3
f 102/1/3 100/1/3 101/1/3
f 103/1/3 100/1/3 102/1/3
f 104/1/3 100/1/3 103/1/3
f 107/1/3 106/1/3 105/1/3
f 108/1/3 106/1/3 107/1/3
f 109/2/4 110/2/4 111/2/4
f 111/2/4 110/2/4 112/2/4
f 113/3/4 114/3/4 117/3/4
f 117/3/4 114/3/4 118/3/4
f 115/3/4 116/3/4 119/3/4
f 119/3/4 116/3/4 120/3/4
f 121/3/4 122/3/4 123/3/4
f 123/3/4 122/3/4 124/3/4
f 125/3/4 126/3/4 129/3/4
f 129/3/4 126/3/4 130/3/4
f 127/3/4 128/3/4 131/3/4
f 131/3/4 128/3/4 132/3/4
f 133/1/4 134/1/4 135/1/4
f 135/1/4 134/1/4 136/1/4
f 140/2/5 138/2/5 137/2/5
f 141/2/5 138/2/5 140/2/5
f 143/3/5 140/3/5 139/3/5
f 143/3/5 141/3/5 140/3/5
f 144/3/5 141/3/5 143/3/5
f 145/3/5 141/3/5 144/3/5
f 146/1/5 143/1/5 142/1/5
f 146/3/5 144/3/5 143/3/5
f 147/3/5 144/3/5 146/3/5
f 149/1/5 146/1/5 142/1/5
f 150/1/5 149/1/5 148/1/5
f 151/1/5 146/1/5 149/1/5
f 151/1/5 149/1/5 150/1/5
f 154/2/5 153/2/5 152/2/5
f 155/2/5 153/2/5 154/2/5
f 157/3/5 156/3/5 155/3/5
f 158/3/5 157/3/5 155/3/5
f 159/3/5 157/3/5 158/3/5
f 163/2/5 161/2/5 160/2/5
f 164/2/5 161/2/5 163/2/5
f 165/3/5 163/3/5 162/3/5
f 165/3/5 164/3/5 163/3/5
f 166/3/5 164/3/5 165/3/5
f 167/3/5 164/3/5 166/3/5
f 168/3/5 166/3/5 165/3/5
f 169/3/5 166/3/5 168/3/5
f 170/2/6 171/2/6 173/2/6
f 173/2/6 171/2/6 174/2/6
f 172/3/6 173/3/6 175/3/6
f 173/3/6 174/3/6 175/3/6
f 175/3/6 174/3/6 176/3/6
f 176/3/6 174/3/6 177/3/6
f 175/3/6 176/3/6 178/3/6
f 178/3/6 176/3/6 179/3/6
f 180/2/6 181/2/6 182/2/6
f 182/2/6 181/2/6 183/2/6
f 183/3/6 184/3/6 185/3/6
f 183/3/6 185/3/6 186/3/6
f 186/3/6 185/3/6 187/3/6
f 188/2/6 189/2/6 191/2/6
f 191/2/6 189/2/6 192/2/6
f 190/3/6 191/3/6 194/3/6
f 191/3/6 192/3/6 194/3/6
f 194/3/6 192/3/6 195/3/6
f 195/3/6 192/3/6 196/3/6
f 193/1/6 194/1/6 197/1/6
f 194/3/6 195/3/6 197/3/6
f 197/3/6 195/3/6 198/3/6
f 193/1/6 197/1/6 200/1/6
f 199/1/6 200/1/6 201/1/6
f 200/1/6 197/1/6 202/1/6
f 201/1/6 200/1/6 202/1/6
