# MagicaVoxel @ Ephtracy

# material
mtllib builder_arm.mtl
usemtl palette

# normals
vn -1 0 0
vn 1 0 0
vn 0 0 1
vn 0 0 -1
vn 0 -1 0
vn 0 1 0

# texcoords
vt 0.958984 0.5
vt 0.962891 0.5
vt 0.982422 0.5
vt 0.990234 0.5

# verts
v -2 0 7.5
v -2 0 6.5
v -2 0 5.5
v -2 0 4.5
v -2 0 3.5
v -2 0 2.5
v -2 0 1.5
v -2 0 0.5
v -2 0 -0.5
v -2 0 -1.5
v -2 0 -2.5
v -2 0 -3.5
v -2 0 -4.5
v -2 0 -5.5
v -2 0 -6.5
v -2 0 -7.5
v -2 1 8.5
v -2 1 7.5
v -2 1 6.5
v -2 1 5.5
v -2 1 4.5
v -2 1 3.5
v -2 1 2.5
v -2 1 1.5
v -2 1 0.5
v -2 1 -0.5
v -2 1 -1.5
v -2 1 -2.5
v -2 1 -3.5
v -2 1 -4.5
v -2 1 -5.5
v -2 1 -6.5
v -2 1 -7.5
v -2 1 -8.5
v -2 2 8.5
v -2 2 7.5
v -2 2 6.5
v -2 2 5.5
v -2 2 4.5
v -2 2 3.5
v -2 2 2.5
v -2 2 1.5
v -2 2 0.5
v -2 2 -0.5
v -2 2 -1.5
v -2 2 -2.5
v -2 2 -3.5
v -2 2 -4.5
v -2 2 -5.5
v -2 2 -6.5
v -2 2 -7.5
v -2 2 -8.5
v -2 3 7.5
v -2 3 6.5
v -2 3 5.5
v -2 3 4.5
v -2 3 3.5
v -2 3 2.5
v -2 3 1.5
v -2 3 0.5
v -2 3 -0.5
v -2 3 -1.5
v -2 3 -2.5
v -2 3 -3.5
v -2 3 -4.5
v -2 3 -5.5
v -2 3 -6.5
v -2 3 -7.5
v -1 0 8.5
v -1 0 7.5
v -1 0 -7.5
v -1 0 -8.5
v -1 1 8.5
v -1 1 7.5
v -1 1 -7.5
v -1 1 -8.5
v -1 2 8.5
v -1 2 7.5
v -1 2 -7.5
v -1 2 -8.5
v -1 3 8.5
v -1 3 7.5
v -1 3 -7.5
v -1 3 -8.5
v 1 0 8.5
v 1 0 7.5
v 1 0 -7.5
v 1 0 -8.5
v 1 1 8.5
v 1 1 7.5
v 1 1 -7.5
v 1 1 -8.5
v 1 2 8.5
v 1 2 7.5
v 1 2 -7.5
v 1 2 -8.5
v 1 3 8.5
v 1 3 7.5
v 1 3 -7.5
v 1 3 -8.5
v 2 0 7.5
v 2 0 6.5
v 2 0 5.5
v 2 0 4.5
v 2 0 3.5
v 2 0 2.5
v 2 0 1.5
v 2 0 0.5
v 2 0 -0.5
v 2 0 -1.5
v 2 0 -2.5
v 2 0 -3.5
v 2 0 -4.5
v 2 0 -5.5
v 2 0 -7.5
v 2 1 8.5
v 2 1 7.5
v 2 1 6.5
v 2 1 5.5
v 2 1 4.5
v 2 1 3.5
v 2 1 2.5
v 2 1 1.5
v 2 1 0.5
v 2 1 -0.5
v 2 1 -1.5
v 2 1 -2.5
v 2 1 -3.5
v 2 1 -4.5
v 2 1 -5.5
v 2 1 -6.5
v 2 1 -7.5
v 2 1 -8.5
v 2 2 8.5
v 2 2 7.5
v 2 2 6.5
v 2 2 5.5
v 2 2 4.5
v 2 2 3.5
v 2 2 2.5
v 2 2 1.5
v 2 2 0.5
v 2 2 -0.5
v 2 2 -1.5
v 2 2 -2.5
v 2 2 -3.5
v 2 2 -4.5
v 2 2 -5.5
v 2 2 -6.5
v 2 2 -7.5
v 2 2 -8.5
v 2 3 7.5
v 2 3 6.5
v 2 3 5.5
v 2 3 4.5
v 2 3 3.5
v 2 3 2.5
v 2 3 1.5
v 2 3 0.5
v 2 3 -0.5
v 2 3 -1.5
v 2 3 -2.5
v 2 3 -3.5
v 2 3 -4.5
v 2 3 -5.5
v 2 3 -6.5
v 2 3 -7.5
v -2 1 8.5
v -2 2 8.5
v -1 0 8.5
v -1 1 8.5
v -1 2 8.5
v -1 3 8.5
v 1 0 8.5
v 1 1 8.5
v 1 2 8.5
v 1 3 8.5
v 2 1 8.5
v 2 2 8.5
v -2 0 7.5
v -2 1 7.5
v -2 2 7.5
v -2 3 7.5
v -1 0 7.5
v -1 1 7.5
v -1 2 7.5
v -1 3 7.5
v 1 0 7.5
v 1 1 7.5
v 1 2 7.5
v 1 3 7.5
v 2 0 7.5
v 2 1 7.5
v 2 2 7.5
v 2 3 7.5
v -2 0 -7.5
v -2 1 -7.5
v -2 2 -7.5
v -2 3 -7.5
v -1 0 -7.5
v -1 1 -7.5
v -1 2 -7.5
v -1 3 -7.5
v 1 0 -7.5
v 1 1 -7.5
v 1 2 -7.5
v 1 3 -7.5
v 2 0 -7.5
v 2 1 -7.5
v 2 2 -7.5
v 2 3 -7.5
v -2 1 -8.5
v -2 2 -8.5
v -1 0 -8.5
v -1 1 -8.5
v -1 2 -8.5
v -1 3 -8.5
v 1 0 -8.5
v 1 1 -8.5
v 1 2 -8.5
v 1 3 -8.5
v 2 1 -8.5
v 2 2 -8.5
v -1 0 8.5
v 1 0 8.5
v -2 0 7.5
v -1 0 7.5
v 0 0 7.5
v 1 0 7.5
v 2 0 7.5
v -2 0 6.5
v -1 0 6.5
v 0 0 6.5
v 1 0 6.5
v 2 0 6.5
v -2 0 5.5
v -1 0 5.5
v 0 0 5.5
v 1 0 5.5
v 2 0 5.5
v -2 0 4.5
v -1 0 4.5
v 0 0 4.5
v 1 0 4.5
v 2 0 4.5
v -2 0 3.5
v -1 0 3.5
v 0 0 3.5
v 1 0 3.5
v 2 0 3.5
v -2 0 2.5
v -1 0 2.5
v 0 0 2.5
v 1 0 2.5
v 2 0 2.5
v -2 0 1.5
v -1 0 1.5
v 0 0 1.5
v 1 0 1.5
v 2 0 1.5
v -2 0 0.5
v -1 0 0.5
v 0 0 0.5
v 1 0 0.5
v 2 0 0.5
v -2 0 -0.5
v -1 0 -0.5
v 0 0 -0.5
v 1 0 -0.5
v 2 0 -0.5
v -2 0 -1.5
v -1 0 -1.5
v 0 0 -1.5
v 1 0 -1.5
v 2 0 -1.5
v -2 0 -2.5
v -1 0 -2.5
v 0 0 -2.5
v 1 0 -2.5
v 2 0 -2.5
v -2 0 -3.5
v -1 0 -3.5
v 0 0 -3.5
v 1 0 -3.5
v 2 0 -3.5
v -2 0 -4.5
v -1 0 -4.5
v 0 0 -4.5
v 1 0 -4.5
v 2 0 -4.5
v -2 0 -5.5
v -1 0 -5.5
v 0 0 -5.5
v 1 0 -5.5
v 2 0 -5.5
v -2 0 -6.5
v -1 0 -6.5
v 0 0 -6.5
v 1 0 -6.5
v -2 0 -7.5
v -1 0 -7.5
v 0 0 -7.5
v 1 0 -7.5
v 2 0 -7.5
v -1 0 -8.5
v 1 0 -8.5
v -2 1 8.5
v -1 1 8.5
v 1 1 8.5
v 2 1 8.5
v -2 1 7.5
v -1 1 7.5
v 1 1 7.5
v 2 1 7.5
v -2 1 -7.5
v -1 1 -7.5
v 1 1 -7.5
v 2 1 -7.5
v -2 1 -8.5
v -1 1 -8.5
v 1 1 -8.5
v 2 1 -8.5
v -2 2 8.5
v -1 2 8.5
v 1 2 8.5
v 2 2 8.5
v -2 2 7.5
v -1 2 7.5
v 1 2 7.5
v 2 2 7.5
v -2 2 -7.5
v -1 2 -7.5
v 1 2 -7.5
v 2 2 -7.5
v -2 2 -8.5
v -1 2 -8.5
v 1 2 -8.5
v 2 2 -8.5
v -1 3 8.5
v 1 3 8.5
v -2 3 7.5
v -1 3 7.5
v 0 3 7.5
v 1 3 7.5
v 2 3 7.5
v -2 3 6.5
v -1 3 6.5
v 0 3 6.5
v 1 3 6.5
v 2 3 6.5
v -2 3 5.5
v -1 3 5.5
v 0 3 5.5
v 1 3 5.5
v 2 3 5.5
v -2 3 4.5
v -1 3 4.5
v 0 3 4.5
v 1 3 4.5
v 2 3 4.5
v -2 3 3.5
v -1 3 3.5
v 0 3 3.5
v 1 3 3.5
v 2 3 3.5
v -2 3 2.5
v -1 3 2.5
v 0 3 2.5
v 1 3 2.5
v 2 3 2.5
v -2 3 1.5
v -1 3 1.5
v 0 3 1.5
v 1 3 1.5
v 2 3 1.5
v -2 3 0.5
v -1 3 0.5
v 0 3 0.5
v 1 3 0.5
v 2 3 0.5
v -2 3 -0.5
v -1 3 -0.5
v 0 3 -0.5
v 1 3 -0.5
v 2 3 -0.5
v -2 3 -1.5
v -1 3 -1.5
v 0 3 -1.5
v 1 3 -1.5
v 2 3 -1.5
v -2 3 -2.5
v -1 3 -2.5
v 0 3 -2.5
v 1 3 -2.5
v 2 3 -2.5
v -2 3 -3.5
v -1 3 -3.5
v 0 3 -3.5
v 1 3 -3.5
v 2 3 -3.5
v -2 3 -4.5
v -1 3 -4.5
v 0 3 -4.5
v 1 3 -4.5
v 2 3 -4.5
v -2 3 -5.5
v -1 3 -5.5
v 0 3 -5.5
v 1 3 -5.5
v 2 3 -5.5
v -2 3 -6.5
v -1 3 -6.5
v 0 3 -6.5
v 1 3 -6.5
v 2 3 -6.5
v -2 3 -7.5
v -1 3 -7.5
v 0 3 -7.5
v 1 3 -7.5
v 2 3 -7.5
v -1 3 -8.5
v 1 3 -8.5

# faces
f 18/4/1 2/4/1 1/4/1
f 19/2/1 3/2/1 2/2/1
f 19/4/1 2/4/1 18/4/1
f 20/4/1 4/4/1 3/4/1
f 20/2/1 3/2/1 19/2/1
f 21/2/1 5/2/1 4/2/1
f 21/4/1 4/4/1 20/4/1
f 22/4/1 6/4/1 5/4/1
f 22/2/1 5/2/1 21/2/1
f 23/2/1 7/2/1 6/2/1
f 23/4/1 6/4/1 22/4/1
f 24/4/1 8/4/1 7/4/1
f 24/2/1 7/2/1 23/2/1
f 25/2/1 9/2/1 8/2/1
f 25/4/1 8/4/1 24/4/1
f 26/4/1 10/4/1 9/4/1
f 26/2/1 9/2/1 25/2/1
f 27/2/1 11/2/1 10/2/1
f 27/4/1 10/4/1 26/4/1
f 28/4/1 12/4/1 11/4/1
f 28/2/1 11/2/1 27/2/1
f 29/2/1 13/2/1 12/2/1
f 29/4/1 12/4/1 28/4/1
f 30/4/1 14/4/1 13/4/1
f 30/2/1 13/2/1 29/2/1
f 31/2/1 15/2/1 14/2/1
f 31/4/1 14/4/1 30/4/1
f 32/4/1 16/4/1 15/4/1
f 32/2/1 15/2/1 31/2/1
f 33/4/1 16/4/1 32/4/1
f 35/3/1 18/3/1 17/3/1
f 36/2/1 19/2/1 18/2/1
f 36/3/1 18/3/1 35/3/1
f 37/4/1 20/4/1 19/4/1
f 37/2/1 19/2/1 36/2/1
f 38/2/1 21/2/1 20/2/1
f 38/4/1 20/4/1 37/4/1
f 39/4/1 22/4/1 21/4/1
f 39/2/1 21/2/1 38/2/1
f 40/2/1 23/2/1 22/2/1
f 40/4/1 22/4/1 39/4/1
f 41/4/1 24/4/1 23/4/1
f 41/2/1 23/2/1 40/2/1
f 42/2/1 25/2/1 24/2/1
f 42/4/1 24/4/1 41/4/1
f 43/4/1 26/4/1 25/4/1
f 43/2/1 25/2/1 42/2/1
f 44/2/1 27/2/1 26/2/1
f 44/4/1 26/4/1 43/4/1
f 45/4/1 28/4/1 27/4/1
f 45/2/1 27/2/1 44/2/1
f 46/2/1 29/2/1 28/2/1
f 46/4/1 28/4/1 45/4/1
f 47/4/1 30/4/1 29/4/1
f 47/2/1 29/2/1 46/2/1
f 48/2/1 31/2/1 30/2/1
f 48/4/1 30/4/1 47/4/1
f 49/4/1 32/4/1 31/4/1
f 49/2/1 31/2/1 48/2/1
f 49/4/1 33/4/1 32/4/1
f 50/4/1 33/4/1 49/4/1
f 51/3/1 34/3/1 33/3/1
f 51/4/1 33/4/1 50/4/1
f 52/3/1 34/3/1 51/3/1
f 53/4/1 37/4/1 36/4/1
f 54/2/1 38/2/1 37/2/1
f 54/4/1 37/4/1 53/4/1
f 55/4/1 39/4/1 38/4/1
f 55/2/1 38/2/1 54/2/1
f 56/2/1 40/2/1 39/2/1
f 56/4/1 39/4/1 55/4/1
f 57/4/1 41/4/1 40/4/1
f 57/2/1 40/2/1 56/2/1
f 58/2/1 42/2/1 41/2/1
f 58/4/1 41/4/1 57/4/1
f 59/4/1 43/4/1 42/4/1
f 59/2/1 42/2/1 58/2/1
f 60/2/1 44/2/1 43/2/1
f 60/4/1 43/4/1 59/4/1
f 61/4/1 45/4/1 44/4/1
f 61/2/1 44/2/1 60/2/1
f 62/2/1 46/2/1 45/2/1
f 62/4/1 45/4/1 61/4/1
f 63/4/1 47/4/1 46/4/1
f 63/2/1 46/2/1 62/2/1
f 64/2/1 48/2/1 47/2/1
f 64/4/1 47/4/1 63/4/1
f 65/4/1 49/4/1 48/4/1
f 65/2/1 48/2/1 64/2/1
f 66/2/1 50/2/1 49/2/1
f 66/4/1 49/4/1 65/4/1
f 67/4/1 51/4/1 50/4/1
f 67/2/1 50/2/1 66/2/1
f 68/4/1 51/4/1 67/4/1
f 73/3/1 70/3/1 69/3/1
f 74/3/1 70/3/1 73/3/1
f 75/3/1 72/3/1 71/3/1
f 76/3/1 72/3/1 75/3/1
f 81/3/1 78/3/1 77/3/1
f 82/3/1 78/3/1 81/3/1
f 83/3/1 80/3/1 79/3/1
f 84/3/1 80/3/1 83/3/1
f 85/3/2 86/3/2 89/3/2
f 89/3/2 86/3/2 90/3/2
f 87/3/2 88/3/2 91/3/2
f 91/3/2 88/3/2 92/3/2
f 93/3/2 94/3/2 97/3/2
f 97/3/2 94/3/2 98/3/2
f 95/3/2 96/3/2 99/3/2
f 99/3/2 96/3/2 100/3/2
f 101/2/2 102/2/2 117/2/2
f 102/4/2 103/4/2 118/4/2
f 117/2/2 102/2/2 118/2/2
f 103/2/2 104/2/2 119/2/2
f 118/4/2 103/4/2 119/4/2
f 104/4/2 105/4/2 120/4/2
f 119/2/2 104/2/2 120/2/2
f 105/2/2 106/2/2 121/2/2
f 120/4/2 105/4/2 121/4/2
f 106/4/2 107/4/2 122/4/2
f 121/2/2 106/2/2 122/2/2
f 107/2/2 108/2/2 123/2/2
f 122/4/2 107/4/2 123/4/2
f 108/4/2 109/4/2 124/4/2
f 123/2/2 108/2/2 124/2/2
f 109/2/2 110/2/2 125/2/2
f 124/4/2 109/4/2 125/4/2
f 110/4/2 111/4/2 126/4/2
f 125/2/2 110/2/2 126/2/2
f 111/2/2 112/2/2 127/2/2
f 126/4/2 111/4/2 127/4/2
f 112/4/2 113/4/2 128/4/2
f 127/2/2 112/2/2 128/2/2
f 113/2/2 114/2/2 129/2/2
f 128/4/2 113/4/2 129/4/2
f 114/4/2 115/4/2 130/4/2
f 129/2/2 114/2/2 130/2/2
f 130/4/2 115/4/2 131/4/2
f 131/4/2 115/4/2 132/4/2
f 116/3/2 117/3/2 134/3/2
f 117/4/2 118/4/2 135/4/2
f 134/3/2 117/3/2 135/3/2
f 118/2/2 119/2/2 136/2/2
f 135/4/2 118/4/2 136/4/2
f 119/4/2 120/4/2 137/4/2
f 136/2/2 119/2/2 137/2/2
f 120/2/2 121/2/2 138/2/2
f 137/4/2 120/4/2 138/4/2
f 121/4/2 122/4/2 139/4/2
f 138/2/2 121/2/2 139/2/2
f 122/2/2 123/2/2 140/2/2
f 139/4/2 122/4/2 140/4/2
f 123/4/2 124/4/2 141/4/2
f 140/2/2 123/2/2 141/2/2
f 124/2/2 125/2/2 142/2/2
f 141/4/2 124/4/2 142/4/2
f 125/4/2 126/4/2 143/4/2
f 142/2/2 125/2/2 143/2/2
f 126/2/2 127/2/2 144/2/2
f 143/4/2 126/4/2 144/4/2
f 127/4/2 128/4/2 145/4/2
f 144/2/2 127/2/2 145/2/2
f 128/2/2 129/2/2 146/2/2
f 145/4/2 128/4/2 146/4/2
f 129/4/2 130/4/2 147/4/2
f 146/2/2 129/2/2 147/2/2
f 130/2/2 131/2/2 148/2/2
f 147/4/2 130/4/2 148/4/2
f 131/4/2 132/4/2 149/4/2
f 148/2/2 131/2/2 149/2/2
f 132/3/2 133/3/2 150/3/2
f 149/4/2 132/4/2 150/4/2
f 150/3/2 133/3/2 151/3/2
f 135/2/2 136/2/2 152/2/2
f 136/4/2 137/4/2 153/4/2
f 152/2/2 136/2/2 153/2/2
f 137/2/2 138/2/2 154/2/2
f 153/4/2 137/4/2 154/4/2
f 138/4/2 139/4/2 155/4/2
f 154/2/2 138/2/2 155/2/2
f 139/2/2 140/2/2 156/2/2
f 155/4/2 139/4/2 156/4/2
f 140/4/2 141/4/2 157/4/2
f 156/2/2 140/2/2 157/2/2
f 141/2/2 142/2/2 158/2/2
f 157/4/2 141/4/2 158/4/2
f 142/4/2 143/4/2 159/4/2
f 158/2/2 142/2/2 159/2/2
f 143/2/2 144/2/2 160/2/2
f 159/4/2 143/4/2 160/4/2
f 144/4/2 145/4/2 161/4/2
f 160/2/2 144/2/2 161/2/2
f 145/2/2 146/2/2 162/2/2
f 161/4/2 145/4/2 162/4/2
f 146/4/2 147/4/2 163/4/2
f 162/2/2 146/2/2 163/2/2
f 147/2/2 148/2/2 164/2/2
f 163/4/2 147/4/2 164/4/2
f 148/4/2 149/4/2 165/4/2
f 164/2/2 148/2/2 165/2/2
f 149/2/2 150/2/2 166/2/2
f 165/4/2 149/4/2 166/4/2
f 166/2/2 150/2/2 167/2/2
f 171/3/3 169/3/3 168/3/3
f 172/3/3 169/3/3 171/3/3
f 174/3/3 171/3/3 170/3/3
f 174/3/3 173/3/3 172/3/3
f 174/3/3 172/3/3 171/3/3
f 175/3/3 173/3/3 174/3/3
f 176/3/3 173/3/3 175/3/3
f 177/3/3 173/3/3 176/3/3
f 178/3/3 176/3/3 175/3/3
f 179/3/3 176/3/3 178/3/3
f 184/4/3 181/4/3 180/4/3
f 185/4/3 181/4/3 184/4/3
f 186/4/3 183/4/3 182/4/3
f 187/4/3 183/4/3 186/4/3
f 192/2/3 189/2/3 188/2/3
f 193/2/3 189/2/3 192/2/3
f 194/2/3 191/2/3 190/2/3
f 195/2/3 191/2/3 194/2/3
f 196/4/4 197/4/4 200/4/4
f 200/4/4 197/4/4 201/4/4
f 198/4/4 199/4/4 202/4/4
f 202/4/4 199/4/4 203/4/4
f 204/4/4 205/4/4 208/4/4
f 208/4/4 205/4/4 209/4/4
f 206/2/4 207/2/4 210/2/4
f 210/2/4 207/2/4 211/2/4
f 212/3/4 213/3/4 215/3/4
f 215/3/4 213/3/4 216/3/4
f 214/3/4 215/3/4 218/3/4
f 216/3/4 217/3/4 218/3/4
f 215/3/4 216/3/4 218/3/4
f 218/3/4 217/3/4 219/3/4
f 219/3/4 217/3/4 220/3/4
f 220/3/4 217/3/4 221/3/4
f 219/3/4 220/3/4 222/3/4
f 222/3/4 220/3/4 223/3/4
f 227/3/5 225/3/5 224/3/5
f 228/3/5 225/3/5 227/3/5
f 229/3/5 225/3/5 228/3/5
f 231/4/5 227/4/5 226/4/5
f 232/2/5 228/2/5 227/2/5
f 232/4/5 227/4/5 231/4/5
f 233/4/5 229/4/5 228/4/5
f 233/2/5 228/2/5 232/2/5
f 234/2/5 230/2/5 229/2/5
f 234/4/5 229/4/5 233/4/5
f 235/2/5 230/2/5 234/2/5
f 236/2/5 232/2/5 231/2/5
f 237/4/5 233/4/5 232/4/5
f 237/2/5 232/2/5 236/2/5
f 238/2/5 234/2/5 233/2/5
f 238/4/5 233/4/5 237/4/5
f 239/4/5 235/4/5 234/4/5
f 239/2/5 234/2/5 238/2/5
f 240/4/5 235/4/5 239/4/5
f 241/4/5 237/4/5 236/4/5
f 242/2/5 238/2/5 237/2/5
f 242/4/5 237/4/5 241/4/5
f 243/4/5 239/4/5 238/4/5
f 243/2/5 238/2/5 242/2/5
f 244/2/5 240/2/5 239/2/5
f 244/4/5 239/4/5 243/4/5
f 245/2/5 240/2/5 244/2/5
f 246/2/5 242/2/5 241/2/5
f 247/4/5 243/4/5 242/4/5
f 247/2/5 242/2/5 246/2/5
f 248/2/5 244/2/5 243/2/5
f 248/4/5 243/4/5 247/4/5
f 249/4/5 245/4/5 244/4/5
f 249/2/5 244/2/5 248/2/5
f 250/4/5 245/4/5 249/4/5
f 251/4/5 247/4/5 246/4/5
f 252/2/5 248/2/5 247/2/5
f 252/4/5 247/4/5 251/4/5
f 253/4/5 249/4/5 248/4/5
f 253/2/5 248/2/5 252/2/5
f 254/2/5 250/2/5 249/2/5
f 254/4/5 249/4/5 253/4/5
f 255/2/5 250/2/5 254/2/5
f 256/2/5 252/2/5 251/2/5
f 257/4/5 253/4/5 252/4/5
f 257/2/5 252/2/5 256/2/5
f 258/2/5 254/2/5 253/2/5
f 258/4/5 253/4/5 257/4/5
f 259/4/5 255/4/5 254/4/5
f 259/2/5 254/2/5 258/2/5
f 260/4/5 255/4/5 259/4/5
f 261/4/5 257/4/5 256/4/5
f 262/2/5 258/2/5 257/2/5
f 262/4/5 257/4/5 261/4/5
f 263/4/5 259/4/5 258/4/5
f 263/2/5 258/2/5 262/2/5
f 264/2/5 260/2/5 259/2/5
f 264/4/5 259/4/5 263/4/5
f 265/2/5 260/2/5 264/2/5
f 266/2/5 262/2/5 261/2/5
f 267/4/5 263/4/5 262/4/5
f 267/2/5 262/2/5 266/2/5
f 268/2/5 264/2/5 263/2/5
f 268/4/5 263/4/5 267/4/5
f 269/4/5 265/4/5 264/4/5
f 269/2/5 264/2/5 268/2/5
f 270/4/5 265/4/5 269/4/5
f 271/4/5 267/4/5 266/4/5
f 272/2/5 268/2/5 267/2/5
f 272/4/5 267/4/5 271/4/5
f 273/4/5 269/4/5 268/4/5
f 273/2/5 268/2/5 272/2/5
f 274/2/5 270/2/5 269/2/5
f 274/4/5 269/4/5 273/4/5
f 275/2/5 270/2/5 274/2/5
f 276/2/5 272/2/5 271/2/5
f 277/4/5 273/4/5 272/4/5
f 277/2/5 272/2/5 276/2/5
f 278/2/5 274/2/5 273/2/5
f 278/4/5 273/4/5 277/4/5
f 279/4/5 275/4/5 274/4/5
f 279/2/5 274/2/5 278/2/5
f 280/4/5 275/4/5 279/4/5
f 281/4/5 277/4/5 276/4/5
f 282/2/5 278/2/5 277/2/5
f 282/4/5 277/4/5 281/4/5
f 283/4/5 279/4/5 278/4/5
f 283/2/5 278/2/5 282/2/5
f 284/2/5 280/2/5 279/2/5
f 284/4/5 279/4/5 283/4/5
f 285/2/5 280/2/5 284/2/5
f 286/2/5 282/2/5 281/2/5
f 287/4/5 283/4/5 282/4/5
f 287/2/5 282/2/5 286/2/5
f 288/2/5 284/2/5 283/2/5
f 288/4/5 283/4/5 287/4/5
f 289/4/5 285/4/5 284/4/5
f 289/2/5 284/2/5 288/2/5
f 290/4/5 285/4/5 289/4/5
f 291/4/5 287/4/5 286/4/5
f 292/2/5 288/2/5 287/2/5
f 292/4/5 287/4/5 291/4/5
f 293/4/5 289/4/5 288/4/5
f 293/2/5 288/2/5 292/2/5
f 294/2/5 290/2/5 289/2/5
f 294/4/5 289/4/5 293/4/5
f 295/2/5 290/2/5 294/2/5
f 296/2/5 292/2/5 291/2/5
f 297/4/5 293/4/5 292/4/5
f 297/2/5 292/2/5 296/2/5
f 298/2/5 294/2/5 293/2/5
f 298/4/5 293/4/5 297/4/5
f 299/4/5 295/4/5 294/4/5
f 299/2/5 294/2/5 298/2/5
f 300/4/5 297/4/5 296/4/5
f 301/2/5 298/2/5 297/2/5
f 301/4/5 297/4/5 300/4/5
f 302/4/5 299/4/5 298/4/5
f 302/2/5 298/2/5 301/2/5
f 303/4/5 295/4/5 299/4/5
f 303/4/5 299/4/5 302/4/5
f 304/4/5 295/4/5 303/4/5
f 305/3/5 302/3/5 301/3/5
f 305/3/5 303/3/5 302/3/5
f 306/3/5 303/3/5 305/3/5
f 311/3/5 308/3/5 307/3/5
f 312/3/5 308/3/5 311/3/5
f 313/3/5 310/3/5 309/3/5
f 314/3/5 310/3/5 313/3/5
f 319/3/5 316/3/5 315/3/5
f 320/3/5 316/3/5 319/3/5
f 321/3/5 318/3/5 317/3/5
f 322/3/5 318/3/5 321/3/5
f 323/3/6 324/3/6 327/3/6
f 327/3/6 324/3/6 328/3/6
f 325/3/6 326/3/6 329/3/6
f 329/3/6 326/3/6 330/3/6
f 331/3/6 332/3/6 335/3/6
f 335/3/6 332/3/6 336/3/6
f 333/3/6 334/3/6 337/3/6
f 337/3/6 334/3/6 338/3/6
f 339/3/6 340/3/6 342/3/6
f 342/3/6 340/3/6 343/3/6
f 343/3/6 340/3/6 344/3/6
f 341/4/6 342/4/6 346/4/6
f 342/2/6 343/2/6 347/2/6
f 346/4/6 342/4/6 347/4/6
f 343/4/6 344/4/6 348/4/6
f 347/2/6 343/2/6 348/2/6
f 344/2/6 345/2/6 349/2/6
f 348/4/6 344/4/6 349/4/6
f 349/2/6 345/2/6 350/2/6
f 346/2/6 347/2/6 351/2/6
f 347/4/6 348/4/6 352/4/6
f 351/2/6 347/2/6 352/2/6
f 348/2/6 349/2/6 353/2/6
f 352/4/6 348/4/6 353/4/6
f 349/4/6 350/4/6 354/4/6
f 353/2/6 349/2/6 354/2/6
f 354/4/6 350/4/6 355/4/6
f 351/4/6 352/4/6 356/4/6
f 352/2/6 353/2/6 357/2/6
f 356/4/6 352/4/6 357/4/6
f 353/4/6 354/4/6 358/4/6
f 357/2/6 353/2/6 358/2/6
f 354/2/6 355/2/6 359/2/6
f 358/4/6 354/4/6 359/4/6
f 359/2/6 355/2/6 360/2/6
f 356/2/6 357/2/6 361/2/6
f 357/4/6 358/4/6 362/4/6
f 361/2/6 357/2/6 362/2/6
f 358/2/6 359/2/6 363/2/6
f 362/4/6 358/4/6 363/4/6
f 359/4/6 360/4/6 364/4/6
f 363/2/6 359/2/6 364/2/6
f 364/4/6 360/4/6 365/4/6
f 361/4/6 362/4/6 366/4/6
f 362/2/6 363/2/6 367/2/6
f 366/4/6 362/4/6 367/4/6
f 363/4/6 364/4/6 368/4/6
f 367/2/6 363/2/6 368/2/6
f 364/2/6 365/2/6 369/2/6
f 368/4/6 364/4/6 369/4/6
f 369/2/6 365/2/6 370/2/6
f 366/2/6 367/2/6 371/2/6
f 367/4/6 368/4/6 372/4/6
f 371/2/6 367/2/6 372/2/6
f 368/2/6 369/2/6 373/2/6
f 372/4/6 368/4/6 373/4/6
f 369/4/6 370/4/6 374/4/6
f 373/2/6 369/2/6 374/2/6
f 374/4/6 370/4/6 375/4/6
f 371/4/6 372/4/6 376/4/6
f 372/2/6 373/2/6 377/2/6
f 376/4/6 372/4/6 377/4/6
f 373/4/6 374/4/6 378/4/6
f 377/2/6 373/2/6 378/2/6
f 374/2/6 375/2/6 379/2/6
f 378/4/6 374/4/6 379/4/6
f 379/2/6 375/2/6 380/2/6
f 376/2/6 377/2/6 381/2/6
f 377/4/6 378/4/6 382/4/6
f 381/2/6 377/2/6 382/2/6
f 378/2/6 379/2/6 383/2/6
f 382/4/6 378/4/6 383/4/6
f 379/4/6 380/4/6 384/4/6
f 383/2/6 379/2/6 384/2/6
f 384/4/6 380/4/6 385/4/6
f 381/4/6 382/4/6 386/4/6
f 382/2/6 383/2/6 387/2/6
f 386/4/6 382/4/6 387/4/6
f 383/4/6 384/4/6 388/4/6
f 387/2/6 383/2/6 388/2/6
f 384/2/6 385/2/6 389/2/6
f 388/4/6 384/4/6 389/4/6
f 389/2/6 385/2/6 390/2/6
f 386/2/6 387/2/6 391/2/6
f 387/4/6 388/4/6 392/4/6
f 391/2/6 387/2/6 392/2/6
f 388/2/6 389/2/6 393/2/6
f 392/4/6 388/4/6 393/4/6
f 389/4/6 390/4/6 394/4/6
f 393/2/6 389/2/6 394/2/6
f 394/4/6 390/4/6 395/4/6
f 391/4/6 392/4/6 396/4/6
f 392/2/6 393/2/6 397/2/6
f 396/4/6 392/4/6 397/4/6
f 393/4/6 394/4/6 398/4/6
f 397/2/6 393/2/6 398/2/6
f 394/2/6 395/2/6 399/2/6
f 398/4/6 394/4/6 399/4/6
f 399/2/6 395/2/6 400/2/6
f 396/2/6 397/2/6 401/2/6
f 397/4/6 398/4/6 402/4/6
f 401/2/6 397/2/6 402/2/6
f 398/2/6 399/2/6 403/2/6
f 402/4/6 398/4/6 403/4/6
f 399/4/6 400/4/6 404/4/6
f 403/2/6 399/2/6 404/2/6
f 404/4/6 400/4/6 405/4/6
f 401/4/6 402/4/6 406/4/6
f 402/2/6 403/2/6 407/2/6
f 406/4/6 402/4/6 407/4/6
f 403/4/6 404/4/6 408/4/6
f 407/2/6 403/2/6 408/2/6
f 404/2/6 405/2/6 409/2/6
f 408/4/6 404/4/6 409/4/6
f 409/2/6 405/2/6 410/2/6
f 406/2/6 407/2/6 411/2/6
f 407/4/6 408/4/6 412/4/6
f 411/2/6 407/2/6 412/2/6
f 408/2/6 409/2/6 413/2/6
f 412/4/6 408/4/6 413/4/6
f 409/4/6 410/4/6 414/4/6
f 413/2/6 409/2/6 414/2/6
f 414/4/6 410/4/6 415/4/6
f 411/4/6 412/4/6 416/4/6
f 412/2/6 413/2/6 417/2/6
f 416/4/6 412/4/6 417/4/6
f 413/4/6 414/4/6 418/4/6
f 417/2/6 413/2/6 418/2/6
f 414/2/6 415/2/6 419/2/6
f 418/4/6 414/4/6 419/4/6
f 419/2/6 415/2/6 420/2/6
f 417/3/6 418/3/6 421/3/6
f 418/3/6 419/3/6 421/3/6
f 421/3/6 419/3/6 422/3/6
