# MagicaVoxel @ Ephtracy

# material
mtllib corner.mtl
usemtl palette

# normals
vn -1 0 0
vn 1 0 0
vn 0 0 1
vn 0 0 -1
vn 0 -1 0
vn 0 1 0

# texcoords
vt 0.986328 0.5
vt 0.990234 0.5
vt 0.994141 0.5

# verts
v -4 0 4
v -4 0 1
v -4 0 -0
v -4 0 -4
v -4 1 4
v -4 1 1
v -4 2 1
v -4 2 -0
v -4 3 -0
v -4 3 -4
v -1 1 1
v -1 1 -0
v -1 2 1
v -1 2 -0
v -1 2 -1
v -1 3 -0
v -1 3 -1
v 0 1 -0
v 0 1 -1
v 0 2 -0
v 0 2 -1
v 0 2 -4
v 0 3 -1
v 0 3 -4
v 1 1 -1
v 1 1 -4
v 1 2 -1
v 1 2 -4
v 4 0 4
v 4 0 -4
v 4 1 4
v 4 1 -4
v -4 0 4
v -4 1 4
v 4 0 4
v 4 1 4
v -4 1 1
v -4 2 1
v -1 1 1
v -1 2 1
v -4 2 -0
v -4 3 -0
v -1 1 -0
v -1 2 -0
v -1 3 -0
v 0 1 -0
v 0 2 -0
v -1 2 -1
v -1 3 -1
v 0 1 -1
v 0 2 -1
v 0 3 -1
v 1 1 -1
v 1 2 -1
v -4 0 -4
v -4 3 -4
v 0 0 -4
v 0 2 -4
v 0 3 -4
v 1 0 -4
v 1 1 -4
v 1 2 -4
v 4 0 -4
v 4 1 -4
v -4 0 4
v 4 0 4
v -4 0 1
v -3 0 1
v -4 0 -0
v -3 0 -0
v -3 0 -3
v 0 0 -3
v 1 0 -3
v -4 0 -4
v 0 0 -4
v 1 0 -4
v 4 0 -4
v -4 1 4
v 4 1 4
v -4 1 1
v -1 1 1
v -1 1 -0
v 0 1 -0
v 0 1 -1
v 1 1 -1
v 1 1 -4
v 4 1 -4
v -4 2 1
v -1 2 1
v -4 2 -0
v -1 2 -0
v 0 2 -0
v -1 2 -1
v 0 2 -1
v 1 2 -1
v 0 2 -4
v 1 2 -4
v -4 3 -0
v -1 3 -0
v -1 3 -1
v 0 3 -1
v -4 3 -4
v 0 3 -4

# faces
f 5/1/1 2/1/1 1/1/1
f 6/2/1 3/2/1 2/2/1
f 6/1/1 2/1/1 5/1/1
f 7/2/1 3/2/1 6/2/1
f 8/3/1 4/3/1 3/3/1
f 8/2/1 3/2/1 7/2/1
f 9/3/1 4/3/1 8/3/1
f 10/3/1 4/3/1 9/3/1
f 11/2/2 12/2/2 13/2/2
f 13/2/2 12/2/2 14/2/2
f 14/3/2 15/3/2 16/3/2
f 16/3/2 15/3/2 17/3/2
f 18/2/2 19/2/2 20/2/2
f 20/2/2 19/2/2 21/2/2
f 21/3/2 22/3/2 23/3/2
f 23/3/2 22/3/2 24/3/2
f 25/2/2 26/2/2 27/2/2
f 27/2/2 26/2/2 28/2/2
f 29/1/2 30/1/2 31/1/2
f 31/1/2 30/1/2 32/1/2
f 35/1/3 34/1/3 33/1/3
f 36/1/3 34/1/3 35/1/3
f 39/2/3 38/2/3 37/2/3
f 40/2/3 38/2/3 39/2/3
f 44/3/3 42/3/3 41/3/3
f 45/3/3 42/3/3 44/3/3
f 46/2/3 44/2/3 43/2/3
f 47/2/3 44/2/3 46/2/3
f 51/3/3 49/3/3 48/3/3
f 52/3/3 49/3/3 51/3/3
f 53/2/3 51/2/3 50/2/3
f 54/2/3 51/2/3 53/2/3
f 55/3/4 56/3/4 57/3/4
f 57/3/4 56/3/4 58/3/4
f 58/3/4 56/3/4 59/3/4
f 57/2/4 58/2/4 60/2/4
f 60/2/4 58/2/4 61/2/4
f 61/2/4 58/2/4 62/2/4
f 60/1/4 61/1/4 63/1/4
f 63/1/4 61/1/4 64/1/4
f 67/1/5 66/1/5 65/1/5
f 68/1/5 66/1/5 67/1/5
f 69/2/5 68/2/5 67/2/5
f 70/1/5 66/1/5 68/1/5
f 70/2/5 68/2/5 69/2/5
f 71/3/5 70/3/5 69/3/5
f 71/1/5 66/1/5 70/1/5
f 72/1/5 66/1/5 71/1/5
f 73/1/5 66/1/5 72/1/5
f 74/3/5 71/3/5 69/3/5
f 74/3/5 72/3/5 71/3/5
f 75/2/5 73/2/5 72/2/5
f 75/3/5 72/3/5 74/3/5
f 76/1/5 66/1/5 73/1/5
f 76/2/5 73/2/5 75/2/5
f 77/1/5 66/1/5 76/1/5
f 78/1/6 79/1/6 80/1/6
f 80/1/6 79/1/6 81/1/6
f 81/1/6 79/1/6 82/1/6
f 82/1/6 79/1/6 83/1/6
f 83/1/6 79/1/6 84/1/6
f 84/1/6 79/1/6 85/1/6
f 85/1/6 79/1/6 86/1/6
f 86/1/6 79/1/6 87/1/6
f 88/2/6 89/2/6 90/2/6
f 90/2/6 89/2/6 91/2/6
f 91/2/6 92/2/6 93/2/6
f 93/2/6 92/2/6 94/2/6
f 94/2/6 95/2/6 96/2/6
f 96/2/6 95/2/6 97/2/6
f 98/3/6 99/3/6 100/3/6
f 98/3/6 100/3/6 102/3/6
f 100/3/6 101/3/6 102/3/6
f 102/3/6 101/3/6 103/3/6
