# MagicaVoxel @ Ephtracy

# material
mtllib corner2.mtl
usemtl palette

# normals
vn -1 0 0
vn 1 0 0
vn 0 0 1
vn 0 0 -1
vn 0 -1 0
vn 0 1 0

# texcoords
vt 0.986328 0.5
vt 0.990234 0.5
vt 0.994141 0.5

# verts
v -4 0 4
v -4 0 -4
v -4 3 4
v -4 3 -4
v 0 2 4
v 0 2 2
v 0 3 4
v 0 3 2
v 1 1 4
v 1 1 2
v 1 2 4
v 1 2 2
v 1 2 1
v 1 3 2
v 1 3 1
v 2 1 2
v 2 1 1
v 2 2 2
v 2 2 1
v 2 2 -0
v 2 3 1
v 2 3 -0
v 4 0 4
v 4 0 1
v 4 0 -0
v 4 0 -4
v 4 1 4
v 4 1 1
v 4 2 1
v 4 2 -0
v 4 3 -0
v 4 3 -4
v -4 0 4
v -4 3 4
v 0 0 4
v 0 2 4
v 0 3 4
v 1 0 4
v 1 1 4
v 1 2 4
v 4 0 4
v 4 1 4
v 0 2 2
v 0 3 2
v 1 1 2
v 1 2 2
v 1 3 2
v 2 1 2
v 2 2 2
v 1 2 1
v 1 3 1
v 2 1 1
v 2 2 1
v 2 3 1
v 4 1 1
v 4 2 1
v 2 2 -0
v 2 3 -0
v 4 2 -0
v 4 3 -0
v -4 0 -4
v -4 3 -4
v 4 0 -4
v 4 3 -4
v -4 0 4
v 0 0 4
v 1 0 4
v 4 0 4
v 0 0 3
v 1 0 3
v -3 0 1
v 0 0 1
v 3 0 1
v 4 0 1
v 3 0 -0
v 4 0 -0
v -3 0 -3
v 3 0 -3
v -4 0 -4
v 4 0 -4
v 1 1 4
v 4 1 4
v 1 1 2
v 2 1 2
v 2 1 1
v 4 1 1
v 0 2 4
v 1 2 4
v 0 2 2
v 1 2 2
v 2 2 2
v 1 2 1
v 2 2 1
v 4 2 1
v 2 2 -0
v 4 2 -0
v -4 3 4
v 0 3 4
v 0 3 2
v 1 3 2
v 1 3 1
v 2 3 1
v 2 3 -0
v 4 3 -0
v -4 3 -4
v 4 3 -4

# faces
f 3/3/1 2/3/1 1/3/1
f 4/3/1 2/3/1 3/3/1
f 5/3/2 6/3/2 7/3/2
f 7/3/2 6/3/2 8/3/2
f 9/2/2 10/2/2 11/2/2
f 11/2/2 10/2/2 12/2/2
f 12/3/2 13/3/2 14/3/2
f 14/3/2 13/3/2 15/3/2
f 16/2/2 17/2/2 18/2/2
f 18/2/2 17/2/2 19/2/2
f 19/3/2 20/3/2 21/3/2
f 21/3/2 20/3/2 22/3/2
f 23/1/2 24/1/2 27/1/2
f 24/2/2 25/2/2 28/2/2
f 27/1/2 24/1/2 28/1/2
f 28/2/2 25/2/2 29/2/2
f 25/3/2 26/3/2 30/3/2
f 29/2/2 25/2/2 30/2/2
f 30/3/2 26/3/2 31/3/2
f 31/3/2 26/3/2 32/3/2
f 35/3/3 34/3/3 33/3/3
f 36/3/3 34/3/3 35/3/3
f 37/3/3 34/3/3 36/3/3
f 38/2/3 36/2/3 35/2/3
f 39/2/3 36/2/3 38/2/3
f 40/2/3 36/2/3 39/2/3
f 41/1/3 39/1/3 38/1/3
f 42/1/3 39/1/3 41/1/3
f 46/3/3 44/3/3 43/3/3
f 47/3/3 44/3/3 46/3/3
f 48/2/3 46/2/3 45/2/3
f 49/2/3 46/2/3 48/2/3
f 53/3/3 51/3/3 50/3/3
f 54/3/3 51/3/3 53/3/3
f 55/2/3 53/2/3 52/2/3
f 56/2/3 53/2/3 55/2/3
f 59/3/3 58/3/3 57/3/3
f 60/3/3 58/3/3 59/3/3
f 61/3/4 62/3/4 63/3/4
f 63/3/4 62/3/4 64/3/4
f 69/3/5 66/3/5 65/3/5
f 69/2/5 67/2/5 66/2/5
f 70/1/5 68/1/5 67/1/5
f 70/2/5 67/2/5 69/2/5
f 71/3/5 69/3/5 65/3/5
f 72/1/5 70/1/5 69/1/5
f 72/3/5 69/3/5 71/3/5
f 73/1/5 68/1/5 70/1/5
f 73/1/5 70/1/5 72/1/5
f 74/1/5 68/1/5 73/1/5
f 75/1/5 72/1/5 71/1/5
f 75/1/5 73/1/5 72/1/5
f 75/2/5 74/2/5 73/2/5
f 76/2/5 74/2/5 75/2/5
f 77/3/5 71/3/5 65/3/5
f 77/1/5 75/1/5 71/1/5
f 78/3/5 76/3/5 75/3/5
f 78/1/5 75/1/5 77/1/5
f 79/3/5 77/3/5 65/3/5
f 79/3/5 78/3/5 77/3/5
f 80/3/5 76/3/5 78/3/5
f 80/3/5 78/3/5 79/3/5
f 81/1/6 82/1/6 83/1/6
f 83/1/6 82/1/6 84/1/6
f 84/1/6 82/1/6 85/1/6
f 85/1/6 82/1/6 86/1/6
f 87/2/6 88/2/6 89/2/6
f 89/2/6 88/2/6 90/2/6
f 90/2/6 91/2/6 92/2/6
f 92/2/6 91/2/6 93/2/6
f 93/2/6 94/2/6 95/2/6
f 95/2/6 94/2/6 96/2/6
f 97/3/6 98/3/6 99/3/6
f 99/3/6 100/3/6 101/3/6
f 101/3/6 102/3/6 103/3/6
f 97/3/6 99/3/6 105/3/6
f 103/3/6 104/3/6 105/3/6
f 101/3/6 103/3/6 105/3/6
f 99/3/6 101/3/6 105/3/6
f 105/3/6 104/3/6 106/3/6
