# MagicaVoxel @ Ephtracy

# material
mtllib 0.mtl
usemtl palette

# normals
vn -1 0 0
vn 1 0 0
vn 0 0 1
vn 0 0 -1
vn 0 -1 0
vn 0 1 0

# texcoords
vt 0.306641 0.5
vt 0.970703 0.5
vt 0.974609 0.5
vt 0.978516 0.5

# verts
v -5 0 12.5
v -5 0 7.5
v -5 0 -12.5
v -5 1 12.5
v -5 1 7.5
v -5 1 -12.5
v 5 0 12.5
v 5 0 7.5
v 5 0 -12.5
v 5 1 12.5
v 5 1 7.5
v 5 1 -12.5
v -5 0 12.5
v -5 1 12.5
v 5 0 12.5
v 5 1 12.5
v -5 0 -12.5
v -5 1 -12.5
v 5 0 -12.5
v 5 1 -12.5
v -5 0 12.5
v 5 0 12.5
v -5 0 7.5
v 5 0 7.5
v -3 0 5.5
v -2 0 5.5
v -1 0 5.5
v 1 0 5.5
v 2 0 5.5
v 3 0 5.5
v -1 0 4.5
v 1 0 4.5
v -3 0 3.5
v -2 0 3.5
v 2 0 3.5
v 3 0 3.5
v -3 0 2.5
v -2 0 2.5
v 2 0 2.5
v 3 0 2.5
v -3 0 0.5
v -2 0 0.5
v 2 0 0.5
v 3 0 0.5
v -3 0 -0.5
v -2 0 -0.5
v -1 0 -0.5
v 1 0 -0.5
v 2 0 -0.5
v 3 0 -0.5
v -2 0 -1.5
v -1 0 -1.5
v 1 0 -1.5
v 2 0 -1.5
v -2 0 -3.5
v -1 0 -3.5
v 1 0 -3.5
v 2 0 -3.5
v -3 0 -4.5
v -2 0 -4.5
v -1 0 -4.5
v 1 0 -4.5
v 2 0 -4.5
v 3 0 -4.5
v -3 0 -5.5
v -2 0 -5.5
v 2 0 -5.5
v 3 0 -5.5
v -3 0 -7.5
v -2 0 -7.5
v 2 0 -7.5
v 3 0 -7.5
v -3 0 -8.5
v -2 0 -8.5
v 2 0 -8.5
v 3 0 -8.5
v -1 0 -9.5
v 1 0 -9.5
v -3 0 -10.5
v -2 0 -10.5
v -1 0 -10.5
v 1 0 -10.5
v 2 0 -10.5
v 3 0 -10.5
v -5 0 -12.5
v 5 0 -12.5
v -5 1 12.5
v 5 1 12.5
v -5 1 7.5
v 5 1 7.5
v -3 1 5.5
v -2 1 5.5
v -1 1 5.5
v 1 1 5.5
v 2 1 5.5
v 3 1 5.5
v -1 1 4.5
v 1 1 4.5
v -3 1 3.5
v -2 1 3.5
v 2 1 3.5
v 3 1 3.5
v -3 1 2.5
v -2 1 2.5
v 2 1 2.5
v 3 1 2.5
v -3 1 0.5
v -2 1 0.5
v 2 1 0.5
v 3 1 0.5
v -3 1 -0.5
v -2 1 -0.5
v -1 1 -0.5
v 1 1 -0.5
v 2 1 -0.5
v 3 1 -0.5
v -2 1 -1.5
v -1 1 -1.5
v 1 1 -1.5
v 2 1 -1.5
v -2 1 -3.5
v -1 1 -3.5
v 1 1 -3.5
v 2 1 -3.5
v -3 1 -4.5
v -2 1 -4.5
v -1 1 -4.5
v 1 1 -4.5
v 2 1 -4.5
v 3 1 -4.5
v -3 1 -5.5
v -2 1 -5.5
v 2 1 -5.5
v 3 1 -5.5
v -3 1 -7.5
v -2 1 -7.5
v 2 1 -7.5
v 3 1 -7.5
v -3 1 -8.5
v -2 1 -8.5
v 2 1 -8.5
v 3 1 -8.5
v -1 1 -9.5
v 1 1 -9.5
v -3 1 -10.5
v -2 1 -10.5
v -1 1 -10.5
v 1 1 -10.5
v 2 1 -10.5
v 3 1 -10.5
v -5 1 -12.5
v 5 1 -12.5

# faces
f 4/2/1 2/2/1 1/2/1
f 5/1/1 3/1/1 2/1/1
f 5/2/1 2/2/1 4/2/1
f 6/1/1 3/1/1 5/1/1
f 7/2/2 8/2/2 10/2/2
f 8/1/2 9/1/2 11/1/2
f 10/2/2 8/2/2 11/2/2
f 11/1/2 9/1/2 12/1/2
f 15/2/3 14/2/3 13/2/3
f 16/2/3 14/2/3 15/2/3
f 17/1/4 18/1/4 19/1/4
f 19/1/4 18/1/4 20/1/4
f 23/2/5 22/2/5 21/2/5
f 24/2/5 22/2/5 23/2/5
f 25/1/5 24/1/5 23/1/5
f 26/1/5 24/1/5 25/1/5
f 27/1/5 24/1/5 26/1/5
f 28/1/5 24/1/5 27/1/5
f 29/1/5 24/1/5 28/1/5
f 30/1/5 24/1/5 29/1/5
f 31/1/5 27/1/5 26/1/5
f 31/3/5 28/3/5 27/3/5
f 32/1/5 29/1/5 28/1/5
f 32/3/5 28/3/5 31/3/5
f 33/1/5 25/1/5 23/1/5
f 33/3/5 26/3/5 25/3/5
f 34/1/5 32/1/5 31/1/5
f 34/3/5 26/3/5 33/3/5
f 34/1/5 31/1/5 26/1/5
f 35/1/5 29/1/5 32/1/5
f 35/1/5 32/1/5 34/1/5
f 35/3/5 30/3/5 29/3/5
f 36/1/5 24/1/5 30/1/5
f 36/3/5 30/3/5 35/3/5
f 37/1/5 34/1/5 33/1/5
f 37/1/5 33/1/5 23/1/5
f 37/1/5 36/1/5 35/1/5
f 37/1/5 35/1/5 34/1/5
f 38/1/5 36/1/5 37/1/5
f 39/1/5 36/1/5 38/1/5
f 40/1/5 24/1/5 36/1/5
f 40/1/5 36/1/5 39/1/5
f 41/1/5 37/1/5 23/1/5
f 41/3/5 38/3/5 37/3/5
f 42/1/5 39/1/5 38/1/5
f 42/3/5 38/3/5 41/3/5
f 43/3/5 40/3/5 39/3/5
f 43/1/5 39/1/5 42/1/5
f 44/1/5 24/1/5 40/1/5
f 44/3/5 40/3/5 43/3/5
f 45/1/5 41/1/5 23/1/5
f 45/4/5 42/4/5 41/4/5
f 46/1/5 43/1/5 42/1/5
f 46/4/5 42/4/5 45/4/5
f 47/1/5 43/1/5 46/1/5
f 48/1/5 43/1/5 47/1/5
f 49/4/5 44/4/5 43/4/5
f 49/1/5 43/1/5 48/1/5
f 50/1/5 24/1/5 44/1/5
f 50/4/5 44/4/5 49/4/5
f 51/3/5 46/3/5 45/3/5
f 51/4/5 47/4/5 46/4/5
f 52/1/5 48/1/5 47/1/5
f 52/4/5 47/4/5 51/4/5
f 53/4/5 49/4/5 48/4/5
f 53/1/5 48/1/5 52/1/5
f 54/3/5 50/3/5 49/3/5
f 54/4/5 49/4/5 53/4/5
f 55/1/5 52/1/5 51/1/5
f 55/3/5 51/3/5 45/3/5
f 56/4/5 53/4/5 52/4/5
f 56/1/5 52/1/5 55/1/5
f 57/1/5 54/1/5 53/1/5
f 57/4/5 53/4/5 56/4/5
f 58/3/5 50/3/5 54/3/5
f 58/1/5 54/1/5 57/1/5
f 59/1/5 45/1/5 23/1/5
f 59/3/5 55/3/5 45/3/5
f 60/4/5 56/4/5 55/4/5
f 60/3/5 55/3/5 59/3/5
f 61/1/5 57/1/5 56/1/5
f 61/4/5 56/4/5 60/4/5
f 62/4/5 58/4/5 57/4/5
f 62/1/5 57/1/5 61/1/5
f 63/3/5 50/3/5 58/3/5
f 63/4/5 58/4/5 62/4/5
f 64/1/5 24/1/5 50/1/5
f 64/3/5 50/3/5 63/3/5
f 65/4/5 60/4/5 59/4/5
f 65/1/5 59/1/5 23/1/5
f 66/1/5 62/1/5 61/1/5
f 66/4/5 60/4/5 65/4/5
f 66/1/5 63/1/5 62/1/5
f 66/1/5 61/1/5 60/1/5
f 67/4/5 64/4/5 63/4/5
f 67/1/5 63/1/5 66/1/5
f 68/1/5 24/1/5 64/1/5
f 68/4/5 64/4/5 67/4/5
f 69/1/5 65/1/5 23/1/5
f 69/3/5 66/3/5 65/3/5
f 70/1/5 67/1/5 66/1/5
f 70/3/5 66/3/5 69/3/5
f 71/3/5 68/3/5 67/3/5
f 71/1/5 67/1/5 70/1/5
f 72/1/5 24/1/5 68/1/5
f 72/3/5 68/3/5 71/3/5
f 73/1/5 69/1/5 23/1/5
f 73/1/5 71/1/5 70/1/5
f 73/1/5 72/1/5 71/1/5
f 73/1/5 70/1/5 69/1/5
f 74/1/5 72/1/5 73/1/5
f 75/1/5 72/1/5 74/1/5
f 76/1/5 24/1/5 72/1/5
f 76/1/5 72/1/5 75/1/5
f 77/1/5 75/1/5 74/1/5
f 78/1/5 75/1/5 77/1/5
f 79/1/5 73/1/5 23/1/5
f 79/3/5 74/3/5 73/3/5
f 80/1/5 77/1/5 74/1/5
f 80/3/5 74/3/5 79/3/5
f 81/3/5 78/3/5 77/3/5
f 81/1/5 77/1/5 80/1/5
f 82/1/5 75/1/5 78/1/5
f 82/3/5 78/3/5 81/3/5
f 83/3/5 76/3/5 75/3/5
f 83/1/5 75/1/5 82/1/5
f 84/1/5 24/1/5 76/1/5
f 84/3/5 76/3/5 83/3/5
f 85/1/5 83/1/5 82/1/5
f 85/1/5 81/1/5 80/1/5
f 85/1/5 84/1/5 83/1/5
f 85/1/5 79/1/5 23/1/5
f 85/1/5 82/1/5 81/1/5
f 85/1/5 80/1/5 79/1/5
f 86/1/5 24/1/5 84/1/5
f 86/1/5 84/1/5 85/1/5
f 87/2/6 88/2/6 89/2/6
f 89/2/6 88/2/6 90/2/6
f 89/1/6 90/1/6 91/1/6
f 91/1/6 90/1/6 92/1/6
f 92/1/6 90/1/6 93/1/6
f 93/1/6 90/1/6 94/1/6
f 94/1/6 90/1/6 95/1/6
f 95/1/6 90/1/6 96/1/6
f 92/1/6 93/1/6 97/1/6
f 93/3/6 94/3/6 97/3/6
f 94/1/6 95/1/6 98/1/6
f 97/3/6 94/3/6 98/3/6
f 89/1/6 91/1/6 99/1/6
f 91/3/6 92/3/6 99/3/6
f 97/1/6 98/1/6 100/1/6
f 99/3/6 92/3/6 100/3/6
f 92/1/6 97/1/6 100/1/6
f 98/1/6 95/1/6 101/1/6
f 100/1/6 98/1/6 101/1/6
f 95/3/6 96/3/6 101/3/6
f 96/1/6 90/1/6 102/1/6
f 101/3/6 96/3/6 102/3/6
f 99/1/6 100/1/6 103/1/6
f 89/1/6 99/1/6 103/1/6
f 101/1/6 102/1/6 103/1/6
f 100/1/6 101/1/6 103/1/6
f 103/1/6 102/1/6 104/1/6
f 104/1/6 102/1/6 105/1/6
f 102/1/6 90/1/6 106/1/6
f 105/1/6 102/1/6 106/1/6
f 89/1/6 103/1/6 107/1/6
f 103/3/6 104/3/6 107/3/6
f 104/1/6 105/1/6 108/1/6
f 107/3/6 104/3/6 108/3/6
f 105/3/6 106/3/6 109/3/6
f 108/1/6 105/1/6 109/1/6
f 106/1/6 90/1/6 110/1/6
f 109/3/6 106/3/6 110/3/6
f 89/1/6 107/1/6 111/1/6
f 107/4/6 108/4/6 111/4/6
f 108/1/6 109/1/6 112/1/6
f 111/4/6 108/4/6 112/4/6
f 112/1/6 109/1/6 113/1/6
f 113/1/6 109/1/6 114/1/6
f 109/4/6 110/4/6 115/4/6
f 114/1/6 109/1/6 115/1/6
f 110/1/6 90/1/6 116/1/6
f 115/4/6 110/4/6 116/4/6
f 111/3/6 112/3/6 117/3/6
f 112/4/6 113/4/6 117/4/6
f 113/1/6 114/1/6 118/1/6
f 117/4/6 113/4/6 118/4/6
f 114/4/6 115/4/6 119/4/6
f 118/1/6 114/1/6 119/1/6
f 115/3/6 116/3/6 120/3/6
f 119/4/6 115/4/6 120/4/6
f 117/1/6 118/1/6 121/1/6
f 111/3/6 117/3/6 121/3/6
f 118/4/6 119/4/6 122/4/6
f 121/1/6 118/1/6 122/1/6
f 119/1/6 120/1/6 123/1/6
f 122/4/6 119/4/6 123/4/6
f 120/3/6 116/3/6 124/3/6
f 123/1/6 120/1/6 124/1/6
f 89/1/6 111/1/6 125/1/6
f 111/3/6 121/3/6 125/3/6
f 121/4/6 122/4/6 126/4/6
f 125/3/6 121/3/6 126/3/6
f 122/1/6 123/1/6 127/1/6
f 126/4/6 122/4/6 127/4/6
f 123/4/6 124/4/6 128/4/6
f 127/1/6 123/1/6 128/1/6
f 124/3/6 116/3/6 129/3/6
f 128/4/6 124/4/6 129/4/6
f 116/1/6 90/1/6 130/1/6
f 129/3/6 116/3/6 130/3/6
f 125/4/6 126/4/6 131/4/6
f 89/1/6 125/1/6 131/1/6
f 127/1/6 128/1/6 132/1/6
f 131/4/6 126/4/6 132/4/6
f 128/1/6 129/1/6 132/1/6
f 126/1/6 127/1/6 132/1/6
f 129/4/6 130/4/6 133/4/6
f 132/1/6 129/1/6 133/1/6
f 130/1/6 90/1/6 134/1/6
f 133/4/6 130/4/6 134/4/6
f 89/1/6 131/1/6 135/1/6
f 131/3/6 132/3/6 135/3/6
f 132/1/6 133/1/6 136/1/6
f 135/3/6 132/3/6 136/3/6
f 133/3/6 134/3/6 137/3/6
f 136/1/6 133/1/6 137/1/6
f 134/1/6 90/1/6 138/1/6
f 137/3/6 134/3/6 138/3/6
f 89/1/6 135/1/6 139/1/6
f 136/1/6 137/1/6 139/1/6
f 137/1/6 138/1/6 139/1/6
f 135/1/6 136/1/6 139/1/6
f 139/1/6 138/1/6 140/1/6
f 140/1/6 138/1/6 141/1/6
f 138/1/6 90/1/6 142/1/6
f 141/1/6 138/1/6 142/1/6
f 140/1/6 141/1/6 143/1/6
f 143/1/6 141/1/6 144/1/6
f 89/1/6 139/1/6 145/1/6
f 139/3/6 140/3/6 145/3/6
f 140/1/6 143/1/6 146/1/6
f 145/3/6 140/3/6 146/3/6
f 143/3/6 144/3/6 147/3/6
f 146/1/6 143/1/6 147/1/6
f 144/1/6 141/1/6 148/1/6
f 147/3/6 144/3/6 148/3/6
f 141/3/6 142/3/6 149/3/6
f 148/1/6 141/1/6 149/1/6
f 142/1/6 90/1/6 150/1/6
f 149/3/6 142/3/6 150/3/6
f 148/1/6 149/1/6 151/1/6
f 146/1/6 147/1/6 151/1/6
f 149/1/6 150/1/6 151/1/6
f 89/1/6 145/1/6 151/1/6
f 147/1/6 148/1/6 151/1/6
f 145/1/6 146/1/6 151/1/6
f 150/1/6 90/1/6 152/1/6
f 151/1/6 150/1/6 152/1/6
