# MagicaVoxel @ Ephtracy

# material
mtllib 2.mtl
usemtl palette

# normals
vn -1 0 0
vn 1 0 0
vn 0 0 1
vn 0 0 -1
vn 0 -1 0
vn 0 1 0

# texcoords
vt 0.306641 0.5
vt 0.970703 0.5
vt 0.974609 0.5
vt 0.978516 0.5
vt 0.990234 0.5

# verts
v -5 0 12.5
v -5 0 7.5
v -5 0 -12.5
v -5 1 12.5
v -5 1 7.5
v -5 1 6.5
v -5 1 -11.5
v -5 1 -12.5
v -5 2 7.5
v -5 2 6.5
v -5 2 -11.5
v -5 2 -12.5
v -5 3 7.5
v -5 3 6.5
v -5 3 -11.5
v -5 3 -12.5
v -5 4 7.5
v -5 4 6.5
v -5 4 -11.5
v -5 4 -12.5
v -5 5 7.5
v -5 5 6.5
v -5 5 -11.5
v -5 5 -12.5
v -5 6 7.5
v -5 6 6.5
v -5 6 -11.5
v -5 6 -12.5
v -5 7 7.5
v -5 7 6.5
v -5 7 -11.5
v -5 7 -12.5
v -5 8 7.5
v -5 8 6.5
v -5 8 -11.5
v -5 8 -12.5
v 4 1 7.5
v 4 1 6.5
v 4 1 -11.5
v 4 1 -12.5
v 4 2 7.5
v 4 2 6.5
v 4 2 -11.5
v 4 2 -12.5
v 4 3 7.5
v 4 3 6.5
v 4 3 -11.5
v 4 3 -12.5
v 4 4 7.5
v 4 4 6.5
v 4 4 -11.5
v 4 4 -12.5
v 4 5 7.5
v 4 5 6.5
v 4 5 -11.5
v 4 5 -12.5
v 4 6 7.5
v 4 6 6.5
v 4 6 -11.5
v 4 6 -12.5
v 4 7 7.5
v 4 7 6.5
v 4 7 -11.5
v 4 7 -12.5
v 4 8 7.5
v 4 8 6.5
v 4 8 -11.5
v 4 8 -12.5
v -4 1 7.5
v -4 1 6.5
v -4 1 -11.5
v -4 1 -12.5
v -4 2 7.5
v -4 2 6.5
v -4 2 -11.5
v -4 2 -12.5
v -4 3 7.5
v -4 3 6.5
v -4 3 -11.5
v -4 3 -12.5
v -4 4 7.5
v -4 4 6.5
v -4 4 -11.5
v -4 4 -12.5
v -4 5 7.5
v -4 5 6.5
v -4 5 -11.5
v -4 5 -12.5
v -4 6 7.5
v -4 6 6.5
v -4 6 -11.5
v -4 6 -12.5
v -4 7 7.5
v -4 7 6.5
v -4 7 -11.5
v -4 7 -12.5
v -4 8 7.5
v -4 8 6.5
v -4 8 -11.5
v -4 8 -12.5
v 5 0 12.5
v 5 0 7.5
v 5 0 -12.5
v 5 1 12.5
v 5 1 7.5
v 5 1 6.5
v 5 1 -11.5
v 5 1 -12.5
v 5 2 7.5
v 5 2 6.5
v 5 2 -11.5
v 5 2 -12.5
v 5 3 7.5
v 5 3 6.5
v 5 3 -11.5
v 5 3 -12.5
v 5 4 7.5
v 5 4 6.5
v 5 4 -11.5
v 5 4 -12.5
v 5 5 7.5
v 5 5 6.5
v 5 5 -11.5
v 5 5 -12.5
v 5 6 7.5
v 5 6 6.5
v 5 6 -11.5
v 5 6 -12.5
v 5 7 7.5
v 5 7 6.5
v 5 7 -11.5
v 5 7 -12.5
v 5 8 7.5
v 5 8 6.5
v 5 8 -11.5
v 5 8 -12.5
v -5 0 12.5
v -5 1 12.5
v 5 0 12.5
v 5 1 12.5
v -5 1 7.5
v -5 2 7.5
v -5 3 7.5
v -5 4 7.5
v -5 5 7.5
v -5 6 7.5
v -5 7 7.5
v -5 8 7.5
v -4 1 7.5
v -4 2 7.5
v -4 3 7.5
v -4 4 7.5
v -4 5 7.5
v -4 6 7.5
v -4 7 7.5
v -4 8 7.5
v 4 1 7.5
v 4 2 7.5
v 4 3 7.5
v 4 4 7.5
v 4 5 7.5
v 4 6 7.5
v 4 7 7.5
v 4 8 7.5
v 5 1 7.5
v 5 2 7.5
v 5 3 7.5
v 5 4 7.5
v 5 5 7.5
v 5 6 7.5
v 5 7 7.5
v 5 8 7.5
v -5 1 -11.5
v -5 2 -11.5
v -5 3 -11.5
v -5 4 -11.5
v -5 5 -11.5
v -5 6 -11.5
v -5 7 -11.5
v -5 8 -11.5
v -4 1 -11.5
v -4 2 -11.5
v -4 3 -11.5
v -4 4 -11.5
v -4 5 -11.5
v -4 6 -11.5
v -4 7 -11.5
v -4 8 -11.5
v 4 1 -11.5
v 4 2 -11.5
v 4 3 -11.5
v 4 4 -11.5
v 4 5 -11.5
v 4 6 -11.5
v 4 7 -11.5
v 4 8 -11.5
v 5 1 -11.5
v 5 2 -11.5
v 5 3 -11.5
v 5 4 -11.5
v 5 5 -11.5
v 5 6 -11.5
v 5 7 -11.5
v 5 8 -11.5
v -5 1 6.5
v -5 2 6.5
v -5 3 6.5
v -5 4 6.5
v -5 5 6.5
v -5 6 6.5
v -5 7 6.5
v -5 8 6.5
v -4 1 6.5
v -4 2 6.5
v -4 3 6.5
v -4 4 6.5
v -4 5 6.5
v -4 6 6.5
v -4 7 6.5
v -4 8 6.5
v 4 1 6.5
v 4 2 6.5
v 4 3 6.5
v 4 4 6.5
v 4 5 6.5
v 4 6 6.5
v 4 7 6.5
v 4 8 6.5
v 5 1 6.5
v 5 2 6.5
v 5 3 6.5
v 5 4 6.5
v 5 5 6.5
v 5 6 6.5
v 5 7 6.5
v 5 8 6.5
v -5 0 -12.5
v -5 1 -12.5
v -5 2 -12.5
v -5 3 -12.5
v -5 4 -12.5
v -5 5 -12.5
v -5 6 -12.5
v -5 7 -12.5
v -5 8 -12.5
v -4 1 -12.5
v -4 2 -12.5
v -4 3 -12.5
v -4 4 -12.5
v -4 5 -12.5
v -4 6 -12.5
v -4 7 -12.5
v -4 8 -12.5
v 4 1 -12.5
v 4 2 -12.5
v 4 3 -12.5
v 4 4 -12.5
v 4 5 -12.5
v 4 6 -12.5
v 4 7 -12.5
v 4 8 -12.5
v 5 0 -12.5
v 5 1 -12.5
v 5 2 -12.5
v 5 3 -12.5
v 5 4 -12.5
v 5 5 -12.5
v 5 6 -12.5
v 5 7 -12.5
v 5 8 -12.5
v -5 0 12.5
v 5 0 12.5
v -5 0 7.5
v 5 0 7.5
v -3 0 5.5
v -2 0 5.5
v -1 0 5.5
v 1 0 5.5
v 2 0 5.5
v 3 0 5.5
v -1 0 4.5
v 1 0 4.5
v -3 0 3.5
v -2 0 3.5
v 2 0 3.5
v 3 0 3.5
v -3 0 2.5
v -2 0 2.5
v 2 0 2.5
v 3 0 2.5
v -3 0 0.5
v -2 0 0.5
v 2 0 0.5
v 3 0 0.5
v -3 0 -0.5
v -2 0 -0.5
v -1 0 -0.5
v 1 0 -0.5
v 2 0 -0.5
v 3 0 -0.5
v -2 0 -1.5
v -1 0 -1.5
v 1 0 -1.5
v 2 0 -1.5
v -2 0 -3.5
v -1 0 -3.5
v 1 0 -3.5
v 2 0 -3.5
v -3 0 -4.5
v -2 0 -4.5
v -1 0 -4.5
v 1 0 -4.5
v 2 0 -4.5
v 3 0 -4.5
v -3 0 -5.5
v -2 0 -5.5
v 2 0 -5.5
v 3 0 -5.5
v -3 0 -7.5
v -2 0 -7.5
v 2 0 -7.5
v 3 0 -7.5
v -3 0 -8.5
v -2 0 -8.5
v 2 0 -8.5
v 3 0 -8.5
v -1 0 -9.5
v 1 0 -9.5
v -3 0 -10.5
v -2 0 -10.5
v -1 0 -10.5
v 1 0 -10.5
v 2 0 -10.5
v 3 0 -10.5
v -5 0 -12.5
v 5 0 -12.5
v -5 1 12.5
v 5 1 12.5
v -5 1 7.5
v -4 1 7.5
v 4 1 7.5
v 5 1 7.5
v -5 1 6.5
v -4 1 6.5
v 4 1 6.5
v 5 1 6.5
v -3 1 5.5
v -2 1 5.5
v -1 1 5.5
v 1 1 5.5
v 2 1 5.5
v 3 1 5.5
v -1 1 4.5
v 1 1 4.5
v -3 1 3.5
v -2 1 3.5
v 2 1 3.5
v 3 1 3.5
v -3 1 2.5
v -2 1 2.5
v 2 1 2.5
v 3 1 2.5
v -3 1 0.5
v -2 1 0.5
v 2 1 0.5
v 3 1 0.5
v -3 1 -0.5
v -2 1 -0.5
v -1 1 -0.5
v 1 1 -0.5
v 2 1 -0.5
v 3 1 -0.5
v -2 1 -1.5
v -1 1 -1.5
v 1 1 -1.5
v 2 1 -1.5
v -2 1 -3.5
v -1 1 -3.5
v 1 1 -3.5
v 2 1 -3.5
v -3 1 -4.5
v -2 1 -4.5
v -1 1 -4.5
v 1 1 -4.5
v 2 1 -4.5
v 3 1 -4.5
v -3 1 -5.5
v -2 1 -5.5
v 2 1 -5.5
v 3 1 -5.5
v -3 1 -7.5
v -2 1 -7.5
v 2 1 -7.5
v 3 1 -7.5
v -3 1 -8.5
v -2 1 -8.5
v 2 1 -8.5
v 3 1 -8.5
v -1 1 -9.5
v 1 1 -9.5
v -3 1 -10.5
v -2 1 -10.5
v -1 1 -10.5
v 1 1 -10.5
v 2 1 -10.5
v 3 1 -10.5
v -5 1 -11.5
v -4 1 -11.5
v 4 1 -11.5
v 5 1 -11.5
v -4 1 -12.5
v 4 1 -12.5
v -5 8 7.5
v -4 8 7.5
v 4 8 7.5
v 5 8 7.5
v -5 8 6.5
v -4 8 6.5
v 4 8 6.5
v 5 8 6.5
v -5 8 -11.5
v -4 8 -11.5
v 4 8 -11.5
v 5 8 -11.5
v -5 8 -12.5
v -4 8 -12.5
v 4 8 -12.5
v 5 8 -12.5

# faces
f 4/2/1 2/2/1 1/2/1
f 5/1/1 3/1/1 2/1/1
f 5/2/1 2/2/1 4/2/1
f 6/1/1 3/1/1 5/1/1
f 7/1/1 3/1/1 6/1/1
f 8/1/1 3/1/1 7/1/1
f 9/5/1 6/5/1 5/5/1
f 10/5/1 6/5/1 9/5/1
f 11/5/1 8/5/1 7/5/1
f 12/5/1 8/5/1 11/5/1
f 13/1/1 10/1/1 9/1/1
f 14/1/1 10/1/1 13/1/1
f 15/1/1 12/1/1 11/1/1
f 16/1/1 12/1/1 15/1/1
f 17/5/1 14/5/1 13/5/1
f 18/5/1 14/5/1 17/5/1
f 19/5/1 16/5/1 15/5/1
f 20/5/1 16/5/1 19/5/1
f 21/1/1 18/1/1 17/1/1
f 22/1/1 18/1/1 21/1/1
f 23/1/1 20/1/1 19/1/1
f 24/1/1 20/1/1 23/1/1
f 25/5/1 22/5/1 21/5/1
f 26/5/1 22/5/1 25/5/1
f 27/5/1 24/5/1 23/5/1
f 28/5/1 24/5/1 27/5/1
f 29/1/1 26/1/1 25/1/1
f 30/1/1 26/1/1 29/1/1
f 31/1/1 28/1/1 27/1/1
f 32/1/1 28/1/1 31/1/1
f 33/5/1 30/5/1 29/5/1
f 34/5/1 30/5/1 33/5/1
f 35/5/1 32/5/1 31/5/1
f 36/5/1 32/5/1 35/5/1
f 41/5/1 38/5/1 37/5/1
f 42/5/1 38/5/1 41/5/1
f 43/5/1 40/5/1 39/5/1
f 44/5/1 40/5/1 43/5/1
f 45/1/1 42/1/1 41/1/1
f 46/1/1 42/1/1 45/1/1
f 47/1/1 44/1/1 43/1/1
f 48/1/1 44/1/1 47/1/1
f 49/5/1 46/5/1 45/5/1
f 50/5/1 46/5/1 49/5/1
f 51/5/1 48/5/1 47/5/1
f 52/5/1 48/5/1 51/5/1
f 53/1/1 50/1/1 49/1/1
f 54/1/1 50/1/1 53/1/1
f 55/1/1 52/1/1 51/1/1
f 56/1/1 52/1/1 55/1/1
f 57/5/1 54/5/1 53/5/1
f 58/5/1 54/5/1 57/5/1
f 59/5/1 56/5/1 55/5/1
f 60/5/1 56/5/1 59/5/1
f 61/1/1 58/1/1 57/1/1
f 62/1/1 58/1/1 61/1/1
f 63/1/1 60/1/1 59/1/1
f 64/1/1 60/1/1 63/1/1
f 65/5/1 62/5/1 61/5/1
f 66/5/1 62/5/1 65/5/1
f 67/5/1 64/5/1 63/5/1
f 68/5/1 64/5/1 67/5/1
f 69/5/2 70/5/2 73/5/2
f 73/5/2 70/5/2 74/5/2
f 71/5/2 72/5/2 75/5/2
f 75/5/2 72/5/2 76/5/2
f 73/1/2 74/1/2 77/1/2
f 77/1/2 74/1/2 78/1/2
f 75/1/2 76/1/2 79/1/2
f 79/1/2 76/1/2 80/1/2
f 77/5/2 78/5/2 81/5/2
f 81/5/2 78/5/2 82/5/2
f 79/5/2 80/5/2 83/5/2
f 83/5/2 80/5/2 84/5/2
f 81/1/2 82/1/2 85/1/2
f 85/1/2 82/1/2 86/1/2
f 83/1/2 84/1/2 87/1/2
f 87/1/2 84/1/2 88/1/2
f 85/5/2 86/5/2 89/5/2
f 89/5/2 86/5/2 90/5/2
f 87/5/2 88/5/2 91/5/2
f 91/5/2 88/5/2 92/5/2
f 89/1/2 90/1/2 93/1/2
f 93/1/2 90/1/2 94/1/2
f 91/1/2 92/1/2 95/1/2
f 95/1/2 92/1/2 96/1/2
f 93/5/2 94/5/2 97/5/2
f 97/5/2 94/5/2 98/5/2
f 95/5/2 96/5/2 99/5/2
f 99/5/2 96/5/2 100/5/2
f 101/2/2 102/2/2 104/2/2
f 102/1/2 103/1/2 105/1/2
f 104/2/2 102/2/2 105/2/2
f 105/1/2 103/1/2 106/1/2
f 106/1/2 103/1/2 107/1/2
f 107/1/2 103/1/2 108/1/2
f 105/5/2 106/5/2 109/5/2
f 109/5/2 106/5/2 110/5/2
f 107/5/2 108/5/2 111/5/2
f 111/5/2 108/5/2 112/5/2
f 109/1/2 110/1/2 113/1/2
f 113/1/2 110/1/2 114/1/2
f 111/1/2 112/1/2 115/1/2
f 115/1/2 112/1/2 116/1/2
f 113/5/2 114/5/2 117/5/2
f 117/5/2 114/5/2 118/5/2
f 115/5/2 116/5/2 119/5/2
f 119/5/2 116/5/2 120/5/2
f 117/1/2 118/1/2 121/1/2
f 121/1/2 118/1/2 122/1/2
f 119/1/2 120/1/2 123/1/2
f 123/1/2 120/1/2 124/1/2
f 121/5/2 122/5/2 125/5/2
f 125/5/2 122/5/2 126/5/2
f 123/5/2 124/5/2 127/5/2
f 127/5/2 124/5/2 128/5/2
f 125/1/2 126/1/2 129/1/2
f 129/1/2 126/1/2 130/1/2
f 127/1/2 128/1/2 131/1/2
f 131/1/2 128/1/2 132/1/2
f 129/5/2 130/5/2 133/5/2
f 133/5/2 130/5/2 134/5/2
f 131/5/2 132/5/2 135/5/2
f 135/5/2 132/5/2 136/5/2
f 139/2/3 138/2/3 137/2/3
f 140/2/3 138/2/3 139/2/3
f 149/5/3 142/5/3 141/5/3
f 150/1/3 143/1/3 142/1/3
f 150/5/3 142/5/3 149/5/3
f 151/5/3 144/5/3 143/5/3
f 151/1/3 143/1/3 150/1/3
f 152/1/3 145/1/3 144/1/3
f 152/5/3 144/5/3 151/5/3
f 153/5/3 146/5/3 145/5/3
f 153/1/3 145/1/3 152/1/3
f 154/1/3 147/1/3 146/1/3
f 154/5/3 146/5/3 153/5/3
f 155/5/3 148/5/3 147/5/3
f 155/1/3 147/1/3 154/1/3
f 156/5/3 148/5/3 155/5/3
f 165/5/3 158/5/3 157/5/3
f 166/1/3 159/1/3 158/1/3
f 166/5/3 158/5/3 165/5/3
f 167/5/3 160/5/3 159/5/3
f 167/1/3 159/1/3 166/1/3
f 168/1/3 161/1/3 160/1/3
f 168/5/3 160/5/3 167/5/3
f 169/5/3 162/5/3 161/5/3
f 169/1/3 161/1/3 168/1/3
f 170/1/3 163/1/3 162/1/3
f 170/5/3 162/5/3 169/5/3
f 171/5/3 164/5/3 163/5/3
f 171/1/3 163/1/3 170/1/3
f 172/5/3 164/5/3 171/5/3
f 181/5/3 174/5/3 173/5/3
f 182/1/3 175/1/3 174/1/3
f 182/5/3 174/5/3 181/5/3
f 183/5/3 176/5/3 175/5/3
f 183/1/3 175/1/3 182/1/3
f 184/1/3 177/1/3 176/1/3
f 184/5/3 176/5/3 183/5/3
f 185/5/3 178/5/3 177/5/3
f 185/1/3 177/1/3 184/1/3
f 186/1/3 179/1/3 178/1/3
f 186/5/3 178/5/3 185/5/3
f 187/5/3 180/5/3 179/5/3
f 187/1/3 179/1/3 186/1/3
f 188/5/3 180/5/3 187/5/3
f 197/5/3 190/5/3 189/5/3
f 198/1/3 191/1/3 190/1/3
f 198/5/3 190/5/3 197/5/3
f 199/5/3 192/5/3 191/5/3
f 199/1/3 191/1/3 198/1/3
f 200/1/3 193/1/3 192/1/3
f 200/5/3 192/5/3 199/5/3
f 201/5/3 194/5/3 193/5/3
f 201/1/3 193/1/3 200/1/3
f 202/1/3 195/1/3 194/1/3
f 202/5/3 194/5/3 201/5/3
f 203/5/3 196/5/3 195/5/3
f 203/1/3 195/1/3 202/1/3
f 204/5/3 196/5/3 203/5/3
f 205/5/4 206/5/4 213/5/4
f 206/1/4 207/1/4 214/1/4
f 213/5/4 206/5/4 214/5/4
f 207/5/4 208/5/4 215/5/4
f 214/1/4 207/1/4 215/1/4
f 208/1/4 209/1/4 216/1/4
f 215/5/4 208/5/4 216/5/4
f 209/5/4 210/5/4 217/5/4
f 216/1/4 209/1/4 217/1/4
f 210/1/4 211/1/4 218/1/4
f 217/5/4 210/5/4 218/5/4
f 211/5/4 212/5/4 219/5/4
f 218/1/4 211/1/4 219/1/4
f 219/5/4 212/5/4 220/5/4
f 221/5/4 222/5/4 229/5/4
f 222/1/4 223/1/4 230/1/4
f 229/5/4 222/5/4 230/5/4
f 223/5/4 224/5/4 231/5/4
f 230/1/4 223/1/4 231/1/4
f 224/1/4 225/1/4 232/1/4
f 231/5/4 224/5/4 232/5/4
f 225/5/4 226/5/4 233/5/4
f 232/1/4 225/1/4 233/1/4
f 226/1/4 227/1/4 234/1/4
f 233/5/4 226/5/4 234/5/4
f 227/5/4 228/5/4 235/5/4
f 234/1/4 227/1/4 235/1/4
f 235/5/4 228/5/4 236/5/4
f 237/1/4 238/1/4 246/1/4
f 238/5/4 239/5/4 246/5/4
f 239/1/4 240/1/4 247/1/4
f 246/5/4 239/5/4 247/5/4
f 240/5/4 241/5/4 248/5/4
f 247/1/4 240/1/4 248/1/4
f 241/1/4 242/1/4 249/1/4
f 248/5/4 241/5/4 249/5/4
f 242/5/4 243/5/4 250/5/4
f 249/1/4 242/1/4 250/1/4
f 243/1/4 244/1/4 251/1/4
f 250/5/4 243/5/4 251/5/4
f 244/5/4 245/5/4 252/5/4
f 251/1/4 244/1/4 252/1/4
f 252/5/4 245/5/4 253/5/4
f 237/1/4 246/1/4 254/1/4
f 237/1/4 254/1/4 262/1/4
f 254/5/4 255/5/4 263/5/4
f 262/1/4 254/1/4 263/1/4
f 255/1/4 256/1/4 264/1/4
f 263/5/4 255/5/4 264/5/4
f 256/5/4 257/5/4 265/5/4
f 264/1/4 256/1/4 265/1/4
f 257/1/4 258/1/4 266/1/4
f 265/5/4 257/5/4 266/5/4
f 258/5/4 259/5/4 267/5/4
f 266/1/4 258/1/4 267/1/4
f 259/1/4 260/1/4 268/1/4
f 267/5/4 259/5/4 268/5/4
f 260/5/4 261/5/4 269/5/4
f 268/1/4 260/1/4 269/1/4
f 269/5/4 261/5/4 270/5/4
f 273/2/5 272/2/5 271/2/5
f 274/2/5 272/2/5 273/2/5
f 275/1/5 274/1/5 273/1/5
f 276/1/5 274/1/5 275/1/5
f 277/1/5 274/1/5 276/1/5
f 278/1/5 274/1/5 277/1/5
f 279/1/5 274/1/5 278/1/5
f 280/1/5 274/1/5 279/1/5
f 281/1/5 277/1/5 276/1/5
f 281/3/5 278/3/5 277/3/5
f 282/1/5 279/1/5 278/1/5
f 282/3/5 278/3/5 281/3/5
f 283/1/5 275/1/5 273/1/5
f 283/3/5 276/3/5 275/3/5
f 284/1/5 282/1/5 281/1/5
f 284/3/5 276/3/5 283/3/5
f 284/1/5 281/1/5 276/1/5
f 285/1/5 279/1/5 282/1/5
f 285/1/5 282/1/5 284/1/5
f 285/3/5 280/3/5 279/3/5
f 286/1/5 274/1/5 280/1/5
f 286/3/5 280/3/5 285/3/5
f 287/1/5 284/1/5 283/1/5
f 287/1/5 283/1/5 273/1/5
f 287/1/5 286/1/5 285/1/5
f 287/1/5 285/1/5 284/1/5
f 288/1/5 286/1/5 287/1/5
f 289/1/5 286/1/5 288/1/5
f 290/1/5 274/1/5 286/1/5
f 290/1/5 286/1/5 289/1/5
f 291/1/5 287/1/5 273/1/5
f 291/3/5 288/3/5 287/3/5
f 292/1/5 289/1/5 288/1/5
f 292/3/5 288/3/5 291/3/5
f 293/3/5 290/3/5 289/3/5
f 293/1/5 289/1/5 292/1/5
f 294/1/5 274/1/5 290/1/5
f 294/3/5 290/3/5 293/3/5
f 295/1/5 291/1/5 273/1/5
f 295/4/5 292/4/5 291/4/5
f 296/1/5 293/1/5 292/1/5
f 296/4/5 292/4/5 295/4/5
f 297/1/5 293/1/5 296/1/5
f 298/1/5 293/1/5 297/1/5
f 299/4/5 294/4/5 293/4/5
f 299/1/5 293/1/5 298/1/5
f 300/1/5 274/1/5 294/1/5
f 300/4/5 294/4/5 299/4/5
f 301/3/5 296/3/5 295/3/5
f 301/4/5 297/4/5 296/4/5
f 302/1/5 298/1/5 297/1/5
f 302/4/5 297/4/5 301/4/5
f 303/4/5 299/4/5 298/4/5
f 303/1/5 298/1/5 302/1/5
f 304/3/5 300/3/5 299/3/5
f 304/4/5 299/4/5 303/4/5
f 305/1/5 302/1/5 301/1/5
f 305/3/5 301/3/5 295/3/5
f 306/4/5 303/4/5 302/4/5
f 306/1/5 302/1/5 305/1/5
f 307/1/5 304/1/5 303/1/5
f 307/4/5 303/4/5 306/4/5
f 308/3/5 300/3/5 304/3/5
f 308/1/5 304/1/5 307/1/5
f 309/1/5 295/1/5 273/1/5
f 309/3/5 305/3/5 295/3/5
f 310/4/5 306/4/5 305/4/5
f 310/3/5 305/3/5 309/3/5
f 311/1/5 307/1/5 306/1/5
f 311/4/5 306/4/5 310/4/5
f 312/4/5 308/4/5 307/4/5
f 312/1/5 307/1/5 311/1/5
f 313/3/5 300/3/5 308/3/5
f 313/4/5 308/4/5 312/4/5
f 314/1/5 274/1/5 300/1/5
f 314/3/5 300/3/5 313/3/5
f 315/4/5 310/4/5 309/4/5
f 315/1/5 309/1/5 273/1/5
f 316/1/5 312/1/5 311/1/5
f 316/4/5 310/4/5 315/4/5
f 316/1/5 313/1/5 312/1/5
f 316/1/5 311/1/5 310/1/5
f 317/4/5 314/4/5 313/4/5
f 317/1/5 313/1/5 316/1/5
f 318/1/5 274/1/5 314/1/5
f 318/4/5 314/4/5 317/4/5
f 319/1/5 315/1/5 273/1/5
f 319/3/5 316/3/5 315/3/5
f 320/1/5 317/1/5 316/1/5
f 320/3/5 316/3/5 319/3/5
f 321/3/5 318/3/5 317/3/5
f 321/1/5 317/1/5 320/1/5
f 322/1/5 274/1/5 318/1/5
f 322/3/5 318/3/5 321/3/5
f 323/1/5 319/1/5 273/1/5
f 323/1/5 321/1/5 320/1/5
f 323/1/5 322/1/5 321/1/5
f 323/1/5 320/1/5 319/1/5
f 324/1/5 322/1/5 323/1/5
f 325/1/5 322/1/5 324/1/5
f 326/1/5 274/1/5 322/1/5
f 326/1/5 322/1/5 325/1/5
f 327/1/5 325/1/5 324/1/5
f 328/1/5 325/1/5 327/1/5
f 329/1/5 323/1/5 273/1/5
f 329/3/5 324/3/5 323/3/5
f 330/1/5 327/1/5 324/1/5
f 330/3/5 324/3/5 329/3/5
f 331/3/5 328/3/5 327/3/5
f 331/1/5 327/1/5 330/1/5
f 332/1/5 325/1/5 328/1/5
f 332/3/5 328/3/5 331/3/5
f 333/3/5 326/3/5 325/3/5
f 333/1/5 325/1/5 332/1/5
f 334/1/5 274/1/5 326/1/5
f 334/3/5 326/3/5 333/3/5
f 335/1/5 333/1/5 332/1/5
f 335/1/5 331/1/5 330/1/5
f 335/1/5 334/1/5 333/1/5
f 335/1/5 329/1/5 273/1/5
f 335/1/5 332/1/5 331/1/5
f 335/1/5 330/1/5 329/1/5
f 336/1/5 274/1/5 334/1/5
f 336/1/5 334/1/5 335/1/5
f 337/2/6 338/2/6 339/2/6
f 339/2/6 338/2/6 340/2/6
f 340/2/6 338/2/6 341/2/6
f 341/2/6 338/2/6 342/2/6
f 340/1/6 341/1/6 344/1/6
f 344/1/6 341/1/6 345/1/6
f 343/1/6 344/1/6 347/1/6
f 345/1/6 346/1/6 347/1/6
f 344/1/6 345/1/6 347/1/6
f 347/1/6 346/1/6 348/1/6
f 348/1/6 346/1/6 349/1/6
f 349/1/6 346/1/6 350/1/6
f 350/1/6 346/1/6 351/1/6
f 351/1/6 346/1/6 352/1/6
f 348/1/6 349/1/6 353/1/6
f 349/3/6 350/3/6 353/3/6
f 350/1/6 351/1/6 354/1/6
f 353/3/6 350/3/6 354/3/6
f 343/1/6 347/1/6 355/1/6
f 347/3/6 348/3/6 355/3/6
f 353/1/6 354/1/6 356/1/6
f 355/3/6 348/3/6 356/3/6
f 348/1/6 353/1/6 356/1/6
f 354/1/6 351/1/6 357/1/6
f 356/1/6 354/1/6 357/1/6
f 351/3/6 352/3/6 357/3/6
f 352/1/6 346/1/6 358/1/6
f 357/3/6 352/3/6 358/3/6
f 355/1/6 356/1/6 359/1/6
f 343/1/6 355/1/6 359/1/6
f 357/1/6 358/1/6 359/1/6
f 356/1/6 357/1/6 359/1/6
f 359/1/6 358/1/6 360/1/6
f 360/1/6 358/1/6 361/1/6
f 358/1/6 346/1/6 362/1/6
f 361/1/6 358/1/6 362/1/6
f 343/1/6 359/1/6 363/1/6
f 359/3/6 360/3/6 363/3/6
f 360/1/6 361/1/6 364/1/6
f 363/3/6 360/3/6 364/3/6
f 361/3/6 362/3/6 365/3/6
f 364/1/6 361/1/6 365/1/6
f 362/1/6 346/1/6 366/1/6
f 365/3/6 362/3/6 366/3/6
f 343/1/6 363/1/6 367/1/6
f 363/4/6 364/4/6 367/4/6
f 364/1/6 365/1/6 368/1/6
f 367/4/6 364/4/6 368/4/6
f 368/1/6 365/1/6 369/1/6
f 369/1/6 365/1/6 370/1/6
f 365/4/6 366/4/6 371/4/6
f 370/1/6 365/1/6 371/1/6
f 366/1/6 346/1/6 372/1/6
f 371/4/6 366/4/6 372/4/6
f 367/3/6 368/3/6 373/3/6
f 368/4/6 369/4/6 373/4/6
f 369/1/6 370/1/6 374/1/6
f 373/4/6 369/4/6 374/4/6
f 370/4/6 371/4/6 375/4/6
f 374/1/6 370/1/6 375/1/6
f 371/3/6 372/3/6 376/3/6
f 375/4/6 371/4/6 376/4/6
f 373/1/6 374/1/6 377/1/6
f 367/3/6 373/3/6 377/3/6
f 374/4/6 375/4/6 378/4/6
f 377/1/6 374/1/6 378/1/6
f 375/1/6 376/1/6 379/1/6
f 378/4/6 375/4/6 379/4/6
f 376/3/6 372/3/6 380/3/6
f 379/1/6 376/1/6 380/1/6
f 343/1/6 367/1/6 381/1/6
f 367/3/6 377/3/6 381/3/6
f 377/4/6 378/4/6 382/4/6
f 381/3/6 377/3/6 382/3/6
f 378/1/6 379/1/6 383/1/6
f 382/4/6 378/4/6 383/4/6
f 379/4/6 380/4/6 384/4/6
f 383/1/6 379/1/6 384/1/6
f 380/3/6 372/3/6 385/3/6
f 384/4/6 380/4/6 385/4/6
f 372/1/6 346/1/6 386/1/6
f 385/3/6 372/3/6 386/3/6
f 381/4/6 382/4/6 387/4/6
f 343/1/6 381/1/6 387/1/6
f 383/1/6 384/1/6 388/1/6
f 387/4/6 382/4/6 388/4/6
f 384/1/6 385/1/6 388/1/6
f 382/1/6 383/1/6 388/1/6
f 385/4/6 386/4/6 389/4/6
f 388/1/6 385/1/6 389/1/6
f 386/1/6 346/1/6 390/1/6
f 389/4/6 386/4/6 390/4/6
f 343/1/6 387/1/6 391/1/6
f 387/3/6 388/3/6 391/3/6
f 388/1/6 389/1/6 392/1/6
f 391/3/6 388/3/6 392/3/6
f 389/3/6 390/3/6 393/3/6
f 392/1/6 389/1/6 393/1/6
f 390/1/6 346/1/6 394/1/6
f 393/3/6 390/3/6 394/3/6
f 343/1/6 391/1/6 395/1/6
f 392/1/6 393/1/6 395/1/6
f 393/1/6 394/1/6 395/1/6
f 391/1/6 392/1/6 395/1/6
f 395/1/6 394/1/6 396/1/6
f 396/1/6 394/1/6 397/1/6
f 394/1/6 346/1/6 398/1/6
f 397/1/6 394/1/6 398/1/6
f 396/1/6 397/1/6 399/1/6
f 399/1/6 397/1/6 400/1/6
f 343/1/6 395/1/6 401/1/6
f 395/3/6 396/3/6 401/3/6
f 396/1/6 399/1/6 402/1/6
f 401/3/6 396/3/6 402/3/6
f 399/3/6 400/3/6 403/3/6
f 402/1/6 399/1/6 403/1/6
f 400/1/6 397/1/6 404/1/6
f 403/3/6 400/3/6 404/3/6
f 397/3/6 398/3/6 405/3/6
f 404/1/6 397/1/6 405/1/6
f 398/1/6 346/1/6 406/1/6
f 405/3/6 398/3/6 406/3/6
f 404/1/6 405/1/6 407/1/6
f 402/1/6 403/1/6 407/1/6
f 405/1/6 406/1/6 407/1/6
f 343/1/6 401/1/6 407/1/6
f 403/1/6 404/1/6 407/1/6
f 401/1/6 402/1/6 407/1/6
f 407/1/6 406/1/6 408/1/6
f 406/1/6 346/1/6 409/1/6
f 408/1/6 406/1/6 409/1/6
f 409/1/6 346/1/6 410/1/6
f 408/1/6 409/1/6 411/1/6
f 411/1/6 409/1/6 412/1/6
f 413/5/6 414/5/6 417/5/6
f 417/5/6 414/5/6 418/5/6
f 415/5/6 416/5/6 419/5/6
f 419/5/6 416/5/6 420/5/6
f 421/5/6 422/5/6 425/5/6
f 425/5/6 422/5/6 426/5/6
f 423/5/6 424/5/6 427/5/6
f 427/5/6 424/5/6 428/5/6
