# MagicaVoxel @ Ephtracy

# material
mtllib 3.mtl
usemtl palette

# normals
vn -1 0 0
vn 1 0 0
vn 0 0 1
vn 0 0 -1
vn 0 -1 0
vn 0 1 0

# texcoords
vt 0.306641 0.5
vt 0.970703 0.5
vt 0.974609 0.5
vt 0.978516 0.5
vt 0.990234 0.5

# verts
v -5 0 12.5
v -5 0 7.5
v -5 0 -12.5
v -5 1 12.5
v -5 1 7.5
v -5 1 6.5
v -5 1 -11.5
v -5 1 -12.5
v -5 2 7.5
v -5 2 6.5
v -5 2 -11.5
v -5 2 -12.5
v -5 3 7.5
v -5 3 6.5
v -5 3 -11.5
v -5 3 -12.5
v -5 4 7.5
v -5 4 6.5
v -5 4 -11.5
v -5 4 -12.5
v -5 5 7.5
v -5 5 6.5
v -5 5 -11.5
v -5 5 -12.5
v -5 6 7.5
v -5 6 6.5
v -5 6 -11.5
v -5 6 -12.5
v -5 7 7.5
v -5 7 6.5
v -5 7 -11.5
v -5 7 -12.5
v -5 8 7.5
v -5 8 6.5
v -5 8 -11.5
v -5 8 -12.5
v -5 10 7.5
v -5 10 -12.5
v 4 1 7.5
v 4 1 6.5
v 4 1 -11.5
v 4 1 -12.5
v 4 2 7.5
v 4 2 6.5
v 4 2 -11.5
v 4 2 -12.5
v 4 3 7.5
v 4 3 6.5
v 4 3 -11.5
v 4 3 -12.5
v 4 4 7.5
v 4 4 6.5
v 4 4 -11.5
v 4 4 -12.5
v 4 5 7.5
v 4 5 6.5
v 4 5 -11.5
v 4 5 -12.5
v 4 6 7.5
v 4 6 6.5
v 4 6 -11.5
v 4 6 -12.5
v 4 7 7.5
v 4 7 6.5
v 4 7 -11.5
v 4 7 -12.5
v 4 8 7.5
v 4 8 6.5
v 4 8 -11.5
v 4 8 -12.5
v 4 9 7.5
v 4 9 -12.5
v -4 1 7.5
v -4 1 6.5
v -4 1 -11.5
v -4 1 -12.5
v -4 2 7.5
v -4 2 6.5
v -4 2 -11.5
v -4 2 -12.5
v -4 3 7.5
v -4 3 6.5
v -4 3 -11.5
v -4 3 -12.5
v -4 4 7.5
v -4 4 6.5
v -4 4 -11.5
v -4 4 -12.5
v -4 5 7.5
v -4 5 6.5
v -4 5 -11.5
v -4 5 -12.5
v -4 6 7.5
v -4 6 6.5
v -4 6 -11.5
v -4 6 -12.5
v -4 7 7.5
v -4 7 6.5
v -4 7 -11.5
v -4 7 -12.5
v -4 8 7.5
v -4 8 6.5
v -4 8 -11.5
v -4 8 -12.5
v -4 9 7.5
v -4 9 -12.5
v 5 0 12.5
v 5 0 7.5
v 5 0 -12.5
v 5 1 12.5
v 5 1 7.5
v 5 1 6.5
v 5 1 -11.5
v 5 1 -12.5
v 5 2 7.5
v 5 2 6.5
v 5 2 -11.5
v 5 2 -12.5
v 5 3 7.5
v 5 3 6.5
v 5 3 -11.5
v 5 3 -12.5
v 5 4 7.5
v 5 4 6.5
v 5 4 -11.5
v 5 4 -12.5
v 5 5 7.5
v 5 5 6.5
v 5 5 -11.5
v 5 5 -12.5
v 5 6 7.5
v 5 6 6.5
v 5 6 -11.5
v 5 6 -12.5
v 5 7 7.5
v 5 7 6.5
v 5 7 -11.5
v 5 7 -12.5
v 5 8 7.5
v 5 8 6.5
v 5 8 -11.5
v 5 8 -12.5
v 5 10 7.5
v 5 10 -12.5
v -5 0 12.5
v -5 1 12.5
v 5 0 12.5
v 5 1 12.5
v -5 1 7.5
v -5 2 7.5
v -5 3 7.5
v -5 4 7.5
v -5 5 7.5
v -5 6 7.5
v -5 7 7.5
v -5 8 7.5
v -5 10 7.5
v -4 1 7.5
v -4 2 7.5
v -4 3 7.5
v -4 4 7.5
v -4 5 7.5
v -4 6 7.5
v -4 7 7.5
v -4 8 7.5
v -4 9 7.5
v 4 1 7.5
v 4 2 7.5
v 4 3 7.5
v 4 4 7.5
v 4 5 7.5
v 4 6 7.5
v 4 7 7.5
v 4 8 7.5
v 4 9 7.5
v 5 1 7.5
v 5 2 7.5
v 5 3 7.5
v 5 4 7.5
v 5 5 7.5
v 5 6 7.5
v 5 7 7.5
v 5 8 7.5
v 5 10 7.5
v -5 1 -11.5
v -5 2 -11.5
v -5 3 -11.5
v -5 4 -11.5
v -5 5 -11.5
v -5 6 -11.5
v -5 7 -11.5
v -5 8 -11.5
v -4 1 -11.5
v -4 2 -11.5
v -4 3 -11.5
v -4 4 -11.5
v -4 5 -11.5
v -4 6 -11.5
v -4 7 -11.5
v -4 8 -11.5
v 4 1 -11.5
v 4 2 -11.5
v 4 3 -11.5
v 4 4 -11.5
v 4 5 -11.5
v 4 6 -11.5
v 4 7 -11.5
v 4 8 -11.5
v 5 1 -11.5
v 5 2 -11.5
v 5 3 -11.5
v 5 4 -11.5
v 5 5 -11.5
v 5 6 -11.5
v 5 7 -11.5
v 5 8 -11.5
v -5 1 6.5
v -5 2 6.5
v -5 3 6.5
v -5 4 6.5
v -5 5 6.5
v -5 6 6.5
v -5 7 6.5
v -5 8 6.5
v -4 1 6.5
v -4 2 6.5
v -4 3 6.5
v -4 4 6.5
v -4 5 6.5
v -4 6 6.5
v -4 7 6.5
v -4 8 6.5
v 4 1 6.5
v 4 2 6.5
v 4 3 6.5
v 4 4 6.5
v 4 5 6.5
v 4 6 6.5
v 4 7 6.5
v 4 8 6.5
v 5 1 6.5
v 5 2 6.5
v 5 3 6.5
v 5 4 6.5
v 5 5 6.5
v 5 6 6.5
v 5 7 6.5
v 5 8 6.5
v -5 0 -12.5
v -5 1 -12.5
v -5 2 -12.5
v -5 3 -12.5
v -5 4 -12.5
v -5 5 -12.5
v -5 6 -12.5
v -5 7 -12.5
v -5 8 -12.5
v -5 10 -12.5
v -4 1 -12.5
v -4 2 -12.5
v -4 3 -12.5
v -4 4 -12.5
v -4 5 -12.5
v -4 6 -12.5
v -4 7 -12.5
v -4 8 -12.5
v -4 9 -12.5
v 4 1 -12.5
v 4 2 -12.5
v 4 3 -12.5
v 4 4 -12.5
v 4 5 -12.5
v 4 6 -12.5
v 4 7 -12.5
v 4 8 -12.5
v 4 9 -12.5
v 5 0 -12.5
v 5 1 -12.5
v 5 2 -12.5
v 5 3 -12.5
v 5 4 -12.5
v 5 5 -12.5
v 5 6 -12.5
v 5 7 -12.5
v 5 8 -12.5
v 5 10 -12.5
v -5 0 12.5
v 5 0 12.5
v -5 0 7.5
v 5 0 7.5
v -3 0 5.5
v -2 0 5.5
v -1 0 5.5
v 1 0 5.5
v 2 0 5.5
v 3 0 5.5
v -1 0 4.5
v 1 0 4.5
v -3 0 3.5
v -2 0 3.5
v 2 0 3.5
v 3 0 3.5
v -3 0 2.5
v -2 0 2.5
v 2 0 2.5
v 3 0 2.5
v -3 0 0.5
v -2 0 0.5
v 2 0 0.5
v 3 0 0.5
v -3 0 -0.5
v -2 0 -0.5
v -1 0 -0.5
v 1 0 -0.5
v 2 0 -0.5
v 3 0 -0.5
v -2 0 -1.5
v -1 0 -1.5
v 1 0 -1.5
v 2 0 -1.5
v -2 0 -3.5
v -1 0 -3.5
v 1 0 -3.5
v 2 0 -3.5
v -3 0 -4.5
v -2 0 -4.5
v -1 0 -4.5
v 1 0 -4.5
v 2 0 -4.5
v 3 0 -4.5
v -3 0 -5.5
v -2 0 -5.5
v 2 0 -5.5
v 3 0 -5.5
v -3 0 -7.5
v -2 0 -7.5
v 2 0 -7.5
v 3 0 -7.5
v -3 0 -8.5
v -2 0 -8.5
v 2 0 -8.5
v 3 0 -8.5
v -1 0 -9.5
v 1 0 -9.5
v -3 0 -10.5
v -2 0 -10.5
v -1 0 -10.5
v 1 0 -10.5
v 2 0 -10.5
v 3 0 -10.5
v -5 0 -12.5
v 5 0 -12.5
v -5 8 6.5
v -4 8 6.5
v 4 8 6.5
v 5 8 6.5
v -5 8 -11.5
v -4 8 -11.5
v 4 8 -11.5
v 5 8 -11.5
v -4 9 7.5
v 4 9 7.5
v -4 9 -12.5
v 4 9 -12.5
v -5 1 12.5
v 5 1 12.5
v -5 1 7.5
v -4 1 7.5
v 4 1 7.5
v 5 1 7.5
v -5 1 6.5
v -4 1 6.5
v 4 1 6.5
v 5 1 6.5
v -3 1 5.5
v -2 1 5.5
v -1 1 5.5
v 1 1 5.5
v 2 1 5.5
v 3 1 5.5
v -1 1 4.5
v 1 1 4.5
v -3 1 3.5
v -2 1 3.5
v 2 1 3.5
v 3 1 3.5
v -3 1 2.5
v -2 1 2.5
v 2 1 2.5
v 3 1 2.5
v -3 1 0.5
v -2 1 0.5
v 2 1 0.5
v 3 1 0.5
v -3 1 -0.5
v -2 1 -0.5
v -1 1 -0.5
v 1 1 -0.5
v 2 1 -0.5
v 3 1 -0.5
v -2 1 -1.5
v -1 1 -1.5
v 1 1 -1.5
v 2 1 -1.5
v -2 1 -3.5
v -1 1 -3.5
v 1 1 -3.5
v 2 1 -3.5
v -3 1 -4.5
v -2 1 -4.5
v -1 1 -4.5
v 1 1 -4.5
v 2 1 -4.5
v 3 1 -4.5
v -3 1 -5.5
v -2 1 -5.5
v 2 1 -5.5
v 3 1 -5.5
v -3 1 -7.5
v -2 1 -7.5
v 2 1 -7.5
v 3 1 -7.5
v -3 1 -8.5
v -2 1 -8.5
v 2 1 -8.5
v 3 1 -8.5
v -1 1 -9.5
v 1 1 -9.5
v -3 1 -10.5
v -2 1 -10.5
v -1 1 -10.5
v 1 1 -10.5
v 2 1 -10.5
v 3 1 -10.5
v -5 1 -11.5
v -4 1 -11.5
v 4 1 -11.5
v 5 1 -11.5
v -4 1 -12.5
v 4 1 -12.5
v -5 10 7.5
v 5 10 7.5
v -5 10 -12.5
v 5 10 -12.5

# faces
f 4/2/1 2/2/1 1/2/1
f 5/1/1 3/1/1 2/1/1
f 5/2/1 2/2/1 4/2/1
f 6/1/1 3/1/1 5/1/1
f 7/1/1 3/1/1 6/1/1
f 8/1/1 3/1/1 7/1/1
f 9/5/1 6/5/1 5/5/1
f 10/5/1 6/5/1 9/5/1
f 11/5/1 8/5/1 7/5/1
f 12/5/1 8/5/1 11/5/1
f 13/1/1 10/1/1 9/1/1
f 14/1/1 10/1/1 13/1/1
f 15/1/1 12/1/1 11/1/1
f 16/1/1 12/1/1 15/1/1
f 17/5/1 14/5/1 13/5/1
f 18/5/1 14/5/1 17/5/1
f 19/5/1 16/5/1 15/5/1
f 20/5/1 16/5/1 19/5/1
f 21/1/1 18/1/1 17/1/1
f 22/1/1 18/1/1 21/1/1
f 23/1/1 20/1/1 19/1/1
f 24/1/1 20/1/1 23/1/1
f 25/5/1 22/5/1 21/5/1
f 26/5/1 22/5/1 25/5/1
f 27/5/1 24/5/1 23/5/1
f 28/5/1 24/5/1 27/5/1
f 29/1/1 26/1/1 25/1/1
f 30/1/1 26/1/1 29/1/1
f 31/1/1 28/1/1 27/1/1
f 32/1/1 28/1/1 31/1/1
f 33/5/1 30/5/1 29/5/1
f 34/5/1 30/5/1 33/5/1
f 35/5/1 32/5/1 31/5/1
f 36/5/1 32/5/1 35/5/1
f 37/1/1 34/1/1 33/1/1
f 37/1/1 35/1/1 34/1/1
f 37/1/1 36/1/1 35/1/1
f 38/1/1 36/1/1 37/1/1
f 43/5/1 40/5/1 39/5/1
f 44/5/1 40/5/1 43/5/1
f 45/5/1 42/5/1 41/5/1
f 46/5/1 42/5/1 45/5/1
f 47/1/1 44/1/1 43/1/1
f 48/1/1 44/1/1 47/1/1
f 49/1/1 46/1/1 45/1/1
f 50/1/1 46/1/1 49/1/1
f 51/5/1 48/5/1 47/5/1
f 52/5/1 48/5/1 51/5/1
f 53/5/1 50/5/1 49/5/1
f 54/5/1 50/5/1 53/5/1
f 55/1/1 52/1/1 51/1/1
f 56/1/1 52/1/1 55/1/1
f 57/1/1 54/1/1 53/1/1
f 58/1/1 54/1/1 57/1/1
f 59/5/1 56/5/1 55/5/1
f 60/5/1 56/5/1 59/5/1
f 61/5/1 58/5/1 57/5/1
f 62/5/1 58/5/1 61/5/1
f 63/1/1 60/1/1 59/1/1
f 64/1/1 60/1/1 63/1/1
f 65/1/1 62/1/1 61/1/1
f 66/1/1 62/1/1 65/1/1
f 67/5/1 64/5/1 63/5/1
f 68/5/1 64/5/1 67/5/1
f 69/5/1 66/5/1 65/5/1
f 70/5/1 66/5/1 69/5/1
f 71/1/1 68/1/1 67/1/1
f 71/1/1 69/1/1 68/1/1
f 71/1/1 70/1/1 69/1/1
f 72/1/1 70/1/1 71/1/1
f 73/5/2 74/5/2 77/5/2
f 77/5/2 74/5/2 78/5/2
f 75/5/2 76/5/2 79/5/2
f 79/5/2 76/5/2 80/5/2
f 77/1/2 78/1/2 81/1/2
f 81/1/2 78/1/2 82/1/2
f 79/1/2 80/1/2 83/1/2
f 83/1/2 80/1/2 84/1/2
f 81/5/2 82/5/2 85/5/2
f 85/5/2 82/5/2 86/5/2
f 83/5/2 84/5/2 87/5/2
f 87/5/2 84/5/2 88/5/2
f 85/1/2 86/1/2 89/1/2
f 89/1/2 86/1/2 90/1/2
f 87/1/2 88/1/2 91/1/2
f 91/1/2 88/1/2 92/1/2
f 89/5/2 90/5/2 93/5/2
f 93/5/2 90/5/2 94/5/2
f 91/5/2 92/5/2 95/5/2
f 95/5/2 92/5/2 96/5/2
f 93/1/2 94/1/2 97/1/2
f 97/1/2 94/1/2 98/1/2
f 95/1/2 96/1/2 99/1/2
f 99/1/2 96/1/2 100/1/2
f 97/5/2 98/5/2 101/5/2
f 101/5/2 98/5/2 102/5/2
f 99/5/2 100/5/2 103/5/2
f 103/5/2 100/5/2 104/5/2
f 101/1/2 102/1/2 105/1/2
f 102/1/2 103/1/2 105/1/2
f 103/1/2 104/1/2 105/1/2
f 105/1/2 104/1/2 106/1/2
f 107/2/2 108/2/2 110/2/2
f 108/1/2 109/1/2 111/1/2
f 110/2/2 108/2/2 111/2/2
f 111/1/2 109/1/2 112/1/2
f 112/1/2 109/1/2 113/1/2
f 113/1/2 109/1/2 114/1/2
f 111/5/2 112/5/2 115/5/2
f 115/5/2 112/5/2 116/5/2
f 113/5/2 114/5/2 117/5/2
f 117/5/2 114/5/2 118/5/2
f 115/1/2 116/1/2 119/1/2
f 119/1/2 116/1/2 120/1/2
f 117/1/2 118/1/2 121/1/2
f 121/1/2 118/1/2 122/1/2
f 119/5/2 120/5/2 123/5/2
f 123/5/2 120/5/2 124/5/2
f 121/5/2 122/5/2 125/5/2
f 125/5/2 122/5/2 126/5/2
f 123/1/2 124/1/2 127/1/2
f 127/1/2 124/1/2 128/1/2
f 125/1/2 126/1/2 129/1/2
f 129/1/2 126/1/2 130/1/2
f 127/5/2 128/5/2 131/5/2
f 131/5/2 128/5/2 132/5/2
f 129/5/2 130/5/2 133/5/2
f 133/5/2 130/5/2 134/5/2
f 131/1/2 132/1/2 135/1/2
f 135/1/2 132/1/2 136/1/2
f 133/1/2 134/1/2 137/1/2
f 137/1/2 134/1/2 138/1/2
f 135/5/2 136/5/2 139/5/2
f 139/5/2 136/5/2 140/5/2
f 137/5/2 138/5/2 141/5/2
f 141/5/2 138/5/2 142/5/2
f 139/1/2 140/1/2 143/1/2
f 140/1/2 141/1/2 143/1/2
f 141/1/2 142/1/2 143/1/2
f 143/1/2 142/1/2 144/1/2
f 147/2/3 146/2/3 145/2/3
f 148/2/3 146/2/3 147/2/3
f 158/5/3 150/5/3 149/5/3
f 159/1/3 151/1/3 150/1/3
f 159/5/3 150/5/3 158/5/3
f 160/5/3 152/5/3 151/5/3
f 160/1/3 151/1/3 159/1/3
f 161/1/3 153/1/3 152/1/3
f 161/5/3 152/5/3 160/5/3
f 162/5/3 154/5/3 153/5/3
f 162/1/3 153/1/3 161/1/3
f 163/1/3 155/1/3 154/1/3
f 163/5/3 154/5/3 162/5/3
f 164/5/3 156/5/3 155/5/3
f 164/1/3 155/1/3 163/1/3
f 165/1/3 157/1/3 156/1/3
f 165/5/3 156/5/3 164/5/3
f 166/1/3 157/1/3 165/1/3
f 175/1/3 157/1/3 166/1/3
f 176/5/3 168/5/3 167/5/3
f 177/1/3 169/1/3 168/1/3
f 177/5/3 168/5/3 176/5/3
f 178/5/3 170/5/3 169/5/3
f 178/1/3 169/1/3 177/1/3
f 179/1/3 171/1/3 170/1/3
f 179/5/3 170/5/3 178/5/3
f 180/5/3 172/5/3 171/5/3
f 180/1/3 171/1/3 179/1/3
f 181/1/3 173/1/3 172/1/3
f 181/5/3 172/5/3 180/5/3
f 182/5/3 174/5/3 173/5/3
f 182/1/3 173/1/3 181/1/3
f 183/1/3 175/1/3 174/1/3
f 183/5/3 174/5/3 182/5/3
f 184/1/3 157/1/3 175/1/3
f 184/1/3 175/1/3 183/1/3
f 193/5/3 186/5/3 185/5/3
f 194/1/3 187/1/3 186/1/3
f 194/5/3 186/5/3 193/5/3
f 195/5/3 188/5/3 187/5/3
f 195/1/3 187/1/3 194/1/3
f 196/1/3 189/1/3 188/1/3
f 196/5/3 188/5/3 195/5/3
f 197/5/3 190/5/3 189/5/3
f 197/1/3 189/1/3 196/1/3
f 198/1/3 191/1/3 190/1/3
f 198/5/3 190/5/3 197/5/3
f 199/5/3 192/5/3 191/5/3
f 199/1/3 191/1/3 198/1/3
f 200/5/3 192/5/3 199/5/3
f 209/5/3 202/5/3 201/5/3
f 210/1/3 203/1/3 202/1/3
f 210/5/3 202/5/3 209/5/3
f 211/5/3 204/5/3 203/5/3
f 211/1/3 203/1/3 210/1/3
f 212/1/3 205/1/3 204/1/3
f 212/5/3 204/5/3 211/5/3
f 213/5/3 206/5/3 205/5/3
f 213/1/3 205/1/3 212/1/3
f 214/1/3 207/1/3 206/1/3
f 214/5/3 206/5/3 213/5/3
f 215/5/3 208/5/3 207/5/3
f 215/1/3 207/1/3 214/1/3
f 216/5/3 208/5/3 215/5/3
f 217/5/4 218/5/4 225/5/4
f 218/1/4 219/1/4 226/1/4
f 225/5/4 218/5/4 226/5/4
f 219/5/4 220/5/4 227/5/4
f 226/1/4 219/1/4 227/1/4
f 220/1/4 221/1/4 228/1/4
f 227/5/4 220/5/4 228/5/4
f 221/5/4 222/5/4 229/5/4
f 228/1/4 221/1/4 229/1/4
f 222/1/4 223/1/4 230/1/4
f 229/5/4 222/5/4 230/5/4
f 223/5/4 224/5/4 231/5/4
f 230/1/4 223/1/4 231/1/4
f 231/5/4 224/5/4 232/5/4
f 233/5/4 234/5/4 241/5/4
f 234/1/4 235/1/4 242/1/4
f 241/5/4 234/5/4 242/5/4
f 235/5/4 236/5/4 243/5/4
f 242/1/4 235/1/4 243/1/4
f 236/1/4 237/1/4 244/1/4
f 243/5/4 236/5/4 244/5/4
f 237/5/4 238/5/4 245/5/4
f 244/1/4 237/1/4 245/1/4
f 238/1/4 239/1/4 246/1/4
f 245/5/4 238/5/4 246/5/4
f 239/5/4 240/5/4 247/5/4
f 246/1/4 239/1/4 247/1/4
f 247/5/4 240/5/4 248/5/4
f 249/1/4 250/1/4 259/1/4
f 250/5/4 251/5/4 259/5/4
f 251/1/4 252/1/4 260/1/4
f 259/5/4 251/5/4 260/5/4
f 252/5/4 253/5/4 261/5/4
f 260/1/4 252/1/4 261/1/4
f 253/1/4 254/1/4 262/1/4
f 261/5/4 253/5/4 262/5/4
f 254/5/4 255/5/4 263/5/4
f 262/1/4 254/1/4 263/1/4
f 255/1/4 256/1/4 264/1/4
f 263/5/4 255/5/4 264/5/4
f 256/5/4 257/5/4 265/5/4
f 264/1/4 256/1/4 265/1/4
f 257/1/4 258/1/4 266/1/4
f 265/5/4 257/5/4 266/5/4
f 266/1/4 258/1/4 267/1/4
f 249/1/4 259/1/4 268/1/4
f 267/1/4 258/1/4 276/1/4
f 249/1/4 268/1/4 277/1/4
f 268/5/4 269/5/4 278/5/4
f 277/1/4 268/1/4 278/1/4
f 269/1/4 270/1/4 279/1/4
f 278/5/4 269/5/4 279/5/4
f 270/5/4 271/5/4 280/5/4
f 279/1/4 270/1/4 280/1/4
f 271/1/4 272/1/4 281/1/4
f 280/5/4 271/5/4 281/5/4
f 272/5/4 273/5/4 282/5/4
f 281/1/4 272/1/4 282/1/4
f 273/1/4 274/1/4 283/1/4
f 282/5/4 273/5/4 283/5/4
f 274/5/4 275/5/4 284/5/4
f 283/1/4 274/1/4 284/1/4
f 275/1/4 276/1/4 285/1/4
f 284/5/4 275/5/4 285/5/4
f 276/1/4 258/1/4 286/1/4
f 285/1/4 276/1/4 286/1/4
f 289/2/5 288/2/5 287/2/5
f 290/2/5 288/2/5 289/2/5
f 291/1/5 290/1/5 289/1/5
f 292/1/5 290/1/5 291/1/5
f 293/1/5 290/1/5 292/1/5
f 294/1/5 290/1/5 293/1/5
f 295/1/5 290/1/5 294/1/5
f 296/1/5 290/1/5 295/1/5
f 297/1/5 293/1/5 292/1/5
f 297/3/5 294/3/5 293/3/5
f 298/1/5 295/1/5 294/1/5
f 298/3/5 294/3/5 297/3/5
f 299/1/5 291/1/5 289/1/5
f 299/3/5 292/3/5 291/3/5
f 300/1/5 298/1/5 297/1/5
f 300/3/5 292/3/5 299/3/5
f 300/1/5 297/1/5 292/1/5
f 301/1/5 295/1/5 298/1/5
f 301/1/5 298/1/5 300/1/5
f 301/3/5 296/3/5 295/3/5
f 302/1/5 290/1/5 296/1/5
f 302/3/5 296/3/5 301/3/5
f 303/1/5 300/1/5 299/1/5
f 303/1/5 299/1/5 289/1/5
f 303/1/5 302/1/5 301/1/5
f 303/1/5 301/1/5 300/1/5
f 304/1/5 302/1/5 303/1/5
f 305/1/5 302/1/5 304/1/5
f 306/1/5 290/1/5 302/1/5
f 306/1/5 302/1/5 305/1/5
f 307/1/5 303/1/5 289/1/5
f 307/3/5 304/3/5 303/3/5
f 308/1/5 305/1/5 304/1/5
f 308/3/5 304/3/5 307/3/5
f 309/3/5 306/3/5 305/3/5
f 309/1/5 305/1/5 308/1/5
f 310/1/5 290/1/5 306/1/5
f 310/3/5 306/3/5 309/3/5
f 311/1/5 307/1/5 289/1/5
f 311/4/5 308/4/5 307/4/5
f 312/1/5 309/1/5 308/1/5
f 312/4/5 308/4/5 311/4/5
f 313/1/5 309/1/5 312/1/5
f 314/1/5 309/1/5 313/1/5
f 315/4/5 310/4/5 309/4/5
f 315/1/5 309/1/5 314/1/5
f 316/1/5 290/1/5 310/1/5
f 316/4/5 310/4/5 315/4/5
f 317/3/5 312/3/5 311/3/5
f 317/4/5 313/4/5 312/4/5
f 318/1/5 314/1/5 313/1/5
f 318/4/5 313/4/5 317/4/5
f 319/4/5 315/4/5 314/4/5
f 319/1/5 314/1/5 318/1/5
f 320/3/5 316/3/5 315/3/5
f 320/4/5 315/4/5 319/4/5
f 321/1/5 318/1/5 317/1/5
f 321/3/5 317/3/5 311/3/5
f 322/4/5 319/4/5 318/4/5
f 322/1/5 318/1/5 321/1/5
f 323/1/5 320/1/5 319/1/5
f 323/4/5 319/4/5 322/4/5
f 324/3/5 316/3/5 320/3/5
f 324/1/5 320/1/5 323/1/5
f 325/1/5 311/1/5 289/1/5
f 325/3/5 321/3/5 311/3/5
f 326/4/5 322/4/5 321/4/5
f 326/3/5 321/3/5 325/3/5
f 327/1/5 323/1/5 322/1/5
f 327/4/5 322/4/5 326/4/5
f 328/4/5 324/4/5 323/4/5
f 328/1/5 323/1/5 327/1/5
f 329/3/5 316/3/5 324/3/5
f 329/4/5 324/4/5 328/4/5
f 330/1/5 290/1/5 316/1/5
f 330/3/5 316/3/5 329/3/5
f 331/4/5 326/4/5 325/4/5
f 331/1/5 325/1/5 289/1/5
f 332/1/5 328/1/5 327/1/5
f 332/4/5 326/4/5 331/4/5
f 332/1/5 329/1/5 328/1/5
f 332/1/5 327/1/5 326/1/5
f 333/4/5 330/4/5 329/4/5
f 333/1/5 329/1/5 332/1/5
f 334/1/5 290/1/5 330/1/5
f 334/4/5 330/4/5 333/4/5
f 335/1/5 331/1/5 289/1/5
f 335/3/5 332/3/5 331/3/5
f 336/1/5 333/1/5 332/1/5
f 336/3/5 332/3/5 335/3/5
f 337/3/5 334/3/5 333/3/5
f 337/1/5 333/1/5 336/1/5
f 338/1/5 290/1/5 334/1/5
f 338/3/5 334/3/5 337/3/5
f 339/1/5 335/1/5 289/1/5
f 339/1/5 337/1/5 336/1/5
f 339/1/5 338/1/5 337/1/5
f 339/1/5 336/1/5 335/1/5
f 340/1/5 338/1/5 339/1/5
f 341/1/5 338/1/5 340/1/5
f 342/1/5 290/1/5 338/1/5
f 342/1/5 338/1/5 341/1/5
f 343/1/5 341/1/5 340/1/5
f 344/1/5 341/1/5 343/1/5
f 345/1/5 339/1/5 289/1/5
f 345/3/5 340/3/5 339/3/5
f 346/1/5 343/1/5 340/1/5
f 346/3/5 340/3/5 345/3/5
f 347/3/5 344/3/5 343/3/5
f 347/1/5 343/1/5 346/1/5
f 348/1/5 341/1/5 344/1/5
f 348/3/5 344/3/5 347/3/5
f 349/3/5 342/3/5 341/3/5
f 349/1/5 341/1/5 348/1/5
f 350/1/5 290/1/5 342/1/5
f 350/3/5 342/3/5 349/3/5
f 351/1/5 349/1/5 348/1/5
f 351/1/5 347/1/5 346/1/5
f 351/1/5 350/1/5 349/1/5
f 351/1/5 345/1/5 289/1/5
f 351/1/5 348/1/5 347/1/5
f 351/1/5 346/1/5 345/1/5
f 352/1/5 290/1/5 350/1/5
f 352/1/5 350/1/5 351/1/5
f 357/1/5 354/1/5 353/1/5
f 358/1/5 354/1/5 357/1/5
f 359/1/5 356/1/5 355/1/5
f 360/1/5 356/1/5 359/1/5
f 363/1/5 362/1/5 361/1/5
f 364/1/5 362/1/5 363/1/5
f 365/2/6 366/2/6 367/2/6
f 367/2/6 366/2/6 368/2/6
f 368/2/6 366/2/6 369/2/6
f 369/2/6 366/2/6 370/2/6
f 368/1/6 369/1/6 372/1/6
f 372/1/6 369/1/6 373/1/6
f 371/1/6 372/1/6 375/1/6
f 373/1/6 374/1/6 375/1/6
f 372/1/6 373/1/6 375/1/6
f 375/1/6 374/1/6 376/1/6
f 376/1/6 374/1/6 377/1/6
f 377/1/6 374/1/6 378/1/6
f 378/1/6 374/1/6 379/1/6
f 379/1/6 374/1/6 380/1/6
f 376/1/6 377/1/6 381/1/6
f 377/3/6 378/3/6 381/3/6
f 378/1/6 379/1/6 382/1/6
f 381/3/6 378/3/6 382/3/6
f 371/1/6 375/1/6 383/1/6
f 375/3/6 376/3/6 383/3/6
f 381/1/6 382/1/6 384/1/6
f 383/3/6 376/3/6 384/3/6
f 376/1/6 381/1/6 384/1/6
f 382/1/6 379/1/6 385/1/6
f 384/1/6 382/1/6 385/1/6
f 379/3/6 380/3/6 385/3/6
f 380/1/6 374/1/6 386/1/6
f 385/3/6 380/3/6 386/3/6
f 383/1/6 384/1/6 387/1/6
f 371/1/6 383/1/6 387/1/6
f 385/1/6 386/1/6 387/1/6
f 384/1/6 385/1/6 387/1/6
f 387/1/6 386/1/6 388/1/6
f 388/1/6 386/1/6 389/1/6
f 386/1/6 374/1/6 390/1/6
f 389/1/6 386/1/6 390/1/6
f 371/1/6 387/1/6 391/1/6
f 387/3/6 388/3/6 391/3/6
f 388/1/6 389/1/6 392/1/6
f 391/3/6 388/3/6 392/3/6
f 389/3/6 390/3/6 393/3/6
f 392/1/6 389/1/6 393/1/6
f 390/1/6 374/1/6 394/1/6
f 393/3/6 390/3/6 394/3/6
f 371/1/6 391/1/6 395/1/6
f 391/4/6 392/4/6 395/4/6
f 392/1/6 393/1/6 396/1/6
f 395/4/6 392/4/6 396/4/6
f 396/1/6 393/1/6 397/1/6
f 397/1/6 393/1/6 398/1/6
f 393/4/6 394/4/6 399/4/6
f 398/1/6 393/1/6 399/1/6
f 394/1/6 374/1/6 400/1/6
f 399/4/6 394/4/6 400/4/6
f 395/3/6 396/3/6 401/3/6
f 396/4/6 397/4/6 401/4/6
f 397/1/6 398/1/6 402/1/6
f 401/4/6 397/4/6 402/4/6
f 398/4/6 399/4/6 403/4/6
f 402/1/6 398/1/6 403/1/6
f 399/3/6 400/3/6 404/3/6
f 403/4/6 399/4/6 404/4/6
f 401/1/6 402/1/6 405/1/6
f 395/3/6 401/3/6 405/3/6
f 402/4/6 403/4/6 406/4/6
f 405/1/6 402/1/6 406/1/6
f 403/1/6 404/1/6 407/1/6
f 406/4/6 403/4/6 407/4/6
f 404/3/6 400/3/6 408/3/6
f 407/1/6 404/1/6 408/1/6
f 371/1/6 395/1/6 409/1/6
f 395/3/6 405/3/6 409/3/6
f 405/4/6 406/4/6 410/4/6
f 409/3/6 405/3/6 410/3/6
f 406/1/6 407/1/6 411/1/6
f 410/4/6 406/4/6 411/4/6
f 407/4/6 408/4/6 412/4/6
f 411/1/6 407/1/6 412/1/6
f 408/3/6 400/3/6 413/3/6
f 412/4/6 408/4/6 413/4/6
f 400/1/6 374/1/6 414/1/6
f 413/3/6 400/3/6 414/3/6
f 409/4/6 410/4/6 415/4/6
f 371/1/6 409/1/6 415/1/6
f 411/1/6 412/1/6 416/1/6
f 415/4/6 410/4/6 416/4/6
f 412/1/6 413/1/6 416/1/6
f 410/1/6 411/1/6 416/1/6
f 413/4/6 414/4/6 417/4/6
f 416/1/6 413/1/6 417/1/6
f 414/1/6 374/1/6 418/1/6
f 417/4/6 414/4/6 418/4/6
f 371/1/6 415/1/6 419/1/6
f 415/3/6 416/3/6 419/3/6
f 416/1/6 417/1/6 420/1/6
f 419/3/6 416/3/6 420/3/6
f 417/3/6 418/3/6 421/3/6
f 420/1/6 417/1/6 421/1/6
f 418/1/6 374/1/6 422/1/6
f 421/3/6 418/3/6 422/3/6
f 371/1/6 419/1/6 423/1/6
f 420/1/6 421/1/6 423/1/6
f 421/1/6 422/1/6 423/1/6
f 419/1/6 420/1/6 423/1/6
f 423/1/6 422/1/6 424/1/6
f 424/1/6 422/1/6 425/1/6
f 422/1/6 374/1/6 426/1/6
f 425/1/6 422/1/6 426/1/6
f 424/1/6 425/1/6 427/1/6
f 427/1/6 425/1/6 428/1/6
f 371/1/6 423/1/6 429/1/6
f 423/3/6 424/3/6 429/3/6
f 424/1/6 427/1/6 430/1/6
f 429/3/6 424/3/6 430/3/6
f 427/3/6 428/3/6 431/3/6
f 430/1/6 427/1/6 431/1/6
f 428/1/6 425/1/6 432/1/6
f 431/3/6 428/3/6 432/3/6
f 425/3/6 426/3/6 433/3/6
f 432/1/6 425/1/6 433/1/6
f 426/1/6 374/1/6 434/1/6
f 433/3/6 426/3/6 434/3/6
f 432/1/6 433/1/6 435/1/6
f 430/1/6 431/1/6 435/1/6
f 433/1/6 434/1/6 435/1/6
f 371/1/6 429/1/6 435/1/6
f 431/1/6 432/1/6 435/1/6
f 429/1/6 430/1/6 435/1/6
f 435/1/6 434/1/6 436/1/6
f 434/1/6 374/1/6 437/1/6
f 436/1/6 434/1/6 437/1/6
f 437/1/6 374/1/6 438/1/6
f 436/1/6 437/1/6 439/1/6
f 439/1/6 437/1/6 440/1/6
f 441/1/6 442/1/6 443/1/6
f 443/1/6 442/1/6 444/1/6
