# MagicaVoxel @ Ephtracy

# material
mtllib house_4.mtl
usemtl palette

# normals
vn -1 0 0
vn 1 0 0
vn 0 0 1
vn 0 0 -1
vn 0 -1 0
vn 0 1 0

# texcoords
vt 0.966797 0.5
vt 0.974609 0.5
vt 0.978516 0.5
vt 0.982422 0.5

# verts
v -5 5 4
v -5 5 -4
v -5 6 4
v -5 6 -4
v -4 0 4
v -4 0 -4
v -4 1 4
v -4 1 -4
v -4 3 1
v -4 3 -1
v -4 5 4
v -4 5 1
v -4 5 -1
v -4 5 -4
v -4 6 4
v -4 6 -4
v -4 7 4
v -4 7 -4
v -3 7 4
v -3 7 -4
v -3 8 4
v -3 8 -4
v -2 8 4
v -2 8 -4
v -2 9 4
v -2 9 -4
v -1 0 6
v -1 0 4
v -1 1 6
v -1 1 4
v -1 9 4
v -1 9 -4
v -1 10 4
v -1 10 -4
v 1 2 4
v 1 2 3
v 1 5 4
v 1 5 3
v 1 8 3
v 1 8 -3
v 1 9 3
v 1 9 -3
v 2 7 3
v 2 7 -3
v 2 8 3
v 2 8 -3
v 3 2 3
v 3 2 -3
v 3 3 1
v 3 3 -1
v 3 5 1
v 3 5 -1
v 3 6 3
v 3 6 -3
v 3 7 3
v 3 7 -3
v -3 2 3
v -3 2 -3
v -3 3 1
v -3 3 -1
v -3 5 1
v -3 5 -1
v -3 6 3
v -3 6 -3
v -3 7 3
v -3 7 -3
v -2 7 3
v -2 7 -3
v -2 8 3
v -2 8 -3
v -1 2 4
v -1 2 3
v -1 5 4
v -1 5 3
v -1 8 3
v -1 8 -3
v -1 9 3
v -1 9 -3
v 1 0 6
v 1 0 4
v 1 1 6
v 1 1 4
v 1 9 4
v 1 9 -4
v 1 10 4
v 1 10 -4
v 2 8 4
v 2 8 -4
v 2 9 4
v 2 9 -4
v 3 7 4
v 3 7 -4
v 3 8 4
v 3 8 -4
v 4 0 4
v 4 0 -4
v 4 1 4
v 4 1 -4
v 4 3 1
v 4 3 -1
v 4 5 4
v 4 5 1
v 4 5 -1
v 4 5 -4
v 4 6 4
v 4 6 -4
v 4 7 4
v 4 7 -4
v 5 5 4
v 5 5 -4
v 5 6 4
v 5 6 -4
v -1 0 6
v -1 1 6
v 1 0 6
v 1 1 6
v -5 5 4
v -5 6 4
v -4 0 4
v -4 1 4
v -4 5 4
v -4 6 4
v -4 7 4
v -3 7 4
v -3 8 4
v -2 8 4
v -2 9 4
v -1 0 4
v -1 1 4
v -1 2 4
v -1 5 4
v -1 9 4
v -1 10 4
v 1 0 4
v 1 1 4
v 1 2 4
v 1 5 4
v 1 9 4
v 1 10 4
v 2 8 4
v 2 9 4
v 3 7 4
v 3 8 4
v 4 0 4
v 4 1 4
v 4 5 4
v 4 6 4
v 4 7 4
v 5 5 4
v 5 6 4
v -4 3 -1
v -4 5 -1
v -3 3 -1
v -3 5 -1
v 3 3 -1
v 3 5 -1
v 4 3 -1
v 4 5 -1
v -3 2 -3
v -3 6 -3
v -3 7 -3
v -2 7 -3
v -2 8 -3
v -1 8 -3
v -1 9 -3
v 1 8 -3
v 1 9 -3
v 2 7 -3
v 2 8 -3
v 3 2 -3
v 3 6 -3
v 3 7 -3
v -3 2 3
v -3 6 3
v -3 7 3
v -2 7 3
v -2 8 3
v -1 2 3
v -1 5 3
v -1 8 3
v -1 9 3
v 1 2 3
v 1 5 3
v 1 8 3
v 1 9 3
v 2 7 3
v 2 8 3
v 3 2 3
v 3 6 3
v 3 7 3
v -4 3 1
v -4 5 1
v -3 3 1
v -3 5 1
v 3 3 1
v 3 5 1
v 4 3 1
v 4 5 1
v -5 5 -4
v -5 6 -4
v -4 0 -4
v -4 1 -4
v -4 5 -4
v -4 6 -4
v -4 7 -4
v -3 7 -4
v -3 8 -4
v -2 8 -4
v -2 9 -4
v -1 9 -4
v -1 10 -4
v 1 9 -4
v 1 10 -4
v 2 8 -4
v 2 9 -4
v 3 7 -4
v 3 8 -4
v 4 0 -4
v 4 1 -4
v 4 5 -4
v 4 6 -4
v 4 7 -4
v 5 5 -4
v 5 6 -4
v -1 0 6
v 1 0 6
v -4 0 4
v -1 0 4
v 1 0 4
v 4 0 4
v -4 0 -4
v 4 0 -4
v -5 5 4
v -4 5 4
v -1 5 4
v 1 5 4
v 4 5 4
v 5 5 4
v -1 5 3
v 1 5 3
v -4 5 1
v -3 5 1
v 3 5 1
v 4 5 1
v -4 5 -1
v -3 5 -1
v 3 5 -1
v 4 5 -1
v -5 5 -4
v -4 5 -4
v 4 5 -4
v 5 5 -4
v -3 7 3
v -2 7 3
v 2 7 3
v 3 7 3
v -3 7 -3
v -2 7 -3
v 2 7 -3
v 3 7 -3
v -2 8 3
v -1 8 3
v 1 8 3
v 2 8 3
v -2 8 -3
v -1 8 -3
v 1 8 -3
v 2 8 -3
v -1 9 3
v 1 9 3
v -1 9 -3
v 1 9 -3
v -1 1 6
v 1 1 6
v -1 1 4
v 1 1 4
v -1 2 4
v 1 2 4
v -3 2 3
v -1 2 3
v 1 2 3
v 3 2 3
v -3 2 -3
v 3 2 -3
v -4 3 1
v -3 3 1
v 3 3 1
v 4 3 1
v -4 3 -1
v -3 3 -1
v 3 3 -1
v 4 3 -1
v -5 6 4
v -4 6 4
v 4 6 4
v 5 6 4
v -5 6 -4
v -4 6 -4
v 4 6 -4
v 5 6 -4
v -4 7 4
v -3 7 4
v 3 7 4
v 4 7 4
v -4 7 -4
v -3 7 -4
v 3 7 -4
v 4 7 -4
v -3 8 4
v -2 8 4
v 2 8 4
v 3 8 4
v -3 8 -4
v -2 8 -4
v 2 8 -4
v 3 8 -4
v -2 9 4
v -1 9 4
v 1 9 4
v 2 9 4
v -2 9 -4
v -1 9 -4
v 1 9 -4
v 2 9 -4
v -1 10 4
v 1 10 4
v -1 10 -4
v 1 10 -4

# faces
f 3/2/1 2/2/1 1/2/1
f 4/2/1 2/2/1 3/2/1
f 7/4/1 6/4/1 5/4/1
f 8/4/1 6/4/1 7/4/1
f 9/1/1 8/1/1 7/1/1
f 10/1/1 8/1/1 9/1/1
f 11/1/1 9/1/1 7/1/1
f 12/1/1 9/1/1 11/1/1
f 13/1/1 8/1/1 10/1/1
f 14/1/1 8/1/1 13/1/1
f 17/2/1 16/2/1 15/2/1
f 18/2/1 16/2/1 17/2/1
f 21/2/1 20/2/1 19/2/1
f 22/2/1 20/2/1 21/2/1
f 25/2/1 24/2/1 23/2/1
f 26/2/1 24/2/1 25/2/1
f 29/4/1 28/4/1 27/4/1
f 30/4/1 28/4/1 29/4/1
f 33/2/1 32/2/1 31/2/1
f 34/2/1 32/2/1 33/2/1
f 37/1/1 36/1/1 35/1/1
f 38/1/1 36/1/1 37/1/1
f 41/2/1 40/2/1 39/2/1
f 42/2/1 40/2/1 41/2/1
f 45/2/1 44/2/1 43/2/1
f 46/2/1 44/2/1 45/2/1
f 49/1/1 48/1/1 47/1/1
f 50/1/1 48/1/1 49/1/1
f 51/1/1 49/1/1 47/1/1
f 52/1/1 48/1/1 50/1/1
f 53/1/1 51/1/1 47/1/1
f 53/1/1 52/1/1 51/1/1
f 54/1/1 48/1/1 52/1/1
f 54/1/1 52/1/1 53/1/1
f 55/2/1 54/2/1 53/2/1
f 56/2/1 54/2/1 55/2/1
f 57/1/2 58/1/2 59/1/2
f 59/1/2 58/1/2 60/1/2
f 57/1/2 59/1/2 61/1/2
f 60/1/2 58/1/2 62/1/2
f 57/1/2 61/1/2 63/1/2
f 61/1/2 62/1/2 63/1/2
f 62/1/2 58/1/2 64/1/2
f 63/1/2 62/1/2 64/1/2
f 63/2/2 64/2/2 65/2/2
f 65/2/2 64/2/2 66/2/2
f 67/2/2 68/2/2 69/2/2
f 69/2/2 68/2/2 70/2/2
f 71/1/2 72/1/2 73/1/2
f 73/1/2 72/1/2 74/1/2
f 75/2/2 76/2/2 77/2/2
f 77/2/2 76/2/2 78/2/2
f 79/4/2 80/4/2 81/4/2
f 81/4/2 80/4/2 82/4/2
f 83/2/2 84/2/2 85/2/2
f 85/2/2 84/2/2 86/2/2
f 87/2/2 88/2/2 89/2/2
f 89/2/2 88/2/2 90/2/2
f 91/2/2 92/2/2 93/2/2
f 93/2/2 92/2/2 94/2/2
f 95/4/2 96/4/2 97/4/2
f 97/4/2 96/4/2 98/4/2
f 97/1/2 98/1/2 99/1/2
f 99/1/2 98/1/2 100/1/2
f 97/1/2 99/1/2 101/1/2
f 101/1/2 99/1/2 102/1/2
f 100/1/2 98/1/2 103/1/2
f 103/1/2 98/1/2 104/1/2
f 105/2/2 106/2/2 107/2/2
f 107/2/2 106/2/2 108/2/2
f 109/2/2 110/2/2 111/2/2
f 111/2/2 110/2/2 112/2/2
f 115/4/3 114/4/3 113/4/3
f 116/4/3 114/4/3 115/4/3
f 121/2/3 118/2/3 117/2/3
f 122/2/3 118/2/3 121/2/3
f 124/2/3 123/2/3 122/2/3
f 126/2/3 125/2/3 124/2/3
f 128/4/3 120/4/3 119/4/3
f 129/1/3 121/1/3 120/1/3
f 129/4/3 120/4/3 128/4/3
f 129/1/3 122/1/3 121/1/3
f 130/1/3 122/1/3 129/1/3
f 131/1/3 122/1/3 130/1/3
f 132/2/3 127/2/3 126/2/3
f 135/1/3 130/1/3 129/1/3
f 136/1/3 130/1/3 135/1/3
f 137/1/3 122/1/3 131/1/3
f 138/2/3 133/2/3 132/2/3
f 138/2/3 132/2/3 126/2/3
f 139/2/3 133/2/3 138/2/3
f 140/2/3 126/2/3 124/2/3
f 140/2/3 138/2/3 126/2/3
f 141/2/3 138/2/3 140/2/3
f 142/2/3 124/2/3 122/2/3
f 142/2/3 140/2/3 124/2/3
f 143/2/3 140/2/3 142/2/3
f 144/4/3 135/4/3 134/4/3
f 145/1/3 136/1/3 135/1/3
f 145/4/3 135/4/3 144/4/3
f 145/1/3 137/1/3 136/1/3
f 146/1/3 122/1/3 137/1/3
f 146/1/3 137/1/3 145/1/3
f 147/2/3 142/2/3 122/2/3
f 147/1/3 122/1/3 146/1/3
f 148/2/3 142/2/3 147/2/3
f 149/2/3 147/2/3 146/2/3
f 150/2/3 147/2/3 149/2/3
f 153/1/3 152/1/3 151/1/3
f 154/1/3 152/1/3 153/1/3
f 157/1/3 156/1/3 155/1/3
f 158/1/3 156/1/3 157/1/3
f 162/2/3 161/2/3 160/2/3
f 164/2/3 163/2/3 162/2/3
f 166/2/3 164/2/3 162/2/3
f 166/2/3 165/2/3 164/2/3
f 167/2/3 165/2/3 166/2/3
f 168/2/3 162/2/3 160/2/3
f 168/2/3 166/2/3 162/2/3
f 169/2/3 166/2/3 168/2/3
f 170/1/3 160/1/3 159/1/3
f 171/2/3 168/2/3 160/2/3
f 171/1/3 160/1/3 170/1/3
f 172/2/3 168/2/3 171/2/3
f 174/2/4 175/2/4 176/2/4
f 173/1/4 174/1/4 178/1/4
f 178/1/4 174/1/4 179/1/4
f 176/2/4 177/2/4 180/2/4
f 179/1/4 174/1/4 183/1/4
f 176/2/4 180/2/4 184/2/4
f 180/2/4 181/2/4 184/2/4
f 184/2/4 181/2/4 185/2/4
f 174/2/4 176/2/4 186/2/4
f 176/2/4 184/2/4 186/2/4
f 186/2/4 184/2/4 187/2/4
f 182/1/4 183/1/4 188/1/4
f 183/1/4 174/1/4 189/1/4
f 188/1/4 183/1/4 189/1/4
f 174/2/4 186/2/4 189/2/4
f 189/2/4 186/2/4 190/2/4
f 191/1/4 192/1/4 193/1/4
f 193/1/4 192/1/4 194/1/4
f 195/1/4 196/1/4 197/1/4
f 197/1/4 196/1/4 198/1/4
f 199/2/4 200/2/4 203/2/4
f 203/2/4 200/2/4 204/2/4
f 204/2/4 205/2/4 206/2/4
f 206/2/4 207/2/4 208/2/4
f 208/2/4 209/2/4 210/2/4
f 208/2/4 210/2/4 212/2/4
f 210/2/4 211/2/4 212/2/4
f 212/2/4 211/2/4 213/2/4
f 206/2/4 208/2/4 214/2/4
f 208/2/4 212/2/4 214/2/4
f 214/2/4 212/2/4 215/2/4
f 204/2/4 206/2/4 216/2/4
f 206/2/4 214/2/4 216/2/4
f 216/2/4 214/2/4 217/2/4
f 201/4/4 202/4/4 218/4/4
f 202/1/4 203/1/4 219/1/4
f 218/4/4 202/4/4 219/4/4
f 203/1/4 204/1/4 219/1/4
f 219/1/4 204/1/4 220/1/4
f 204/2/4 216/2/4 221/2/4
f 220/1/4 204/1/4 221/1/4
f 221/2/4 216/2/4 222/2/4
f 220/2/4 221/2/4 223/2/4
f 223/2/4 221/2/4 224/2/4
f 228/4/5 226/4/5 225/4/5
f 229/4/5 226/4/5 228/4/5
f 231/4/5 228/4/5 227/4/5
f 231/4/5 230/4/5 229/4/5
f 231/4/5 229/4/5 228/4/5
f 232/4/5 230/4/5 231/4/5
f 239/1/5 236/1/5 235/1/5
f 240/1/5 236/1/5 239/1/5
f 241/2/5 234/2/5 233/2/5
f 244/2/5 238/2/5 237/2/5
f 245/1/5 242/1/5 241/1/5
f 245/2/5 241/2/5 233/2/5
f 246/1/5 242/1/5 245/1/5
f 247/1/5 244/1/5 243/1/5
f 248/2/5 238/2/5 244/2/5
f 248/1/5 244/1/5 247/1/5
f 249/2/5 245/2/5 233/2/5
f 250/2/5 245/2/5 249/2/5
f 251/2/5 238/2/5 248/2/5
f 252/2/5 238/2/5 251/2/5
f 257/2/5 254/2/5 253/2/5
f 258/2/5 254/2/5 257/2/5
f 259/2/5 256/2/5 255/2/5
f 260/2/5 256/2/5 259/2/5
f 265/2/5 262/2/5 261/2/5
f 266/2/5 262/2/5 265/2/5
f 267/2/5 264/2/5 263/2/5
f 268/2/5 264/2/5 267/2/5
f 271/2/5 270/2/5 269/2/5
f 272/2/5 270/2/5 271/2/5
f 273/4/6 274/4/6 275/4/6
f 275/4/6 274/4/6 276/4/6
f 277/1/6 278/1/6 280/1/6
f 280/1/6 278/1/6 281/1/6
f 279/3/6 280/3/6 283/3/6
f 281/3/6 282/3/6 283/3/6
f 280/3/6 281/3/6 283/3/6
f 283/3/6 282/3/6 284/3/6
f 285/1/6 286/1/6 289/1/6
f 289/1/6 286/1/6 290/1/6
f 287/1/6 288/1/6 291/1/6
f 291/1/6 288/1/6 292/1/6
f 293/2/6 294/2/6 297/2/6
f 297/2/6 294/2/6 298/2/6
f 295/2/6 296/2/6 299/2/6
f 299/2/6 296/2/6 300/2/6
f 301/2/6 302/2/6 305/2/6
f 305/2/6 302/2/6 306/2/6
f 303/2/6 304/2/6 307/2/6
f 307/2/6 304/2/6 308/2/6
f 309/2/6 310/2/6 313/2/6
f 313/2/6 310/2/6 314/2/6
f 311/2/6 312/2/6 315/2/6
f 315/2/6 312/2/6 316/2/6
f 317/2/6 318/2/6 321/2/6
f 321/2/6 318/2/6 322/2/6
f 319/2/6 320/2/6 323/2/6
f 323/2/6 320/2/6 324/2/6
f 325/2/6 326/2/6 327/2/6
f 327/2/6 326/2/6 328/2/6
