# MagicaVoxel @ Ephtracy

# material
mtllib house_half.mtl
usemtl palette

# normals
vn -1 0 0
vn 1 0 0
vn 0 0 1
vn 0 0 -1
vn 0 -1 0
vn 0 1 0

# texcoords
vt 0.966797 0.5
vt 0.978516 0.5
vt 0.982422 0.5

# verts
v -4 0 4
v -4 0 -4
v -4 1 4
v -4 1 -4
v -4 3 4
v -4 3 -1
v -4 4 -1
v -4 4 -4
v -1 0 6
v -1 0 4
v -1 1 6
v -1 1 4
v 1 2 4
v 1 2 3
v 1 4 4
v 1 4 3
v 3 2 3
v 3 2 -3
v 3 3 1
v 3 3 -1
v 3 4 3
v 3 4 1
v 3 4 -1
v 3 4 -3
v -3 2 3
v -3 2 -3
v -3 3 3
v -3 3 -1
v -3 4 -1
v -3 4 -3
v -1 2 4
v -1 2 3
v -1 3 4
v -1 3 3
v 1 0 6
v 1 0 4
v 1 1 6
v 1 1 4
v 4 0 4
v 4 0 -4
v 4 1 4
v 4 1 -4
v 4 3 1
v 4 3 -1
v 4 4 4
v 4 4 1
v 4 4 -1
v 4 4 -4
v -1 0 6
v -1 1 6
v 1 0 6
v 1 1 6
v -4 0 4
v -4 1 4
v -4 3 4
v -1 0 4
v -1 1 4
v -1 2 4
v -1 3 4
v 1 0 4
v 1 1 4
v 1 2 4
v 1 4 4
v 4 0 4
v 4 1 4
v 4 4 4
v -4 3 -1
v -4 4 -1
v -3 3 -1
v -3 4 -1
v 3 3 -1
v 3 4 -1
v 4 3 -1
v 4 4 -1
v -3 2 -3
v -3 4 -3
v 3 2 -3
v 3 4 -3
v -3 2 3
v -3 3 3
v -1 2 3
v -1 3 3
v 1 2 3
v 1 4 3
v 3 2 3
v 3 4 3
v 3 3 1
v 3 4 1
v 4 3 1
v 4 4 1
v -4 0 -4
v -4 1 -4
v -4 4 -4
v 4 0 -4
v 4 1 -4
v 4 4 -4
v -1 0 6
v 1 0 6
v -4 0 4
v -1 0 4
v 1 0 4
v 4 0 4
v -4 0 -4
v 4 0 -4
v -1 1 6
v 1 1 6
v -1 1 4
v 1 1 4
v -1 2 4
v 1 2 4
v -3 2 3
v -1 2 3
v 1 2 3
v 3 2 3
v -3 2 -3
v 3 2 -3
v -4 3 4
v -1 3 4
v -3 3 3
v -1 3 3
v 3 3 1
v 4 3 1
v -4 3 -1
v -3 3 -1
v 3 3 -1
v 4 3 -1
v 1 4 4
v 4 4 4
v 1 4 3
v 3 4 3
v 3 4 1
v 4 4 1
v -4 4 -1
v -3 4 -1
v 3 4 -1
v 4 4 -1
v -3 4 -3
v 3 4 -3
v -4 4 -4
v 4 4 -4

# faces
f 3/3/1 2/3/1 1/3/1
f 4/3/1 2/3/1 3/3/1
f 5/1/1 4/1/1 3/1/1
f 6/1/1 4/1/1 5/1/1
f 7/1/1 4/1/1 6/1/1
f 8/1/1 4/1/1 7/1/1
f 11/3/1 10/3/1 9/3/1
f 12/3/1 10/3/1 11/3/1
f 15/1/1 14/1/1 13/1/1
f 16/1/1 14/1/1 15/1/1
f 19/1/1 18/1/1 17/1/1
f 20/1/1 18/1/1 19/1/1
f 21/1/1 19/1/1 17/1/1
f 22/1/1 19/1/1 21/1/1
f 23/1/1 18/1/1 20/1/1
f 24/1/1 18/1/1 23/1/1
f 25/1/2 26/1/2 27/1/2
f 27/1/2 26/1/2 28/1/2
f 28/1/2 26/1/2 29/1/2
f 29/1/2 26/1/2 30/1/2
f 31/1/2 32/1/2 33/1/2
f 33/1/2 32/1/2 34/1/2
f 35/3/2 36/3/2 37/3/2
f 37/3/2 36/3/2 38/3/2
f 39/3/2 40/3/2 41/3/2
f 41/3/2 40/3/2 42/3/2
f 41/1/2 42/1/2 43/1/2
f 43/1/2 42/1/2 44/1/2
f 41/1/2 43/1/2 45/1/2
f 45/1/2 43/1/2 46/1/2
f 44/1/2 42/1/2 47/1/2
f 47/1/2 42/1/2 48/1/2
f 51/3/3 50/3/3 49/3/3
f 52/3/3 50/3/3 51/3/3
f 56/3/3 54/3/3 53/3/3
f 57/1/3 55/1/3 54/1/3
f 57/3/3 54/3/3 56/3/3
f 58/1/3 55/1/3 57/1/3
f 59/1/3 55/1/3 58/1/3
f 61/1/3 58/1/3 57/1/3
f 62/1/3 58/1/3 61/1/3
f 64/3/3 61/3/3 60/3/3
f 65/1/3 62/1/3 61/1/3
f 65/3/3 61/3/3 64/3/3
f 65/1/3 63/1/3 62/1/3
f 66/1/3 63/1/3 65/1/3
f 69/1/3 68/1/3 67/1/3
f 70/1/3 68/1/3 69/1/3
f 73/1/3 72/1/3 71/1/3
f 74/1/3 72/1/3 73/1/3
f 77/1/3 76/1/3 75/1/3
f 78/1/3 76/1/3 77/1/3
f 79/1/4 80/1/4 81/1/4
f 81/1/4 80/1/4 82/1/4
f 83/1/4 84/1/4 85/1/4
f 85/1/4 84/1/4 86/1/4
f 87/1/4 88/1/4 89/1/4
f 89/1/4 88/1/4 90/1/4
f 91/3/4 92/3/4 94/3/4
f 92/1/4 93/1/4 95/1/4
f 94/3/4 92/3/4 95/3/4
f 95/1/4 93/1/4 96/1/4
f 100/3/5 98/3/5 97/3/5
f 101/3/5 98/3/5 100/3/5
f 103/3/5 100/3/5 99/3/5
f 103/3/5 102/3/5 101/3/5
f 103/3/5 101/3/5 100/3/5
f 104/3/5 102/3/5 103/3/5
f 105/3/6 106/3/6 107/3/6
f 107/3/6 106/3/6 108/3/6
f 109/1/6 110/1/6 112/1/6
f 112/1/6 110/1/6 113/1/6
f 111/2/6 112/2/6 115/2/6
f 113/2/6 114/2/6 115/2/6
f 112/2/6 113/2/6 115/2/6
f 115/2/6 114/2/6 116/2/6
f 117/1/6 118/1/6 119/1/6
f 119/1/6 118/1/6 120/1/6
f 117/1/6 119/1/6 123/1/6
f 123/1/6 119/1/6 124/1/6
f 121/1/6 122/1/6 125/1/6
f 125/1/6 122/1/6 126/1/6
f 127/1/6 128/1/6 129/1/6
f 129/1/6 128/1/6 130/1/6
f 130/1/6 128/1/6 131/1/6
f 131/1/6 128/1/6 132/1/6
f 133/1/6 134/1/6 137/1/6
f 135/1/6 136/1/6 138/1/6
f 133/1/6 137/1/6 139/1/6
f 137/1/6 138/1/6 139/1/6
f 138/1/6 136/1/6 140/1/6
f 139/1/6 138/1/6 140/1/6
